{
	"meshes":[{
		"name":"Plane",
		"primitives":[{
			"attributes":{
				"POSITION":1,
				"NORMAL":2,
				"TEXCOORD_0":3
			},
			"indices":0,
			"material":0
		}]
	},
	{
		"name":"Sphere",
		"primitives":[{
			"attributes":{
				"POSITION":5,
				"NORMAL":6,
				"TEXCOORD_0":7
			},
			"indices":4,
			"material":1
		}]
	}],
	"asset":{
		"version":"2.0",
		"generator":"Created using the official Cinema 4D glTF Exporter 1.000x284978"
	},
	"scenes":[{
		"nodes":[0]
	}],
	"nodes":[{
		"name":"INSIDE.obj",
		"children":[1,
		2]
	},
	{
		"name":"Plane",
		"mesh":0
	},
	{
		"name":"Sphere",
		"mesh":1
	}],
	"textures":[{
		"sampler":0,
		"source":0
	},
	{
		"sampler":1,
		"source":1
	},
	{
		"sampler":2,
		"source":2
	}],
	"images":[{
		"uri":"data:image/png;base64,"
	},
	{
		"uri":"data:image/jpeg;base64,"
	},
	{
		"uri":"data:image/jpeg;base64,"
	}],
	"accessors":[{
		"bufferView":0,
		"type":"SCALAR",
		"componentType":5123,
		"count":27000,
		"byteOffset":0,
		"min":[0],
		"max":[5522]
	},
	{
		"bufferView":1,
		"type":"VEC3",
		"componentType":5126,
		"count":5523,
		"byteOffset":0,
		"min":[-193.85372924804688,
		-123.88005828857422,
		-66.30389404296875],
		"max":[120.3862533569336,
		52.87994384765625,
		-32.282936096191409]
	},
	{
		"bufferView":1,
		"type":"VEC3",
		"componentType":5126,
		"count":5523,
		"byteOffset":12,
		"min":[-0.9804688096046448,
		-0.9847813248634338,
		0.13356250524520875],
		"max":[0.9841563105583191,
		0.9900937676429749,
		1.0]
	},
	{
		"bufferView":1,
		"type":"VEC2",
		"componentType":5126,
		"count":5523,
		"byteOffset":24,
		"min":[0.0,
		0.0],
		"max":[1.0,
		1.0]
	},
	{
		"bufferView":2,
		"type":"SCALAR",
		"componentType":5123,
		"count":6696,
		"byteOffset":0,
		"min":[0],
		"max":[4463]
	},
	{
		"bufferView":3,
		"type":"VEC3",
		"componentType":5126,
		"count":4464,
		"byteOffset":0,
		"min":[-313.9891357421875,
		-198.52552795410157,
		-163.3102569580078],
		"max":[347.0587463378906,
		218.38377380371095,
		10.76768684387207]
	},
	{
		"bufferView":3,
		"type":"VEC3",
		"componentType":5126,
		"count":4464,
		"byteOffset":12,
		"min":[-0.9966250658035278,
		-0.9974687695503235,
		-1.0],
		"max":[0.9959375262260437,
		0.999625027179718,
		0.9996563196182251]
	},
	{
		"bufferView":3,
		"type":"VEC2",
		"componentType":5126,
		"count":4464,
		"byteOffset":24,
		"min":[0.025022998452186586,
		0.019652999937534334],
		"max":[0.9552630186080933,
		0.9452610015869141]
	}],
	"bufferViews":[{
		"buffer":0,
		"byteOffset":0,
		"byteLength":54000,
		"target":34963
	},
	{
		"buffer":0,
		"byteOffset":54000,
		"byteLength":176736,
		"target":34962,
		"byteStride":32
	},
	{
		"buffer":1,
		"byteOffset":0,
		"byteLength":13392,
		"target":34963
	},
	{
		"buffer":1,
		"byteOffset":13392,
		"byteLength":142848,
		"target":34962,
		"byteStride":32
	}],
	"buffers":[{
		"uri":"data:application/octet-stream;base64,",
		"byteLength":230736
	},
	{
		"uri":"data:application/octet-stream;base64,",
		"byteLength":156240
	}],
	"samplers":[{
		"magFilter":9729,
		"minFilter":9729,
		"wrapS":10497,
		"wrapT":10497
	},
	{
		"magFilter":9729,
		"minFilter":9729,
		"wrapS":10497,
		"wrapT":10497
	},
	{
		"magFilter":9729,
		"minFilter":9729,
		"wrapS":10497,
		"wrapT":10497
	}],
	"materials":[{
		"pbrMetallicRoughness":{
			"baseColorTexture":{
				"index":0
			},
			"baseColorFactor":[1.0,
			1.0,
			1.0,
			1.0],
			"metallicFactor":1.0,
			"roughnessFactor":1.0
		},
		"emissiveTexture":{
			"index":1
		},
		"emissiveFactor":[1.0,
		1.0,
		1.0],
		"alphaMode":"BLEND",
		"doubleSided":false,
		"name":"Mat.1"
	},
	{
		"pbrMetallicRoughness":{
			"baseColorFactor":[1.0,
			1.0,
			1.0,
			1.0],
			"metallicFactor":0.0,
			"roughnessFactor":0.5
		},
		"emissiveTexture":{
			"index":2
		},
		"emissiveFactor":[1.0,
		1.0,
		1.0],
		"alphaMode":"OPAQUE",
		"doubleSided":false,
		"name":"Mat.2"
	}]
}