<svg width="1000" height="500" viewBox="0 0 1000 500" fill="none" xmlns="http://www.w3.org/2000/svg">
<path d="M685 0H630.1V500H788.4V445.1H741.5C710.3 445.1 685.1 419.8 685.1 388.7V0H685Z" fill="white"/>
<path d="M945.1 500H1000V0H841.7V54.9H888.6C919.8 54.9 945 80.2 945 111.3V500H945.1Z" fill="white"/>
<path d="M0 318.3C0 410.9 69 487.7 158.3 500V446.8H111.4C80.3 446.8 55 421.5 55 390.4V109.7C55 78.6 80.3 53.3 111.4 53.3H158.3V0C69 12.3 0 89.1 0 181.7V318.3Z" fill="white"/>
<path d="M315 0V318.3C315 410.9 384 487.7 473.3 500V446.8H426.4C395.3 446.8 370 421.5 370 390.4V0" fill="white"/>
</svg>
