<svg width="680" height="680" viewBox="0 0 680 680" fill="none" xmlns="http://www.w3.org/2000/svg">
<path d="M339.933 675C524.912 675 674.866 525.045 674.866 340.067C674.866 155.088 524.912 5.13361 339.933 5.13361C154.955 5.13361 5 155.088 5 340.067C5 525.045 154.955 675 339.933 675Z" stroke="white" stroke-width="10" stroke-linecap="round" stroke-linejoin="round" stroke-dasharray="101.23 101.23"/>
<path d="M55.9739 317.858C60.9042 249.747 90.2335 186.381 139.789 137.613C187.725 90.3375 250.682 61.3109 317.762 55.5574" stroke="white" stroke-width="2" stroke-linecap="round" stroke-linejoin="round" stroke-dasharray="20 20"/>
<path d="M340.26 642.456C259.69 642.456 183.939 611.077 126.966 554.096C69.9927 497.116 38.6067 421.372 38.6067 340.802C38.6067 260.232 69.9853 184.473 126.966 127.5C183.946 70.5268 259.69 39.1556 340.26 39.1556C420.831 39.1556 496.582 70.5343 553.555 127.515C610.528 184.495 641.914 260.239 641.914 340.817C641.914 421.394 610.535 497.138 553.555 554.111C496.574 611.084 420.831 642.456 340.26 642.456Z" stroke="white" stroke-width="2" stroke-linecap="round" stroke-linejoin="round"/>
</svg>
