<svg width="272" height="21" viewBox="0 0 272 21" fill="none" xmlns="http://www.w3.org/2000/svg">
<path d="M0.759478 11.8858C0.522067 11.6735 0.331815 11.4137 0.200999 11.1233C0.0701826 10.8329 0.00171007 10.5183 0 10.1998C0.0259455 9.62641 0.267343 9.08394 0.675936 8.68084C0.881268 8.42955 1.13791 8.22502 1.42869 8.08094C1.71946 7.93686 2.03766 7.85656 2.36198 7.84541C2.93399 7.87712 3.47447 8.11764 3.88093 8.52135C4.12802 8.72487 4.32945 8.97818 4.47208 9.26476C4.61472 9.55135 4.69536 9.86477 4.70877 10.1846C4.71295 10.4963 4.65537 10.8058 4.53936 11.0952C4.42335 11.3846 4.2512 11.6481 4.03283 11.8706C3.81582 12.0901 3.5565 12.2632 3.27059 12.3793C2.98467 12.4955 2.67814 12.5524 2.36957 12.5466C1.76802 12.5408 1.19165 12.3043 0.759478 11.8858ZM0.759478 19.7464C0.521119 19.5332 0.330308 19.2723 0.199457 18.9805C0.0686066 18.6887 0.000647417 18.3726 0 18.0528C0.0259455 17.4794 0.267343 16.937 0.675936 16.5338C0.881985 16.2839 1.13895 16.0809 1.42968 15.9381C1.72042 15.7954 2.03825 15.7162 2.36198 15.706C2.93399 15.7377 3.47447 15.9782 3.88093 16.3819C4.12709 16.5846 4.32797 16.8367 4.47057 17.1219C4.61317 17.4071 4.69431 17.7191 4.70877 18.0376C4.70874 18.3562 4.64489 18.6716 4.52097 18.965C4.39704 19.2585 4.21557 19.5242 3.98726 19.7464C3.77025 19.9659 3.51093 20.1389 3.22502 20.2551C2.93911 20.3713 2.63257 20.4282 2.324 20.4224C1.73704 20.3975 1.17992 20.1568 0.759478 19.7464ZM8.62767 4.02524C8.37871 3.81819 8.17775 3.55948 8.03874 3.26703C7.89973 2.97458 7.82598 2.65539 7.82263 2.3316C7.85434 1.75959 8.09485 1.21911 8.49856 0.812642C8.70687 0.564579 8.96569 0.363785 9.25773 0.223655C9.54978 0.0835238 9.86835 0.00727698 10.1922 0C10.7656 0.0259455 11.3081 0.267343 11.7112 0.675936C11.9595 0.876664 12.1619 1.12833 12.3047 1.41394C12.4475 1.69956 12.5274 2.01248 12.539 2.3316C12.5455 2.64478 12.489 2.95606 12.3729 3.247C12.2567 3.53793 12.0834 3.80257 11.8631 4.02524C11.6469 4.24374 11.3888 4.41627 11.1043 4.53243C10.8198 4.64859 10.5147 4.70599 10.2074 4.70117C9.6148 4.68144 9.05113 4.44025 8.62767 4.02524Z" fill="white"/>
<path d="M24.3492 11.8858C24.1049 11.677 23.9075 11.4187 23.7701 11.1282C23.6326 10.8376 23.5582 10.5212 23.5518 10.1998C23.5777 9.62641 23.8191 9.08394 24.2277 8.68084C24.4339 8.4286 24.6917 8.22351 24.9839 8.07939C25.276 7.93528 25.5957 7.85549 25.9213 7.84541C26.4933 7.87712 27.0338 8.11764 27.4403 8.52135C27.6874 8.72487 27.8888 8.97818 28.0314 9.26476C28.1741 9.55135 28.2547 9.86477 28.2681 10.1846C28.2723 10.4963 28.2147 10.8058 28.0987 11.0952C27.9827 11.3846 27.8105 11.6481 27.5922 11.8706C27.378 12.0917 27.1202 12.2659 26.8352 12.3823C26.5503 12.4986 26.2442 12.5546 25.9365 12.5466C25.343 12.5343 24.7761 12.2983 24.3492 11.8858ZM24.3492 19.754C24.1039 19.5443 23.906 19.2849 23.7685 18.9929C23.631 18.7009 23.5572 18.3831 23.5518 18.0604C23.5777 17.487 23.8191 16.9445 24.2277 16.5414C24.4346 16.2906 24.6928 16.0869 24.9849 15.9441C25.277 15.8014 25.5963 15.7228 25.9213 15.7136C26.4933 15.7453 27.0338 15.9858 27.4403 16.3895C27.6886 16.5903 27.891 16.8419 28.0339 17.1276C28.1767 17.4132 28.2565 17.7261 28.2681 18.0452C28.2711 18.3604 28.2115 18.673 28.0929 18.965C27.9742 19.257 27.7989 19.5226 27.577 19.7464C27.3609 19.9649 27.1028 20.1375 26.8183 20.2536C26.5337 20.3698 26.2286 20.4272 25.9213 20.4224C25.3319 20.3986 24.772 20.1579 24.3492 19.7464V19.754ZM32.2174 4.02524C31.979 3.81204 31.7882 3.55106 31.6574 3.25926C31.5265 2.96746 31.4586 2.65139 31.4579 2.3316C31.4839 1.75821 31.7253 1.21575 32.1339 0.812642C32.3371 0.570192 32.5886 0.372723 32.8723 0.232812C33.1561 0.0929003 33.4659 0.0136132 33.7819 0C34.3553 0.0259455 34.8978 0.267343 35.3009 0.675936C35.5465 0.878103 35.746 1.1304 35.8861 1.41594C36.0263 1.70148 36.1038 2.01367 36.1135 2.3316C36.12 2.64478 36.0635 2.95606 35.9474 3.247C35.8313 3.53793 35.6579 3.80257 35.4376 4.02524C35.2215 4.24374 34.9634 4.41627 34.6789 4.53243C34.3943 4.64859 34.0892 4.70599 33.7819 4.70117C33.1946 4.67769 32.637 4.43679 32.2174 4.02524ZM32.2174 11.8858C31.98 11.6735 31.7897 11.4137 31.6589 11.1233C31.5281 10.8329 31.4596 10.5183 31.4579 10.1998C31.4839 9.62641 31.7253 9.08394 32.1339 8.68084C32.3392 8.42955 32.5958 8.22502 32.8866 8.08094C33.1774 7.93686 33.4956 7.85656 33.8199 7.84541C34.3933 7.87136 34.9358 8.11275 35.3389 8.52135C35.5859 8.72487 35.7874 8.97818 35.93 9.26476C36.0726 9.55135 36.1533 9.86477 36.1667 10.1846C36.1726 10.4966 36.1158 10.8065 35.9997 11.0962C35.8836 11.3858 35.7105 11.6491 35.4908 11.8706C35.2765 12.0917 35.0188 12.2659 34.7338 12.3823C34.4488 12.4986 34.1428 12.5546 33.8351 12.5466C33.2306 12.5444 32.6506 12.3075 32.2174 11.8858Z" fill="white"/>
<path d="M47.9457 4.02524C47.6967 3.81819 47.4957 3.55948 47.3567 3.26703C47.2177 2.97458 47.144 2.65539 47.1406 2.3316C47.1723 1.75959 47.4128 1.21911 47.8166 0.812642C48.0249 0.564579 48.2837 0.363785 48.5757 0.223655C48.8678 0.0835238 49.1864 0.00727698 49.5102 0C50.0836 0.0259455 50.626 0.267343 51.0292 0.675936C51.2775 0.876664 51.4799 1.12833 51.6227 1.41394C51.7655 1.69956 51.8454 2.01248 51.857 2.3316C51.8618 2.64455 51.8045 2.95535 51.6885 3.24604C51.5724 3.53674 51.4 3.80156 51.1811 4.02524C50.9649 4.24374 50.7068 4.41627 50.4223 4.53243C50.1378 4.64859 49.8327 4.70599 49.5254 4.70117C48.9328 4.68144 48.3691 4.44025 47.9457 4.02524ZM47.9457 19.754C47.6967 19.547 47.4957 19.2883 47.3567 18.9958C47.2177 18.7034 47.144 18.3842 47.1406 18.0604C47.1666 17.487 47.408 16.9445 47.8166 16.5414C48.0234 16.2906 48.2816 16.0869 48.5737 15.9441C48.8659 15.8014 49.1852 15.7228 49.5102 15.7136C50.0836 15.7396 50.626 15.981 51.0292 16.3895C51.2775 16.5903 51.4799 16.8419 51.6227 17.1276C51.7655 17.4132 51.8454 17.7261 51.857 18.0452C51.8599 18.3604 51.8004 18.673 51.6817 18.965C51.5631 19.257 51.3878 19.5226 51.1659 19.7464C50.9497 19.9649 50.6917 20.1375 50.4071 20.2536C50.1226 20.3698 49.8175 20.4272 49.5102 20.4224C48.9229 20.3989 48.3653 20.158 47.9457 19.7464V19.754ZM55.8063 19.754C55.4838 19.4299 55.2623 19.019 55.1688 18.5714C55.0752 18.1239 55.1136 17.6587 55.2793 17.2325C55.4449 16.8063 55.7307 16.4374 56.102 16.1704C56.4733 15.9035 56.914 15.7501 57.3708 15.7288C57.9442 15.7547 58.4866 15.9961 58.8898 16.4047C59.1373 16.6067 59.3396 16.8585 59.4835 17.1437C59.6275 17.429 59.7098 17.7413 59.7252 18.0604C59.7271 18.6917 59.4785 19.2981 59.0341 19.7464C58.817 19.9659 58.5577 20.1389 58.2718 20.2551C57.9859 20.3713 57.6794 20.4282 57.3708 20.4224C56.7835 20.3989 56.2259 20.158 55.8063 19.7464V19.754Z" fill="white"/>
<path d="M71.5349 4.02524C71.2965 3.81204 71.1057 3.55106 70.9748 3.25926C70.844 2.96746 70.776 2.65139 70.7754 2.3316C70.8013 1.75821 71.0427 1.21575 71.4513 0.812642C71.6546 0.570192 71.9061 0.372723 72.1898 0.232812C72.4736 0.0929003 72.7833 0.0136132 73.0994 0C73.6728 0.0259455 74.2152 0.267343 74.6184 0.675936C74.8667 0.876664 75.0691 1.12833 75.2119 1.41394C75.3547 1.69956 75.4346 2.01248 75.4462 2.3316C75.4527 2.64478 75.3962 2.95606 75.28 3.247C75.1639 3.53793 74.9906 3.80257 74.7702 4.02524C74.5541 4.24374 74.296 4.41627 74.0115 4.53243C73.727 4.64859 73.4219 4.70599 73.1146 4.70117C72.522 4.68144 71.9583 4.44025 71.5349 4.02524ZM79.3955 4.02524C79.1571 3.81204 78.9663 3.55106 78.8355 3.25926C78.7046 2.96746 78.6366 2.65139 78.636 2.3316C78.6677 1.75959 78.9082 1.21911 79.3119 0.812642C79.5152 0.570192 79.7667 0.372723 80.0504 0.232812C80.3342 0.0929003 80.6439 0.0136132 80.96 0C81.532 0.0317085 82.0725 0.272224 82.479 0.675936C82.7251 0.878617 82.926 1.13071 83.0686 1.41591C83.2112 1.70111 83.2923 2.01306 83.3068 2.3316C83.3116 2.64455 83.2543 2.95535 83.1383 3.24604C83.0222 3.53674 82.8498 3.80156 82.6308 4.02524C82.4138 4.24468 82.1545 4.41774 81.8686 4.53393C81.5827 4.65013 81.2762 4.70702 80.9676 4.70117C80.378 4.67812 79.8178 4.43729 79.3955 4.02524ZM79.3955 11.8858C79.1581 11.6735 78.9678 11.4137 78.837 11.1233C78.7062 10.8329 78.6377 10.5183 78.636 10.1998C78.6619 9.62641 78.9033 9.08394 79.3119 8.68084C79.5173 8.42955 79.7739 8.22502 80.0647 8.08094C80.3555 7.93686 80.6736 7.85656 80.998 7.84541C81.57 7.87712 82.1105 8.11764 82.5169 8.52135C82.764 8.72487 82.9654 8.97818 83.1081 9.26476C83.2507 9.55135 83.3314 9.86477 83.3448 10.1846C83.3489 10.4963 83.2914 10.8058 83.1754 11.0952C83.0593 11.3846 82.8872 11.6481 82.6688 11.8706C82.4518 12.0901 82.1925 12.2632 81.9066 12.3793C81.6207 12.4955 81.3141 12.5524 81.0056 12.5466C80.404 12.5408 79.8276 12.3043 79.3955 11.8858Z" fill="white"/>
<path d="M95.1247 11.8858C94.8873 11.6735 94.697 11.4137 94.5662 11.1233C94.4354 10.8329 94.3669 10.5183 94.3652 10.1998C94.3912 9.62641 94.6326 9.08394 95.0412 8.68084C95.2465 8.42955 95.5031 8.22502 95.7939 8.08094C96.0847 7.93686 96.4029 7.85656 96.7272 7.84541C97.3006 7.87136 97.8431 8.11275 98.2462 8.52135C98.4946 8.72416 98.6975 8.97716 98.8415 9.26378C98.9854 9.5504 99.0673 9.86418 99.0816 10.1846C99.0858 10.4963 99.0282 10.8058 98.9122 11.0952C98.7962 11.3846 98.624 11.6481 98.4057 11.8706C98.1886 12.0901 97.9293 12.2632 97.6434 12.3793C97.3575 12.4955 97.051 12.5524 96.7424 12.5466C96.1379 12.5444 95.5579 12.3075 95.1247 11.8858ZM102.985 4.02524C102.74 3.81551 102.542 3.55607 102.405 3.2641C102.267 2.97212 102.193 2.65427 102.188 2.3316C102.22 1.75959 102.46 1.21911 102.864 0.812642C103.072 0.564579 103.331 0.363785 103.623 0.223655C103.915 0.0835238 104.234 0.00727698 104.557 0C105.129 0.0317085 105.67 0.272224 106.076 0.675936C106.325 0.876664 106.527 1.12833 106.67 1.41394C106.813 1.69956 106.893 2.01248 106.904 2.3316C106.909 2.64455 106.852 2.95535 106.736 3.24604C106.62 3.53674 106.447 3.80156 106.228 4.02524C106.012 4.24374 105.754 4.41627 105.47 4.53243C105.185 4.64859 104.88 4.70599 104.573 4.70117C103.978 4.68112 103.412 4.44013 102.985 4.02524Z" fill="white"/>
<path d="M118.713 4.02524C118.468 3.81551 118.27 3.55607 118.133 3.2641C117.995 2.97212 117.921 2.65427 117.916 2.3316C117.948 1.75959 118.188 1.21911 118.592 0.812642C118.799 0.565526 119.057 0.365294 119.348 0.225201C119.638 0.0851069 119.955 0.00834637 120.278 0C120.85 0.0317085 121.39 0.272224 121.797 0.675936C122.043 0.878617 122.244 1.13071 122.387 1.41591C122.529 1.70111 122.61 2.01306 122.625 2.3316C122.63 2.64455 122.572 2.95535 122.456 3.24604C122.34 3.53674 122.168 3.80156 121.949 4.02524C121.732 4.24468 121.473 4.41774 121.187 4.53393C120.901 4.65013 120.594 4.70702 120.286 4.70117C119.696 4.67812 119.136 4.43729 118.713 4.02524ZM118.713 19.754C118.468 19.5443 118.27 19.2849 118.133 18.9929C117.995 18.7009 117.921 18.3831 117.916 18.0604C117.942 17.487 118.183 16.9445 118.592 16.5414C118.798 16.2915 119.055 16.0884 119.346 15.9457C119.636 15.8029 119.954 15.7238 120.278 15.7136C120.85 15.7453 121.39 15.9858 121.797 16.3895C122.043 16.5922 122.244 16.8443 122.387 17.1295C122.529 17.4147 122.61 17.7267 122.625 18.0452C122.633 18.677 122.39 19.2861 121.949 19.7388C121.732 19.9583 121.473 20.1314 121.187 20.2475C120.901 20.3637 120.594 20.4206 120.286 20.4148C119.697 20.3938 119.137 20.1557 118.713 19.7464V19.754ZM126.582 11.8858C126.333 11.6803 126.132 11.4229 125.993 11.1317C125.854 10.8405 125.78 10.5225 125.777 10.1998C125.803 9.62641 126.044 9.08394 126.453 8.68084C126.635 8.43518 126.87 8.23296 127.14 8.08871C127.409 7.94445 127.708 7.86173 128.014 7.84649C128.319 7.83124 128.625 7.88384 128.907 8.00053C129.19 8.11721 129.444 8.29507 129.65 8.52135C129.897 8.72487 130.098 8.97818 130.241 9.26476C130.384 9.55135 130.464 9.86477 130.478 10.1846C130.482 10.4963 130.424 10.8058 130.308 11.0952C130.192 11.3846 130.02 11.6481 129.802 11.8706C129.588 12.0917 129.33 12.2659 129.045 12.3823C128.76 12.4986 128.454 12.5546 128.146 12.5466C127.56 12.5309 127.002 12.2949 126.582 11.8858Z" fill="white"/>
<path d="M150.171 11.8858C149.927 11.677 149.73 11.4187 149.592 11.1282C149.455 10.8376 149.38 10.5212 149.374 10.1998C149.4 9.62641 149.641 9.08395 150.05 8.68084C150.255 8.42955 150.512 8.22502 150.803 8.08094C151.093 7.93686 151.412 7.85656 151.736 7.84541C152.309 7.87136 152.852 8.11276 153.255 8.52135C153.502 8.72488 153.703 8.97818 153.846 9.26477C153.989 9.55135 154.069 9.86477 154.083 10.1846C154.089 10.4966 154.032 10.8065 153.916 11.0962C153.8 11.3858 153.627 11.6491 153.407 11.8706C153.193 12.0917 152.935 12.2659 152.65 12.3823C152.365 12.4986 152.059 12.5546 151.751 12.5466C151.16 12.5347 150.595 12.2985 150.171 11.8858ZM158.032 4.02524C157.794 3.81204 157.603 3.55106 157.472 3.25926C157.341 2.96746 157.273 2.65139 157.273 2.3316C157.304 1.75959 157.545 1.21911 157.949 0.812642C158.152 0.570192 158.403 0.372723 158.687 0.232812C158.971 0.0929003 159.281 0.0136132 159.597 0C160.169 0.0317085 160.709 0.272224 161.116 0.675936C161.362 0.878617 161.563 1.13071 161.705 1.41591C161.848 1.70111 161.929 2.01306 161.943 2.3316C161.948 2.64455 161.891 2.95535 161.775 3.24604C161.659 3.53674 161.486 3.80156 161.267 4.02524C161.05 4.24468 160.791 4.41774 160.505 4.53394C160.219 4.65013 159.913 4.70702 159.604 4.70117C159.014 4.67956 158.454 4.43852 158.032 4.02524Z" fill="white"/>
<path d="M173.761 4.02524C173.516 3.81551 173.318 3.55607 173.181 3.2641C173.043 2.97212 172.969 2.65427 172.964 2.3316C172.99 1.75821 173.231 1.21575 173.64 0.812642C173.847 0.565526 174.105 0.365294 174.396 0.225201C174.686 0.0851069 175.003 0.00834637 175.326 0C175.899 0.0259455 176.442 0.267343 176.845 0.675936C177.092 0.877909 177.295 1.12969 177.439 1.41492C177.583 1.70016 177.665 2.01248 177.68 2.3316C177.685 2.64455 177.628 2.95535 177.512 3.24604C177.396 3.53674 177.223 3.80156 177.004 4.02524C176.787 4.24468 176.528 4.41774 176.242 4.53393C175.956 4.65013 175.65 4.70702 175.341 4.70117C174.748 4.68144 174.185 4.44025 173.761 4.02524ZM173.761 19.754C173.439 19.4299 173.217 19.019 173.124 18.5714C173.03 18.1239 173.069 17.6587 173.234 17.2325C173.4 16.8063 173.686 16.4374 174.057 16.1704C174.428 15.9035 174.869 15.7501 175.326 15.7288C175.899 15.7547 176.442 15.9961 176.845 16.4047C177.092 16.6067 177.295 16.8585 177.439 17.1437C177.583 17.429 177.665 17.7413 177.68 18.0604C177.688 18.6922 177.445 19.3013 177.004 19.754C176.787 19.9735 176.528 20.1465 176.242 20.2627C175.956 20.3789 175.65 20.4358 175.341 20.43C174.747 20.4082 174.184 20.1642 173.761 19.7464V19.754ZM181.622 4.02524C181.377 3.81551 181.179 3.55607 181.041 3.2641C180.904 2.97212 180.83 2.65427 180.824 2.3316C180.856 1.75959 181.097 1.21911 181.5 0.812642C181.709 0.564579 181.968 0.363785 182.26 0.223655C182.552 0.0835238 182.87 0.00727698 183.194 0C183.766 0.0317085 184.307 0.272224 184.713 0.675936C184.961 0.876664 185.164 1.12833 185.307 1.41394C185.449 1.69956 185.529 2.01248 185.541 2.3316C185.546 2.64455 185.488 2.95535 185.372 3.24604C185.256 3.53674 185.084 3.80156 184.865 4.02524C184.649 4.24374 184.391 4.41627 184.106 4.53243C183.822 4.64859 183.517 4.70599 183.209 4.70117C182.614 4.68112 182.049 4.44013 181.622 4.02524ZM181.622 11.8858C181.378 11.677 181.18 11.4187 181.043 11.1282C180.905 10.8376 180.831 10.5212 180.824 10.1998C180.85 9.62641 181.092 9.08394 181.5 8.68084C181.707 8.4286 181.964 8.22351 182.257 8.07939C182.549 7.93528 182.868 7.85549 183.194 7.84541C183.766 7.87712 184.307 8.11764 184.713 8.52135C184.96 8.72487 185.162 8.97818 185.304 9.26476C185.447 9.55135 185.527 9.86477 185.541 10.1846C185.545 10.4963 185.487 10.8058 185.371 11.0952C185.255 11.3846 185.083 11.6481 184.865 11.8706C184.651 12.0917 184.393 12.2659 184.108 12.3823C183.823 12.4986 183.517 12.5546 183.209 12.5466C182.616 12.5343 182.049 12.2983 181.622 11.8858Z" fill="white"/>
<path d="M197.35 4.02524C197.112 3.81204 196.921 3.55106 196.79 3.25926C196.659 2.96746 196.591 2.65139 196.591 2.3316C196.623 1.75959 196.863 1.21911 197.267 0.812642C197.473 0.566468 197.73 0.366795 198.019 0.226739C198.308 0.0866818 198.624 0.0094104 198.945 0C199.517 0.0317085 200.058 0.272224 200.464 0.675936C200.698 0.88483 200.886 1.13969 201.017 1.42457C201.147 1.70945 201.218 2.01823 201.224 2.3316C201.228 2.64455 201.171 2.95535 201.055 3.24604C200.939 3.53674 200.767 3.80156 200.548 4.02524C200.331 4.24468 200.071 4.41774 199.785 4.53393C199.5 4.65013 199.193 4.70702 198.884 4.70117C198.308 4.67033 197.762 4.42996 197.35 4.02524ZM197.35 19.754C197.112 19.5408 196.921 19.2799 196.79 18.9881C196.659 18.6963 196.591 18.3802 196.591 18.0604C196.617 17.487 196.858 16.9445 197.267 16.5414C197.473 16.2953 197.73 16.0956 198.019 15.9555C198.308 15.8155 198.624 15.7382 198.945 15.7288C199.517 15.7605 200.058 16.001 200.464 16.4047C200.698 16.6136 200.886 16.8685 201.017 17.1534C201.147 17.4382 201.218 17.747 201.224 18.0604C201.232 18.6922 200.988 19.3013 200.548 19.754C200.331 19.9735 200.071 20.1465 199.785 20.2627C199.5 20.3789 199.193 20.4358 198.884 20.43C198.307 20.3971 197.761 20.1539 197.35 19.7464V19.754ZM205.211 4.02524C204.966 3.81551 204.768 3.55607 204.63 3.2641C204.493 2.97212 204.419 2.65427 204.413 2.3316C204.445 1.75959 204.686 1.21911 205.089 0.812642C205.298 0.564579 205.557 0.363785 205.849 0.223655C206.141 0.0835238 206.459 0.00727698 206.783 0C207.355 0.0303002 207.896 0.271029 208.302 0.675936C208.55 0.876664 208.753 1.12833 208.896 1.41394C209.038 1.69956 209.118 2.01248 209.13 2.3316C209.135 2.64455 209.077 2.95535 208.961 3.24604C208.845 3.53674 208.673 3.80156 208.454 4.02524C208.238 4.24374 207.98 4.41627 207.695 4.53243C207.411 4.64859 207.106 4.70599 206.798 4.70117C206.204 4.67968 205.638 4.4389 205.211 4.02524ZM205.211 11.8858C204.967 11.677 204.769 11.4187 204.632 11.1282C204.494 10.8376 204.42 10.5212 204.413 10.1998C204.439 9.62641 204.681 9.08394 205.089 8.68084C205.296 8.4286 205.553 8.22351 205.846 8.07939C206.138 7.93528 206.457 7.85549 206.783 7.84541C207.355 7.87571 207.896 8.11644 208.302 8.52135C208.549 8.72487 208.75 8.97818 208.893 9.26476C209.036 9.55135 209.116 9.86477 209.13 10.1846C209.134 10.4963 209.076 10.8058 208.96 11.0952C208.844 11.3846 208.672 11.6481 208.454 11.8706C208.24 12.0917 207.982 12.2659 207.697 12.3823C207.412 12.4986 207.106 12.5546 206.798 12.5466C206.205 12.5328 205.639 12.297 205.211 11.8858Z" fill="white"/>
<path d="M220.97 4.02524C220.732 3.81204 220.541 3.55106 220.41 3.25926C220.28 2.96746 220.212 2.65139 220.211 2.3316C220.243 1.75959 220.483 1.21911 220.887 0.812642C221.085 0.575639 221.329 0.381385 221.605 0.241685C221.88 0.101986 222.181 0.0197587 222.489 0C223.061 0.0317085 223.602 0.272224 224.008 0.675936C224.257 0.876664 224.459 1.12833 224.602 1.41394C224.745 1.69956 224.825 2.01248 224.836 2.3316C224.841 2.64455 224.784 2.95535 224.668 3.24604C224.552 3.53674 224.379 3.80156 224.16 4.02524C223.944 4.24374 223.686 4.41627 223.401 4.53243C223.117 4.64859 222.812 4.70599 222.505 4.70117C221.928 4.66828 221.384 4.42821 220.97 4.02524Z" fill="white"/>
<path d="M236.669 11.8858C236.424 11.677 236.227 11.4187 236.089 11.1282C235.952 10.8376 235.878 10.5212 235.871 10.1998C235.897 9.62641 236.138 9.08394 236.547 8.68084C236.752 8.42955 237.009 8.22502 237.3 8.08094C237.591 7.93686 237.909 7.85656 238.233 7.84541C238.805 7.87712 239.346 8.11764 239.752 8.52135C239.999 8.72487 240.201 8.97818 240.343 9.26476C240.486 9.55135 240.566 9.86477 240.58 10.1846C240.584 10.4963 240.526 10.8058 240.41 11.0952C240.294 11.3846 240.122 11.6481 239.904 11.8706C239.687 12.0901 239.428 12.2632 239.142 12.3793C238.856 12.4955 238.549 12.5524 238.241 12.5466C237.652 12.5328 237.09 12.2967 236.669 11.8858ZM236.669 19.754C236.423 19.5443 236.225 19.2849 236.088 18.9929C235.95 18.7009 235.876 18.3831 235.871 18.0604C235.897 17.487 236.138 16.9445 236.547 16.5414C236.753 16.2915 237.01 16.0884 237.301 15.9457C237.592 15.8029 237.909 15.7238 238.233 15.7136C238.805 15.7453 239.346 15.9858 239.752 16.3895C239.998 16.5922 240.199 16.8443 240.342 17.1295C240.484 17.4147 240.565 17.7267 240.58 18.0452C240.588 18.677 240.345 19.2861 239.904 19.7388C239.687 19.9583 239.428 20.1314 239.142 20.2475C238.856 20.3637 238.549 20.4206 238.241 20.4148C237.652 20.3952 237.091 20.1569 236.669 19.7464V19.754ZM244.514 4.02524C244.276 3.81204 244.085 3.55106 243.954 3.25926C243.823 2.96746 243.755 2.65139 243.754 2.3316C243.786 1.75959 244.027 1.21911 244.43 0.812642C244.636 0.567406 244.891 0.368289 245.179 0.228269C245.467 0.0882486 245.781 0.0104691 246.101 0C246.673 0.0317085 247.214 0.272224 247.62 0.675936C247.869 0.876664 248.071 1.12833 248.214 1.41394C248.357 1.69956 248.436 2.01248 248.448 2.3316C248.453 2.64455 248.396 2.95535 248.28 3.24604C248.164 3.53674 247.991 3.80156 247.772 4.02524C247.556 4.24374 247.298 4.41627 247.013 4.53243C246.729 4.64859 246.424 4.70599 246.116 4.70117C245.517 4.68341 244.945 4.44236 244.514 4.02524ZM244.514 11.8858C244.277 11.6735 244.086 11.4137 243.955 11.1233C243.825 10.8329 243.756 10.5183 243.754 10.1998C243.78 9.62641 244.022 9.08394 244.43 8.68084C244.637 8.4286 244.894 8.22351 245.187 8.07939C245.479 7.93528 245.798 7.85549 246.124 7.84541C246.696 7.87712 247.237 8.11764 247.643 8.52135C247.89 8.72487 248.092 8.97818 248.234 9.26476C248.377 9.55135 248.457 9.86477 248.471 10.1846C248.475 10.4963 248.417 10.8058 248.301 11.0952C248.185 11.3846 248.013 11.6481 247.795 11.8706C247.581 12.0917 247.323 12.2659 247.038 12.3823C246.753 12.4986 246.447 12.5546 246.139 12.5466C245.533 12.5424 244.951 12.3059 244.514 11.8858Z" fill="white"/>
<path d="M260.258 4.02524C260.013 3.81551 259.815 3.55607 259.678 3.2641C259.54 2.97212 259.466 2.65428 259.461 2.3316C259.493 1.75959 259.733 1.21911 260.137 0.812642C260.345 0.564579 260.604 0.363785 260.896 0.223655C261.188 0.0835238 261.507 0.00727698 261.831 0C262.403 0.0317085 262.943 0.272224 263.349 0.675936C263.598 0.876664 263.8 1.12833 263.943 1.41394C264.086 1.69956 264.166 2.01248 264.177 2.3316C264.182 2.64455 264.125 2.95535 264.009 3.24604C263.893 3.53674 263.72 3.80156 263.501 4.02524C263.285 4.24374 263.027 4.41627 262.743 4.53243C262.458 4.64859 262.153 4.70599 261.846 4.70117C261.251 4.68112 260.685 4.44013 260.258 4.02524ZM268.127 11.8858C267.874 11.6825 267.668 11.4261 267.525 11.1348C267.382 10.8435 267.305 10.5243 267.299 10.1998C267.325 9.62641 267.566 9.08395 267.975 8.68084C268.157 8.43518 268.392 8.23296 268.662 8.08871C268.932 7.94445 269.23 7.86173 269.536 7.84649C269.841 7.83124 270.147 7.88385 270.43 8.00053C270.712 8.11721 270.966 8.29507 271.172 8.52135C271.419 8.72488 271.621 8.97818 271.763 9.26477C271.906 9.55135 271.987 9.86477 272 10.1846C272.006 10.4966 271.949 10.8065 271.833 11.0962C271.717 11.3858 271.544 11.6491 271.324 11.8706C271.11 12.0917 270.852 12.2659 270.567 12.3823C270.282 12.4986 269.976 12.5546 269.668 12.5466C269.09 12.5252 268.541 12.2897 268.127 11.8858Z" fill="white"/>
</svg>
