<svg width="870" height="680" viewBox="0 0 870 680" fill="none" xmlns="http://www.w3.org/2000/svg">
<path d="M458.933 675C643.912 675 793.866 525.045 793.866 340.067C793.866 155.088 643.912 5.13361 458.933 5.13361C273.955 5.13361 124 155.088 124 340.067C124 525.045 273.955 675 458.933 675Z" stroke="white" stroke-width="10" stroke-linecap="round" stroke-linejoin="round" stroke-dasharray="101.23 101.23"/>
<path d="M174.974 317.858C179.904 249.747 209.233 186.381 258.789 137.613C306.725 90.3375 369.682 61.3109 436.762 55.5574" stroke="white" stroke-width="2" stroke-linecap="round" stroke-linejoin="round" stroke-dasharray="20 20"/>
<path d="M459.26 642.456C378.69 642.456 302.939 611.077 245.966 554.096C188.993 497.116 157.607 421.372 157.607 340.802C157.607 260.232 188.985 184.473 245.966 127.5C302.946 70.5268 378.69 39.1556 459.26 39.1556C539.831 39.1556 615.582 70.5343 672.555 127.515C729.528 184.495 760.914 260.239 760.914 340.817C760.914 421.394 729.535 497.138 672.555 554.111C615.574 611.084 539.831 642.456 459.26 642.456Z" stroke="white" stroke-width="2" stroke-linecap="round" stroke-linejoin="round"/>
</svg>
