<svg width="870" height="670" viewBox="0 0 870 670" fill="none" xmlns="http://www.w3.org/2000/svg">
<path d="M515.032 546.141C512.513 543.61 509.519 541.6 506.221 540.229C502.924 538.858 499.388 538.152 495.816 538.152H491.361V540.974H495.816C502.277 540.995 508.466 543.571 513.034 548.139C517.603 552.708 520.179 558.897 520.2 565.358V565.358C520.181 571.818 517.605 578.008 513.036 582.576C508.467 587.143 502.276 589.717 495.816 589.734H487.648V592.563H495.816C503.026 592.544 509.935 589.671 515.034 584.574C520.133 579.476 523.008 572.568 523.029 565.358V565.358C523.028 561.786 522.32 558.249 520.948 554.952C519.576 551.654 517.565 548.66 515.032 546.141V546.141Z" fill="white"/>
<path d="M406.099 582.577C403.826 580.322 402.02 577.64 400.787 574.685C399.553 571.73 398.916 568.56 398.912 565.358V565.358C398.933 558.897 401.509 552.708 406.077 548.139C410.646 543.571 416.835 540.995 423.296 540.974H427.751V538.152H423.296C416.086 538.172 409.177 541.044 404.078 546.142C398.979 551.239 396.104 558.148 396.083 565.358V565.358C396.104 572.568 398.979 579.476 404.078 584.574C409.177 589.671 416.086 592.544 423.296 592.563H431.464V589.734H423.296C420.1 589.73 416.936 589.096 413.985 587.867C411.034 586.639 408.355 584.841 406.099 582.577V582.577Z" fill="white"/>
<path d="M438.198 551.027C434.882 547.714 430.52 545.653 425.854 545.195C421.189 544.737 416.509 545.911 412.612 548.516C408.715 551.122 405.842 554.998 404.482 559.484C403.123 563.971 403.361 568.789 405.156 573.12C406.951 577.451 410.192 581.025 414.327 583.234C418.462 585.442 423.234 586.149 427.832 585.234C432.429 584.319 436.567 581.837 439.541 578.213C442.514 574.589 444.139 570.046 444.138 565.358C444.14 562.696 443.616 560.06 442.597 557.6C441.578 555.141 440.083 552.907 438.198 551.027ZM442.853 564.727H438.265C438.213 561.452 437.556 558.214 436.327 555.178H439.883C441.712 558.037 442.737 561.335 442.853 564.727V564.727ZM430.632 564.727C430.616 561.525 430.326 558.33 429.763 555.178H434.961C436.263 558.196 436.96 561.44 437.01 564.727H430.632ZM437.032 565.989C436.982 569.273 436.286 572.515 434.983 575.53H429.785C430.348 572.381 430.639 569.189 430.654 565.989H437.032ZM437.299 551.926C437.915 552.548 438.486 553.213 439.007 553.916H435.77C435.296 552.94 434.745 552.004 434.121 551.117C433.255 549.858 432.212 548.73 431.025 547.768C433.374 548.72 435.508 550.134 437.299 551.926V551.926ZM433.112 551.844C433.576 552.507 433.998 553.199 434.374 553.916H429.503C429.295 552.98 429.065 552.097 428.813 551.287C428.36 549.68 427.636 548.16 426.674 546.795C429.314 547.729 431.576 549.502 433.112 551.844V551.844ZM418.373 564.727C418.387 561.524 418.688 558.328 419.271 555.178H428.471C429.049 558.328 429.345 561.524 429.355 564.727H418.373ZM429.369 565.989C429.355 569.19 429.054 572.383 428.471 575.53H419.271C418.688 572.383 418.387 569.19 418.373 565.989H429.369ZM423.875 546.365C425.256 546.365 426.578 548.392 427.587 551.666C427.81 552.364 428.011 553.107 428.189 553.894H419.539C419.717 553.092 419.917 552.349 420.14 551.666C421.187 548.392 422.486 546.365 423.875 546.365V546.365ZM418.959 551.287C418.707 552.097 418.477 552.98 418.269 553.916H413.398C413.774 553.199 414.196 552.507 414.66 551.844C416.196 549.502 418.457 547.729 421.098 546.795C420.135 548.16 419.412 549.68 418.959 551.287V551.287ZM417.14 564.727H410.74C410.793 561.441 411.49 558.197 412.789 555.178H417.987C417.417 558.33 417.124 561.525 417.11 564.727H417.14ZM418.016 575.53H412.819C411.519 572.514 410.823 569.273 410.769 565.989H417.17C417.164 569.187 417.437 572.38 417.987 575.53H418.016ZM410.472 551.926C412.258 550.136 414.384 548.722 416.724 547.768C415.537 548.73 414.495 549.858 413.628 551.117C413.004 552.002 412.455 552.939 411.987 553.916H408.713C409.241 553.212 409.819 552.547 410.443 551.926H410.472ZM407.822 555.178H411.378C410.149 558.214 409.492 561.452 409.44 564.727H404.881C404.988 561.338 406.004 558.04 407.822 555.178V555.178ZM404.852 565.989H409.411C409.462 569.262 410.119 572.497 411.349 575.53H407.822C406.005 572.671 404.992 569.375 404.889 565.989H404.852ZM410.406 578.79C409.782 578.169 409.204 577.504 408.676 576.8H411.92C412.389 577.777 412.937 578.714 413.561 579.599C414.454 580.86 415.522 581.987 416.732 582.948C414.379 581.995 412.241 580.582 410.443 578.79H410.406ZM414.593 578.872C414.129 578.209 413.707 577.517 413.331 576.8H418.217C418.425 577.736 418.655 578.612 418.907 579.421C419.363 581.017 420.086 582.523 421.046 583.876C418.419 582.952 416.167 581.194 414.63 578.872H414.593ZM423.875 584.359C422.486 584.359 421.165 582.332 420.162 579.057C419.939 578.359 419.739 577.572 419.561 576.83H428.226C428.048 577.624 427.847 578.382 427.624 579.057C426.578 582.324 425.256 584.359 423.875 584.359ZM428.813 579.429C429.065 578.619 429.295 577.743 429.503 576.808H434.374C433.998 577.524 433.576 578.216 433.112 578.879C431.576 581.219 429.314 582.991 426.674 583.921C427.639 582.554 428.362 581.032 428.813 579.421V579.429ZM437.299 578.798C435.512 580.585 433.387 581.998 431.047 582.956C432.231 581.99 433.273 580.862 434.144 579.607C434.767 578.719 435.319 577.783 435.792 576.808H439.007C438.486 577.508 437.915 578.171 437.299 578.79V578.798ZM439.913 575.538H436.356C437.577 572.5 438.224 569.263 438.265 565.989H442.824C442.727 569.373 441.721 572.669 439.913 575.53V575.538Z" fill="white"/>
<path d="M511.328 562.744C511.817 561.08 511.967 559.335 511.771 557.612C511.574 555.89 511.035 554.224 510.185 552.712C508.89 550.306 506.832 548.399 504.334 547.292C502.26 546.432 500.056 545.93 497.815 545.807C495.138 545.527 492.434 545.883 489.922 546.846C486.758 548.032 484.137 550.332 482.548 553.314C481.487 555.327 481.099 557.628 481.442 559.878C481.516 560.221 481.512 560.576 481.431 560.918C481.35 561.26 481.194 561.579 480.974 561.853C480.232 562.788 479.489 563.716 478.747 564.659C478.471 564.966 478.223 565.297 478.004 565.647C477.885 565.824 477.805 566.024 477.771 566.234C477.736 566.444 477.746 566.659 477.802 566.865C477.858 567.071 477.957 567.262 478.093 567.426C478.229 567.59 478.399 567.723 478.591 567.815C478.946 568.014 479.316 568.186 479.697 568.327C480.054 568.468 480.158 568.654 479.979 569.003C479.861 569.241 479.66 569.441 479.564 569.679C479.463 569.882 479.445 570.116 479.512 570.332C479.758 570.711 480.028 571.073 480.321 571.416L480.217 571.542C480.104 571.644 480.014 571.77 479.954 571.91C479.895 572.051 479.867 572.202 479.873 572.355C479.878 572.507 479.917 572.656 479.987 572.792C480.057 572.927 480.156 573.046 480.276 573.139C480.39 573.266 480.517 573.381 480.655 573.48C481.012 573.725 481.026 573.963 480.766 574.319C480.568 574.608 480.432 574.934 480.366 575.277C480.292 575.854 480.407 576.439 480.694 576.945C480.98 577.45 481.422 577.85 481.954 578.084C482.432 578.264 482.931 578.379 483.44 578.426C484.405 578.515 485.377 578.522 486.35 578.596C486.665 578.601 486.969 578.713 487.211 578.914C487.453 579.116 487.618 579.394 487.679 579.703C487.768 580.029 487.843 580.364 487.932 580.69C488.154 581.574 488.533 582.762 488.771 583.66L508.774 583.697C508.826 583.571 508.707 583.445 508.707 583.319C508.683 583.167 508.638 583.02 508.574 582.881C507.573 580.091 506.975 577.174 506.799 574.216C506.647 572.183 507.25 570.166 508.492 568.55C509.838 566.838 510.805 564.858 511.328 562.744V562.744Z" fill="white"/>
<path d="M460.941 565.639C460.929 566.331 460.645 566.991 460.15 567.475C459.655 567.958 458.989 568.227 458.297 568.223C457.941 568.236 457.586 568.176 457.254 568.047C456.922 567.918 456.619 567.723 456.364 567.473C456.11 567.224 455.909 566.925 455.773 566.596C455.638 566.266 455.571 565.912 455.576 565.556C455.582 565.199 455.66 564.848 455.806 564.522C455.951 564.197 456.162 563.905 456.424 563.663C456.686 563.422 456.994 563.236 457.331 563.118C457.667 562.999 458.023 562.95 458.379 562.974C459.071 562.991 459.728 563.281 460.208 563.78C460.687 564.279 460.951 564.947 460.941 565.639V565.639Z" fill="white"/>
<path d="M463.561 557.739C464.079 557.739 464.584 557.893 465.014 558.18C465.444 558.468 465.779 558.877 465.977 559.355C466.174 559.833 466.226 560.358 466.124 560.866C466.023 561.373 465.773 561.839 465.407 562.204C465.041 562.569 464.574 562.817 464.067 562.917C463.559 563.017 463.034 562.965 462.556 562.766C462.079 562.567 461.671 562.23 461.385 561.8C461.098 561.369 460.946 560.863 460.948 560.346C460.956 559.655 461.234 558.996 461.722 558.509C462.211 558.021 462.871 557.745 463.561 557.739V557.739Z" fill="white"/>
<path d="M471.432 565.572C471.434 566.089 471.282 566.595 470.996 567.026C470.71 567.456 470.303 567.792 469.826 567.992C469.348 568.191 468.823 568.244 468.316 568.145C467.809 568.045 467.342 567.798 466.976 567.433C466.609 567.069 466.359 566.604 466.257 566.097C466.154 565.59 466.204 565.065 466.401 564.587C466.597 564.108 466.931 563.699 467.36 563.411C467.789 563.122 468.294 562.968 468.811 562.966C469.154 562.965 469.494 563.032 469.812 563.162C470.129 563.293 470.418 563.484 470.661 563.726C470.905 563.968 471.098 564.256 471.23 564.573C471.363 564.89 471.431 565.229 471.432 565.572V565.572Z" fill="white"/>
<path d="M458.313 578.708C457.795 578.703 457.291 578.545 456.863 578.254C456.435 577.962 456.104 577.55 455.911 577.07C455.717 576.59 455.671 576.064 455.778 575.557C455.884 575.051 456.138 574.587 456.508 574.225C456.879 573.864 457.348 573.62 457.856 573.525C458.365 573.43 458.891 573.488 459.366 573.693C459.842 573.897 460.246 574.238 460.528 574.672C460.81 575.106 460.956 575.614 460.949 576.131C460.935 576.821 460.651 577.477 460.158 577.959C459.665 578.441 459.002 578.71 458.313 578.708V578.708Z" fill="white"/>
<path d="M453.055 562.967C452.537 562.964 452.032 562.807 451.603 562.516C451.175 562.226 450.842 561.814 450.648 561.334C450.453 560.854 450.406 560.327 450.511 559.82C450.617 559.313 450.871 558.849 451.241 558.487C451.61 558.124 452.08 557.88 452.589 557.784C453.098 557.689 453.623 557.747 454.099 557.951C454.576 558.155 454.98 558.495 455.262 558.93C455.544 559.364 455.691 559.872 455.684 560.39C455.682 560.732 455.612 561.071 455.479 561.386C455.345 561.701 455.151 561.987 454.906 562.226C454.662 562.466 454.372 562.654 454.055 562.782C453.737 562.909 453.397 562.972 453.055 562.967Z" fill="white"/>
<path d="M450.464 570.853C450.466 570.335 450.621 569.83 450.909 569.401C451.198 568.972 451.608 568.638 452.086 568.442C452.565 568.246 453.091 568.196 453.598 568.299C454.105 568.401 454.57 568.652 454.934 569.02C455.298 569.387 455.545 569.854 455.644 570.362C455.742 570.87 455.688 571.395 455.488 571.872C455.287 572.349 454.95 572.756 454.518 573.041C454.087 573.326 453.58 573.477 453.063 573.474C452.72 573.475 452.379 573.407 452.062 573.276C451.745 573.144 451.457 572.951 451.215 572.707C450.974 572.463 450.783 572.173 450.654 571.855C450.525 571.537 450.46 571.196 450.464 570.853V570.853Z" fill="white"/>
<path d="M665.013 292.662C665.258 292.641 665.504 292.673 665.736 292.756C665.967 292.839 666.178 292.97 666.354 293.141C666.531 293.312 666.669 293.518 666.759 293.747C666.849 293.975 666.889 294.221 666.877 294.466C666.888 294.721 666.843 294.976 666.746 295.212C666.648 295.448 666.5 295.659 666.312 295.832C665.905 296.195 665.372 296.382 664.827 296.352C664.325 296.369 663.831 296.211 663.431 295.907C663.249 295.757 663.1 295.571 662.995 295.359C662.89 295.148 662.831 294.917 662.823 294.681H663.803C663.829 294.923 663.949 295.144 664.137 295.298C664.334 295.45 664.578 295.529 664.827 295.52C664.964 295.525 665.101 295.502 665.228 295.452C665.356 295.402 665.472 295.327 665.57 295.231C665.757 295.021 665.86 294.75 665.86 294.47C665.86 294.189 665.757 293.918 665.57 293.709C665.472 293.613 665.356 293.537 665.228 293.488C665.101 293.438 664.964 293.415 664.827 293.419C664.632 293.401 664.435 293.444 664.265 293.543C664.095 293.641 663.959 293.79 663.877 293.969H662.949L663.454 290.798H666.594V291.667H664.263L664.025 293.018C664.303 292.787 664.652 292.661 665.013 292.662V292.662Z" fill="white"/>
<path d="M670.76 293.345C671.044 293.433 671.29 293.613 671.461 293.856C671.632 294.099 671.717 294.392 671.703 294.689C671.715 294.921 671.668 295.152 671.568 295.362C671.469 295.572 671.319 295.753 671.132 295.891C670.67 296.192 670.131 296.352 669.58 296.352C669.029 296.352 668.49 296.192 668.028 295.891C667.842 295.752 667.693 295.57 667.594 295.36C667.494 295.151 667.447 294.92 667.456 294.689C667.445 294.392 667.532 294.101 667.702 293.858C667.872 293.615 668.117 293.435 668.399 293.345C668.172 293.248 667.979 293.085 667.847 292.877C667.714 292.669 667.648 292.426 667.657 292.179C667.651 291.967 667.695 291.757 667.787 291.565C667.879 291.374 668.015 291.208 668.184 291.08C668.594 290.818 669.071 290.679 669.558 290.679C670.044 290.679 670.521 290.818 670.931 291.08C671.1 291.208 671.236 291.374 671.328 291.565C671.42 291.757 671.465 291.967 671.458 292.179C671.469 292.42 671.409 292.659 671.285 292.867C671.16 293.074 670.978 293.24 670.76 293.345V293.345ZM669.58 295.52C669.869 295.541 670.157 295.456 670.389 295.283C670.481 295.198 670.554 295.095 670.604 294.981C670.654 294.866 670.679 294.743 670.679 294.618C670.679 294.493 670.654 294.37 670.604 294.255C670.554 294.141 670.481 294.038 670.389 293.953C670.156 293.781 669.869 293.697 669.58 293.716C669.29 293.695 669.003 293.78 668.77 293.953C668.679 294.038 668.606 294.141 668.556 294.255C668.506 294.37 668.48 294.493 668.48 294.618C668.48 294.743 668.506 294.866 668.556 294.981C668.606 295.095 668.679 295.198 668.77 295.283C669.003 295.456 669.29 295.541 669.58 295.52V295.52ZM670.278 291.652C670.074 291.509 669.828 291.438 669.58 291.451C669.331 291.439 669.086 291.51 668.882 291.652C668.796 291.721 668.728 291.809 668.68 291.909C668.633 292.008 668.609 292.117 668.609 292.227C668.609 292.337 668.633 292.446 668.68 292.546C668.728 292.645 668.796 292.733 668.882 292.803C669.088 292.946 669.336 293.016 669.587 293.003C669.836 293.016 670.081 292.945 670.285 292.803C670.37 292.734 670.438 292.647 670.483 292.548C670.528 292.448 670.549 292.34 670.545 292.231C670.545 292.122 670.521 292.014 670.475 291.915C670.429 291.816 670.362 291.729 670.278 291.659V291.652Z" fill="white"/>
<path d="M665.689 308.054L666.647 305.247H667.701L665.756 310.683H664.553L662.563 305.247H663.662L664.642 308.054C664.872 308.745 665.043 309.309 665.162 309.747C665.306 309.242 665.481 308.678 665.689 308.054Z" fill="white"/>
<path d="M672.468 310.683H671.414L670.991 309.48H668.607L668.191 310.683H667.13L669.186 305.247H670.397L672.468 310.683ZM669.09 308.017L668.882 308.603H670.671L670.456 308.017C670.278 307.564 670.055 306.948 669.78 306.153C669.543 306.784 669.32 307.401 669.09 308.017V308.017Z" fill="white"/>
<path d="M676.612 306.658V305.247H677.599V310.683H676.456L674.971 308.262C674.555 307.616 674.228 307.074 673.998 306.628C673.998 307.2 673.998 308.113 673.998 309.257V310.683H673.003V305.247H674.146L675.631 307.668C676.084 308.41 676.374 308.945 676.597 309.301C676.612 308.544 676.612 307.668 676.612 306.658Z" fill="white"/>
<path d="M662.972 312.873H665.051C665.419 312.852 665.788 312.907 666.134 313.035C666.48 313.163 666.796 313.36 667.063 313.615C667.312 313.882 667.506 314.194 667.633 314.536C667.761 314.878 667.819 315.241 667.805 315.605C667.82 315.968 667.761 316.331 667.634 316.671C667.506 317.012 667.312 317.323 667.063 317.588C666.797 317.844 666.481 318.042 666.135 318.17C665.788 318.297 665.419 318.352 665.051 318.33H662.972V312.873ZM663.989 317.424H665.021C665.249 317.439 665.477 317.404 665.689 317.322C665.902 317.24 666.095 317.112 666.254 316.949C666.534 316.551 666.684 316.077 666.684 315.59C666.684 315.104 666.534 314.629 666.254 314.232C666.093 314.07 665.901 313.944 665.688 313.862C665.476 313.78 665.248 313.744 665.021 313.756H663.989V317.424Z" fill="white"/>
<path d="M672.84 316.868L672.884 317.677C672.884 317.899 672.943 318.117 673.055 318.308H671.993C671.894 318.105 671.846 317.881 671.852 317.655V317.061C671.866 316.81 671.784 316.563 671.622 316.37C671.441 316.228 671.213 316.159 670.983 316.177H669.64V318.308H668.607V312.873H671.073C671.577 312.844 672.076 312.991 672.483 313.289C672.649 313.424 672.781 313.595 672.868 313.79C672.956 313.985 672.997 314.197 672.988 314.41C673.007 314.698 672.927 314.983 672.761 315.218C672.595 315.454 672.352 315.624 672.075 315.702C672.315 315.764 672.525 315.909 672.669 316.111C672.792 316.343 672.851 316.605 672.84 316.868ZM669.617 313.72V315.368L670.991 315.368C671.235 315.385 671.477 315.308 671.667 315.153C671.749 315.07 671.813 314.972 671.854 314.863C671.895 314.754 671.912 314.638 671.904 314.522C671.91 314.411 671.892 314.299 671.849 314.197C671.807 314.094 671.742 314.002 671.659 313.928C671.445 313.771 671.181 313.698 670.917 313.72H669.617Z" fill="white"/>
<path d="M676.3 318.427C675.936 318.443 675.572 318.382 675.233 318.248C674.894 318.113 674.587 317.909 674.332 317.648C673.847 317.072 673.582 316.344 673.582 315.591C673.582 314.838 673.847 314.11 674.332 313.534C674.865 313.033 675.569 312.755 676.3 312.755C677.031 312.755 677.735 313.033 678.268 313.534C678.743 314.114 679.003 314.841 679.003 315.591C679.003 316.341 678.743 317.068 678.268 317.648C678.012 317.908 677.705 318.112 677.366 318.246C677.028 318.381 676.664 318.442 676.3 318.427V318.427ZM674.659 315.569C674.63 316.078 674.789 316.579 675.104 316.979C675.257 317.144 675.442 317.274 675.648 317.364C675.854 317.453 676.076 317.5 676.3 317.5C676.524 317.5 676.746 317.453 676.952 317.364C677.157 317.274 677.343 317.144 677.495 316.979C677.781 316.564 677.934 316.072 677.934 315.569C677.934 315.065 677.781 314.573 677.495 314.158C677.343 313.994 677.157 313.863 676.952 313.773C676.746 313.684 676.524 313.638 676.3 313.638C676.076 313.638 675.854 313.684 675.648 313.773C675.442 313.863 675.257 313.994 675.104 314.158C674.79 314.559 674.632 315.06 674.659 315.569V315.569Z" fill="white"/>
<path d="M679.82 312.873H682.21C682.726 312.842 683.233 313.016 683.621 313.356C683.95 313.704 684.133 314.165 684.133 314.644C684.133 315.123 683.95 315.584 683.621 315.932C683.231 316.269 682.725 316.44 682.21 316.407H680.852V318.308H679.82V312.873ZM680.852 315.524H682.166C682.414 315.541 682.659 315.461 682.849 315.301C683.007 315.119 683.094 314.885 683.094 314.644C683.094 314.402 683.007 314.169 682.849 313.987C682.66 313.824 682.415 313.741 682.166 313.756H680.852V315.524Z" fill="white"/>
<path d="M665.377 326.052C665.025 326.072 664.674 326.015 664.346 325.887C664.018 325.759 663.721 325.562 663.476 325.31C663.222 325.032 663.026 324.706 662.898 324.352C662.771 323.998 662.715 323.622 662.733 323.246C662.7 322.484 662.966 321.74 663.476 321.174C663.723 320.922 664.021 320.725 664.35 320.597C664.679 320.469 665.032 320.412 665.384 320.432C665.968 320.416 666.541 320.597 667.01 320.944C667.47 321.313 667.771 321.844 667.849 322.429H666.802C666.731 322.11 666.553 321.824 666.298 321.62C666.033 321.427 665.711 321.328 665.384 321.337C665.166 321.328 664.949 321.369 664.75 321.46C664.551 321.55 664.377 321.686 664.241 321.857C663.969 322.282 663.824 322.775 663.824 323.279C663.824 323.783 663.969 324.277 664.241 324.701C664.378 324.871 664.552 325.005 664.751 325.094C664.95 325.183 665.167 325.224 665.384 325.213C665.735 325.22 666.077 325.101 666.35 324.879C666.624 324.642 666.799 324.311 666.84 323.951H667.872C667.854 324.259 667.774 324.559 667.634 324.834C667.495 325.109 667.3 325.352 667.062 325.547C666.577 325.907 665.98 326.086 665.377 326.052V326.052Z" fill="white"/>
<path d="M675.372 323.551H668.444V322.734H675.35L675.372 323.551Z" fill="white"/>
<path d="M680.48 324.478L680.525 325.288C680.518 325.509 680.575 325.728 680.688 325.919H679.634C679.528 325.718 679.477 325.492 679.485 325.265V324.671C679.497 324.422 679.418 324.176 679.262 323.981C679.079 323.837 678.848 323.768 678.616 323.788H677.272V325.963H676.24V320.528H678.705C679.21 320.498 679.709 320.645 680.116 320.944C680.282 321.079 680.413 321.25 680.501 321.445C680.589 321.64 680.63 321.852 680.621 322.065C680.641 322.353 680.562 322.638 680.397 322.875C680.233 323.111 679.992 323.284 679.715 323.365C679.954 323.424 680.163 323.569 680.302 323.773C680.421 323.989 680.483 324.232 680.48 324.478ZM677.25 321.33V322.993H678.624C678.868 323.011 679.11 322.934 679.299 322.778C679.383 322.697 679.447 322.598 679.488 322.489C679.53 322.38 679.546 322.263 679.537 322.147C679.543 322.036 679.524 321.925 679.482 321.822C679.44 321.719 679.375 321.627 679.292 321.553C679.078 321.396 678.814 321.322 678.549 321.345L677.25 321.33Z" fill="white"/>
<path d="M683.933 326.053C683.571 326.072 683.209 326.016 682.871 325.888C682.532 325.76 682.224 325.564 681.965 325.31C681.481 324.733 681.216 324.003 681.216 323.25C681.216 322.496 681.481 321.767 681.965 321.189C682.498 320.689 683.201 320.41 683.933 320.41C684.664 320.41 685.367 320.689 685.9 321.189C686.154 321.466 686.35 321.79 686.477 322.143C686.604 322.496 686.661 322.871 686.643 323.246C686.677 324.005 686.41 324.747 685.9 325.31C685.641 325.563 685.332 325.759 684.994 325.887C684.655 326.015 684.294 326.071 683.933 326.053ZM682.292 323.216C682.261 323.727 682.423 324.23 682.745 324.627C682.89 324.798 683.073 324.934 683.279 325.024C683.485 325.114 683.708 325.156 683.933 325.147C684.158 325.157 684.383 325.115 684.59 325.025C684.797 324.935 684.981 324.799 685.128 324.627C685.418 324.214 685.573 323.721 685.573 323.216C685.573 322.712 685.418 322.219 685.128 321.806C684.981 321.634 684.797 321.498 684.59 321.408C684.383 321.317 684.158 321.276 683.933 321.286C683.708 321.277 683.485 321.319 683.279 321.409C683.073 321.499 682.89 321.635 682.745 321.806C682.424 322.204 682.263 322.706 682.292 323.216V323.216Z" fill="white"/>
<path d="M689.65 326.046C689.043 326.082 688.447 325.879 687.987 325.481C687.778 325.275 687.616 325.027 687.511 324.753C687.406 324.479 687.361 324.185 687.378 323.892V320.499H688.41L688.41 323.9C688.398 324.069 688.42 324.239 688.474 324.4C688.529 324.561 688.616 324.709 688.729 324.835C688.992 325.043 689.316 325.155 689.65 325.155C689.984 325.155 690.309 325.043 690.571 324.835C690.685 324.709 690.773 324.562 690.829 324.401C690.885 324.24 690.909 324.07 690.898 323.9L690.898 320.499H691.922L691.922 323.892C691.941 324.186 691.897 324.48 691.793 324.755C691.689 325.03 691.528 325.28 691.321 325.489C690.856 325.882 690.258 326.082 689.65 326.046V326.046Z" fill="white"/>
<path d="M696.481 321.925V320.499H697.468V325.964H696.325L694.84 323.543C694.424 322.897 694.097 322.355 693.867 321.91C693.867 322.482 693.867 323.358 693.867 324.546V325.964H692.879V320.529H694.023L695.508 322.949C695.961 323.692 696.25 324.227 696.473 324.583C696.488 323.796 696.481 322.92 696.481 321.925Z" fill="white"/>
<path d="M698.516 320.499H700.587C700.956 320.477 701.325 320.532 701.671 320.66C702.017 320.787 702.333 320.985 702.599 321.241C702.85 321.506 703.044 321.819 703.172 322.161C703.299 322.503 703.357 322.866 703.342 323.231C703.358 323.594 703.3 323.957 703.173 324.298C703.045 324.639 702.85 324.95 702.599 325.213C702.334 325.47 702.018 325.669 701.672 325.797C701.325 325.925 700.956 325.979 700.587 325.956H698.516V320.499ZM699.548 325.05H700.572C700.801 325.065 701.03 325.03 701.244 324.948C701.458 324.866 701.652 324.739 701.812 324.575C702.092 324.177 702.243 323.703 702.243 323.216C702.243 322.73 702.092 322.255 701.812 321.857C701.651 321.696 701.457 321.571 701.243 321.49C701.029 321.409 700.8 321.375 700.572 321.39H699.548V325.05Z" fill="white"/>
<path d="M718.935 305.545C719.254 305.846 719.498 306.218 719.647 306.63C719.797 307.043 719.848 307.485 719.796 307.921C719.843 308.675 719.653 309.425 719.254 310.066C719.075 310.312 718.837 310.509 718.562 310.639C718.287 310.769 717.983 310.827 717.68 310.809C717.202 310.829 716.731 310.687 716.343 310.408C716.17 310.275 716.026 310.108 715.919 309.918C715.812 309.728 715.744 309.519 715.72 309.302H716.707C716.724 309.416 716.762 309.526 716.821 309.625C716.88 309.724 716.958 309.811 717.05 309.88C717.143 309.949 717.248 309.999 717.36 310.027C717.472 310.055 717.588 310.061 717.702 310.044C717.871 310.053 718.04 310.016 718.19 309.938C718.34 309.859 718.466 309.742 718.556 309.599C718.776 309.159 718.883 308.672 718.868 308.18C718.72 308.402 718.516 308.58 718.278 308.699C718.04 308.817 717.775 308.872 717.509 308.856C717.267 308.87 717.025 308.833 716.798 308.748C716.571 308.663 716.364 308.532 716.191 308.363C716.017 308.194 715.88 307.991 715.789 307.767C715.697 307.542 715.654 307.302 715.66 307.059C715.651 306.803 715.697 306.549 715.795 306.312C715.892 306.075 716.038 305.861 716.225 305.686C716.631 305.323 717.165 305.136 717.71 305.166C718.148 305.16 718.576 305.293 718.935 305.545V305.545ZM716.915 307.772C717.116 307.961 717.382 308.066 717.658 308.066C717.934 308.066 718.199 307.961 718.4 307.772C718.58 307.566 718.679 307.303 718.679 307.03C718.679 306.757 718.58 306.493 718.4 306.287C718.304 306.189 718.188 306.113 718.06 306.063C717.932 306.013 717.795 305.991 717.658 305.998C717.521 305.992 717.384 306.016 717.256 306.065C717.129 306.115 717.012 306.191 716.915 306.287C716.727 306.488 716.626 306.755 716.633 307.03C716.631 307.168 716.656 307.305 716.709 307.432C716.761 307.56 716.839 307.675 716.937 307.772H716.915Z" fill="white"/>
<path d="M721.556 309.807H724.355V310.683H720.42V310.275C720.437 309.888 720.525 309.508 720.68 309.153C720.936 308.686 721.348 308.323 721.845 308.129L722.38 307.861C722.634 307.751 722.863 307.592 723.056 307.394C723.192 307.229 723.263 307.02 723.256 306.807C723.263 306.697 723.246 306.586 723.205 306.483C723.163 306.38 723.1 306.288 723.018 306.213C722.832 306.062 722.597 305.986 722.358 305.998C721.734 305.998 721.422 306.324 721.422 306.985H720.42C720.404 306.735 720.441 306.484 720.528 306.249C720.615 306.014 720.75 305.799 720.925 305.619C721.127 305.442 721.362 305.307 721.617 305.223C721.872 305.139 722.142 305.107 722.41 305.129C722.91 305.102 723.404 305.258 723.798 305.567C723.964 305.71 724.095 305.889 724.184 306.089C724.273 306.289 724.316 306.506 724.31 306.725C724.323 307.106 724.202 307.479 723.969 307.78C723.663 308.119 723.292 308.391 722.877 308.582L722.372 308.849C722.151 308.957 721.95 309.103 721.778 309.28C721.65 309.427 721.572 309.612 721.556 309.807V309.807Z" fill="white"/>
<path d="M718.934 315.405C719.203 315.519 719.437 315.704 719.61 315.939C719.775 316.176 719.861 316.46 719.855 316.749C719.865 316.981 719.82 317.212 719.725 317.423C719.629 317.634 719.486 317.821 719.305 317.967C718.851 318.274 718.313 318.434 717.765 318.426C717.217 318.418 716.684 318.242 716.239 317.922C716.052 317.738 715.906 317.517 715.811 317.272C715.717 317.028 715.675 316.766 715.689 316.504H716.706C716.691 316.65 716.71 316.797 716.76 316.935C716.811 317.073 716.892 317.198 716.998 317.299C717.104 317.401 717.232 317.477 717.372 317.522C717.512 317.567 717.66 317.579 717.805 317.558C718.073 317.577 718.338 317.495 718.548 317.328C718.636 317.253 718.706 317.158 718.751 317.051C718.796 316.944 718.816 316.828 718.808 316.712C718.815 316.591 718.795 316.47 718.749 316.358C718.703 316.246 718.631 316.146 718.54 316.066C718.327 315.905 718.065 315.824 717.798 315.836H717.39V315.093H717.791C718.422 315.093 718.741 314.841 718.741 314.351C718.745 314.247 718.725 314.145 718.683 314.05C718.64 313.956 718.576 313.873 718.496 313.808C718.301 313.671 718.066 313.603 717.828 313.615C717.705 313.597 717.58 313.605 717.461 313.641C717.342 313.676 717.233 313.737 717.14 313.819C717.047 313.901 716.974 314.002 716.924 314.116C716.875 314.23 716.851 314.353 716.855 314.477H715.867C715.858 314.241 715.9 314.007 715.99 313.789C716.08 313.571 716.215 313.375 716.387 313.214C716.806 312.935 717.297 312.783 717.8 312.776C718.303 312.77 718.798 312.909 719.224 313.177C719.392 313.302 719.527 313.466 719.617 313.655C719.708 313.844 719.751 314.052 719.743 314.261C719.741 314.512 719.661 314.755 719.517 314.959C719.372 315.164 719.169 315.319 718.934 315.405V315.405Z" fill="white"/>
<path d="M723.732 315.427C724.016 315.513 724.264 315.691 724.436 315.933C724.608 316.175 724.695 316.467 724.682 316.764C724.688 316.996 724.64 317.227 724.54 317.437C724.441 317.647 724.294 317.831 724.11 317.974C723.657 318.297 723.107 318.456 722.551 318.427C721.997 318.458 721.449 318.298 720.999 317.974C720.816 317.831 720.668 317.647 720.569 317.437C720.47 317.227 720.421 316.996 720.427 316.764C720.417 316.469 720.503 316.178 720.674 315.937C720.844 315.695 721.089 315.516 721.37 315.427C721.143 315.329 720.951 315.164 720.818 314.955C720.686 314.746 720.619 314.502 720.628 314.254C720.622 314.042 720.666 313.832 720.758 313.641C720.85 313.449 720.986 313.283 721.155 313.155C721.565 312.893 722.042 312.754 722.529 312.754C723.015 312.754 723.492 312.893 723.902 313.155C724.071 313.283 724.208 313.449 724.299 313.641C724.391 313.832 724.436 314.042 724.43 314.254C724.442 314.497 724.382 314.737 724.258 314.946C724.134 315.155 723.951 315.322 723.732 315.427ZM722.551 317.603C722.841 317.625 723.128 317.54 723.36 317.365C723.452 317.28 723.525 317.178 723.575 317.063C723.625 316.949 723.651 316.825 723.651 316.701C723.651 316.576 723.625 316.452 723.575 316.338C723.525 316.224 723.452 316.121 723.36 316.036C723.119 315.88 722.838 315.796 722.551 315.796C722.264 315.796 721.983 315.88 721.742 316.036C721.65 316.121 721.577 316.224 721.527 316.338C721.477 316.452 721.451 316.576 721.451 316.701C721.451 316.825 721.477 316.949 721.527 317.063C721.577 317.178 721.65 317.28 721.742 317.365C721.974 317.539 722.261 317.623 722.551 317.603V317.603ZM723.249 313.742C723.048 313.592 722.801 313.518 722.551 313.534C722.301 313.522 722.055 313.595 721.853 313.742C721.767 313.81 721.698 313.899 721.653 314C721.607 314.1 721.587 314.211 721.593 314.321C721.588 314.429 721.609 314.536 721.654 314.635C721.7 314.733 721.768 314.819 721.853 314.885C722.062 315.016 722.304 315.086 722.551 315.086C722.798 315.086 723.04 315.016 723.249 314.885C723.333 314.816 723.401 314.728 723.447 314.629C723.494 314.531 723.518 314.423 723.518 314.313C723.518 314.204 723.494 314.096 723.447 313.998C723.401 313.899 723.333 313.811 723.249 313.742V313.742Z" fill="white"/>
<path d="M715.504 321.375V320.499H719.217V321.323C718.642 321.913 718.188 322.609 717.88 323.373C717.583 324.204 717.437 325.081 717.45 325.964H716.38C716.387 324.273 717.028 322.646 718.177 321.405L715.504 321.375Z" fill="white"/>
<path d="M722.833 323.053C723.116 323.139 723.363 323.317 723.534 323.559C723.705 323.801 723.79 324.094 723.776 324.39C723.786 324.623 723.739 324.855 723.64 325.066C723.54 325.277 723.39 325.46 723.204 325.6C722.74 325.895 722.202 326.052 721.652 326.052C721.102 326.052 720.564 325.895 720.1 325.6C719.917 325.457 719.769 325.273 719.67 325.063C719.571 324.853 719.522 324.622 719.528 324.39C719.517 324.094 719.603 323.803 719.773 323.561C719.944 323.32 720.189 323.141 720.471 323.053C720.244 322.955 720.052 322.79 719.919 322.581C719.787 322.372 719.72 322.127 719.729 321.88C719.723 321.668 719.767 321.458 719.859 321.267C719.951 321.075 720.087 320.909 720.256 320.781C720.666 320.519 721.143 320.38 721.63 320.38C722.116 320.38 722.593 320.519 723.003 320.781C723.173 320.909 723.309 321.075 723.4 321.267C723.492 321.458 723.537 321.668 723.531 321.88C723.541 322.122 723.48 322.362 723.356 322.57C723.232 322.779 723.05 322.947 722.833 323.053V323.053ZM721.652 325.221C721.942 325.242 722.229 325.157 722.461 324.984C722.558 324.904 722.635 324.803 722.685 324.688C722.736 324.573 722.758 324.448 722.751 324.323C722.758 324.197 722.736 324.07 722.686 323.954C722.635 323.838 722.558 323.736 722.461 323.655C722.228 323.482 721.941 323.398 721.652 323.417C721.362 323.397 721.075 323.481 720.843 323.655C720.746 323.736 720.669 323.838 720.618 323.954C720.568 324.07 720.546 324.197 720.553 324.323C720.546 324.448 720.568 324.573 720.619 324.688C720.669 324.803 720.746 324.904 720.843 324.984C721.075 325.157 721.362 325.242 721.652 325.221V325.221ZM722.35 321.36C722.149 321.211 721.902 321.138 721.652 321.152C721.402 321.139 721.156 321.212 720.954 321.36C720.866 321.428 720.795 321.516 720.749 321.617C720.702 321.718 720.681 321.828 720.687 321.939C720.684 322.047 720.705 322.154 720.75 322.252C720.796 322.35 720.863 322.436 720.947 322.504C721.153 322.647 721.401 322.717 721.652 322.704C721.901 322.717 722.146 322.647 722.35 322.504C722.434 322.434 722.502 322.347 722.548 322.248C722.595 322.149 722.619 322.041 722.619 321.932C722.619 321.823 722.595 321.715 722.548 321.616C722.502 321.517 722.434 321.43 722.35 321.36V321.36Z" fill="white"/>
<path d="M723.992 321.375V320.499H727.704V321.323C727.132 321.913 726.68 322.609 726.375 323.373C726.07 324.192 725.917 325.06 725.922 325.934H724.875C724.877 324.241 725.522 322.612 726.68 321.375H723.992Z" fill="white"/>
<path d="M728.231 321.375V320.499H731.944V321.323C731.373 321.915 730.922 322.611 730.614 323.373C730.309 324.192 730.156 325.06 730.161 325.934H729.092C729.094 324.241 729.739 322.612 730.897 321.375H728.231Z" fill="white"/>
<path d="M718.103 294.131V293.292H720.531V296.262H719.789L719.648 295.52C719.448 295.798 719.182 296.021 718.873 296.168C718.563 296.314 718.222 296.38 717.881 296.359C717.528 296.374 717.177 296.312 716.852 296.177C716.526 296.042 716.234 295.838 715.995 295.579C715.528 294.994 715.273 294.267 715.273 293.519C715.273 292.77 715.528 292.044 715.995 291.458C716.25 291.202 716.556 291.003 716.895 290.875C717.233 290.747 717.594 290.693 717.955 290.716C718.564 290.692 719.163 290.875 719.655 291.236C719.877 291.405 720.062 291.618 720.201 291.86C720.34 292.102 720.43 292.369 720.465 292.646H719.403C719.332 292.347 719.156 292.083 718.905 291.904C718.628 291.714 718.298 291.618 717.962 291.629C717.739 291.621 717.517 291.664 717.313 291.754C717.108 291.844 716.927 291.979 716.782 292.149C716.47 292.554 716.315 293.057 716.344 293.567C716.314 294.078 716.472 294.583 716.789 294.985C716.937 295.159 717.124 295.297 717.333 295.387C717.543 295.477 717.771 295.517 717.999 295.505C718.38 295.512 718.752 295.383 719.046 295.141C719.188 295.024 719.302 294.878 719.383 294.712C719.464 294.547 719.508 294.367 719.514 294.183L718.103 294.131Z" fill="white"/>
<path d="M724.979 293.368C725.257 293.465 725.5 293.644 725.677 293.88C725.839 294.113 725.925 294.39 725.922 294.674C725.933 294.89 725.896 295.106 725.812 295.305C725.729 295.504 725.601 295.682 725.439 295.825C725.031 296.122 724.532 296.266 724.028 296.234H721.489V290.799H723.946C724.415 290.768 724.88 290.907 725.253 291.192C725.398 291.316 725.514 291.472 725.591 291.646C725.668 291.821 725.705 292.011 725.699 292.202C725.711 292.446 725.648 292.688 725.52 292.896C725.391 293.105 725.202 293.269 724.979 293.368ZM723.872 291.645H722.521V293.063H723.872C724.09 293.08 724.306 293.01 724.474 292.87C724.542 292.799 724.596 292.715 724.631 292.624C724.667 292.532 724.684 292.434 724.682 292.335C724.686 292.241 724.669 292.146 724.632 292.058C724.594 291.971 724.538 291.893 724.466 291.831C724.297 291.7 724.086 291.634 723.872 291.645V291.645ZM722.521 295.358H724.006C724.246 295.374 724.483 295.302 724.674 295.157C724.751 295.088 724.812 295.003 724.852 294.908C724.891 294.813 724.909 294.711 724.904 294.608C724.904 294.103 724.6 293.865 724.006 293.865H722.521V295.358Z" fill="white"/>
<path d="M736.555 300.488V300.035H659.281V287.108H736.102V300.488H736.555V300.035V300.488H737.008V286.195H658.375V300.941H737.008V300.488H736.555Z" fill="white"/>
<path d="M229.328 315.977C229.492 315.988 229.657 315.959 229.807 315.891C229.957 315.824 230.089 315.721 230.189 315.591C230.381 315.251 230.482 314.867 230.482 314.477C230.482 314.086 230.381 313.703 230.189 313.363C230.09 313.231 229.959 313.126 229.809 313.057C229.658 312.988 229.493 312.958 229.328 312.969C229.162 312.959 228.996 312.989 228.845 313.058C228.693 313.127 228.561 313.231 228.459 313.363C228.272 313.704 228.174 314.087 228.174 314.477C228.174 314.866 228.272 315.249 228.459 315.591C228.563 315.72 228.695 315.822 228.847 315.89C228.998 315.957 229.163 315.987 229.328 315.977ZM229.328 313.415C229.722 313.415 229.915 313.764 229.915 314.469C229.915 315.175 229.722 315.516 229.328 315.516C228.935 315.516 228.742 315.167 228.742 314.469C228.742 313.771 228.935 313.415 229.328 313.415Z" fill="white"/>
<path d="M231.378 315.917H231.927V313.021H231.497C231.471 313.181 231.389 313.325 231.266 313.43C231.119 313.521 230.95 313.57 230.776 313.571H230.717V313.957H231.378V315.917Z" fill="white"/>
<path d="M228.809 354.721C228.644 354.711 228.479 354.741 228.327 354.808C228.176 354.875 228.043 354.978 227.94 355.107C227.753 355.448 227.655 355.831 227.655 356.221C227.655 356.61 227.753 356.993 227.94 357.335C228.049 357.458 228.182 357.556 228.332 357.624C228.482 357.692 228.644 357.727 228.809 357.727C228.973 357.727 229.136 357.692 229.285 357.624C229.435 357.556 229.569 357.458 229.678 357.335C229.869 356.995 229.97 356.611 229.97 356.221C229.97 355.83 229.869 355.447 229.678 355.107C229.574 354.978 229.441 354.875 229.29 354.808C229.139 354.741 228.974 354.711 228.809 354.721V354.721ZM228.809 357.283C228.415 357.283 228.222 356.926 228.222 356.228C228.222 355.53 228.415 355.181 228.809 355.181C229.202 355.181 229.395 355.53 229.395 356.228C229.395 356.926 229.202 357.283 228.809 357.283Z" fill="white"/>
<path d="M231.957 356.132C232.08 356.081 232.185 355.994 232.258 355.883C232.331 355.772 232.368 355.641 232.366 355.508C232.366 355.397 232.341 355.287 232.294 355.187C232.246 355.087 232.177 354.999 232.091 354.929C231.873 354.779 231.612 354.706 231.348 354.721C231.082 354.709 230.819 354.79 230.606 354.951C230.514 355.037 230.441 355.142 230.392 355.259C230.343 355.375 230.32 355.501 230.324 355.627H230.858C230.858 355.315 231.044 355.166 231.371 355.166C231.498 355.155 231.625 355.192 231.727 355.27C231.771 355.303 231.805 355.346 231.829 355.395C231.852 355.444 231.863 355.498 231.861 355.553C231.861 355.827 231.69 355.961 231.348 355.961H231.103V356.362H231.319C231.464 356.352 231.609 356.394 231.727 356.481C231.775 356.524 231.813 356.579 231.838 356.639C231.862 356.699 231.872 356.765 231.868 356.83C231.871 356.891 231.859 356.953 231.835 357.009C231.811 357.066 231.774 357.116 231.727 357.156C231.618 357.244 231.481 357.289 231.341 357.283C231.263 357.295 231.184 357.288 231.108 357.265C231.033 357.241 230.965 357.2 230.908 357.145C230.851 357.091 230.808 357.024 230.781 356.95C230.755 356.876 230.745 356.797 230.754 356.718H230.22C230.215 356.855 230.238 356.992 230.288 357.12C230.337 357.247 230.413 357.363 230.509 357.461C230.747 357.655 231.05 357.75 231.356 357.728C231.641 357.742 231.922 357.655 232.15 357.483C232.245 357.405 232.32 357.306 232.37 357.194C232.42 357.082 232.444 356.96 232.44 356.837C232.443 356.681 232.396 356.527 232.306 356.399C232.214 356.282 232.094 356.191 231.957 356.132Z" fill="white"/>
<path d="M254.121 311.165L244.371 320.914C243.74 320.677 243.079 320.454 242.389 320.254C238.372 319.136 234.218 318.586 230.048 318.62C223.96 318.62 218.443 319.689 214.456 321.419C212.672 322.134 211.042 323.183 209.651 324.508C209.105 325.01 208.663 325.614 208.351 326.287C208.039 326.96 207.863 327.688 207.832 328.429C207.883 329.746 208.411 330.999 209.317 331.956C208.385 332.891 207.861 334.158 207.861 335.479C207.861 336.8 208.385 338.067 209.317 339.002C208.411 339.958 207.883 341.212 207.832 342.529C207.863 343.27 208.039 343.998 208.351 344.671C208.663 345.343 209.105 345.948 209.651 346.45C211.306 347.991 213.263 349.172 215.399 349.917L205.746 359.57L205.983 359.807L215.74 350.058C216.371 350.296 217.032 350.519 217.723 350.719C221.74 351.837 225.894 352.387 230.063 352.353C236.152 352.353 241.669 351.283 245.656 349.546C247.439 348.833 249.069 347.787 250.46 346.464C251.006 345.963 251.448 345.358 251.76 344.685C252.073 344.013 252.249 343.285 252.279 342.544C252.229 341.227 251.701 339.973 250.794 339.017C251.727 338.082 252.251 336.815 252.251 335.494C252.251 334.173 251.727 332.906 250.794 331.971C251.701 331.014 252.229 329.761 252.279 328.444C252.249 327.703 252.073 326.975 251.76 326.302C251.448 325.629 251.006 325.025 250.46 324.523C248.808 322.979 246.85 321.797 244.713 321.056L254.366 311.403L254.121 311.165ZM210.104 324.983C211.701 323.342 214.433 321.909 217.893 320.9C221.849 319.793 225.941 319.248 230.048 319.281C234.736 319.216 239.402 319.937 243.852 321.412L238.825 326.439C235.93 325.907 232.992 325.644 230.048 325.652C223.96 325.652 218.443 326.714 214.456 328.451C212.72 329.145 211.127 330.152 209.755 331.421C208.991 330.594 208.55 329.518 208.515 328.392C208.579 327.091 209.149 325.868 210.104 324.983V324.983ZM245.404 336.121C247.069 336.788 248.597 337.757 249.911 338.98C248.299 340.584 245.604 341.987 242.203 342.982C238.246 344.08 234.155 344.62 230.048 344.586C227.311 344.592 224.578 344.361 221.881 343.895L227.62 338.148C228.43 338.185 229.246 338.215 230.078 338.215C235.055 338.291 240.006 337.479 244.698 335.817C244.921 335.936 245.166 336.039 245.404 336.143V336.121ZM217.708 336.582C220.783 337.45 223.946 337.968 227.138 338.126L221.45 343.843C219.134 343.434 216.87 342.769 214.701 341.861C213.035 341.194 211.507 340.225 210.193 339.002C211.712 337.608 213.494 336.532 215.436 335.839C216.148 336.114 216.906 336.359 217.737 336.604L217.708 336.582ZM216.416 335.46C216.891 335.29 217.381 335.126 217.901 334.978C221.856 333.886 225.945 333.351 230.048 333.389C230.657 333.389 231.259 333.389 231.853 333.426L227.776 337.502C223.913 337.37 220.088 336.69 216.416 335.483V335.46ZM242.203 335.936C238.246 337.033 234.155 337.573 230.048 337.539C229.439 337.539 228.838 337.539 228.244 337.502L232.32 333.426C236.184 333.56 240.009 334.243 243.681 335.453C243.206 335.616 242.716 335.809 242.24 335.958L242.203 335.936ZM242.389 334.324C239.313 333.462 236.15 332.946 232.959 332.787L238.654 327.092C240.97 327.502 243.234 328.167 245.404 329.075C247.069 329.741 248.597 330.711 249.911 331.933C248.39 333.325 246.608 334.4 244.668 335.096C243.948 334.874 243.191 334.584 242.389 334.347V334.324ZM232.499 332.765C231.697 332.72 230.88 332.698 230.048 332.698C225.071 332.622 220.12 333.434 215.428 335.096L214.686 334.792C213.02 334.125 211.492 333.156 210.179 331.933C211.79 330.33 214.485 328.926 217.886 327.931C221.843 326.833 225.934 326.294 230.041 326.327C232.778 326.322 235.511 326.553 238.209 327.018L232.499 332.765ZM209.726 332.423C211.127 333.724 212.759 334.752 214.537 335.453L214.426 335.497C212.691 336.192 211.098 337.199 209.726 338.468C208.931 337.659 208.486 336.571 208.486 335.438C208.486 334.305 208.931 333.217 209.726 332.409V332.423ZM214.693 348.892C212.989 348.202 211.432 347.194 210.104 345.922C209.129 345.034 208.547 343.795 208.486 342.477C208.521 341.351 208.961 340.275 209.726 339.448C211.463 341.163 214.24 342.588 217.708 343.606C218.703 343.895 219.765 344.148 220.871 344.348L215.896 349.323C215.51 349.234 215.079 349.078 214.693 348.915V348.892ZM249.992 345.922C248.396 347.556 245.663 348.989 242.203 349.999C238.246 351.097 234.155 351.636 230.048 351.603C225.366 351.679 220.704 350.977 216.252 349.524L221.279 344.497C224.172 345.023 227.108 345.281 230.048 345.269C236.137 345.269 241.654 344.207 245.641 342.47C247.376 341.775 248.969 340.769 250.341 339.5C251.106 340.327 251.546 341.403 251.581 342.529C251.559 343.186 251.408 343.831 251.135 344.429C250.862 345.027 250.474 345.565 249.992 346.011V345.922ZM250.371 338.453C248.967 337.157 247.336 336.132 245.559 335.431L245.671 335.386C247.406 334.692 248.999 333.685 250.371 332.416C251.165 333.223 251.61 334.31 251.61 335.442C251.61 336.574 251.165 337.661 250.371 338.468V338.453ZM245.404 321.991C247.107 322.682 248.664 323.69 249.992 324.961C250.967 325.85 251.549 327.089 251.611 328.406C251.591 329.536 251.164 330.619 250.408 331.458C248.671 329.743 245.894 328.317 242.426 327.3C241.431 327.011 240.369 326.758 239.263 326.558L244.238 321.59C244.616 321.724 245.017 321.88 245.404 322.043V321.991Z" fill="white"/>
<path d="M257.559 336.478C257.268 336.124 257.075 335.699 257.001 335.247C256.926 334.794 256.973 334.33 257.136 333.902C257.285 333.471 257.54 333.085 257.878 332.779C258.215 332.473 258.624 332.256 259.067 332.149C258.91 332.122 258.751 332.11 258.592 332.112C258.427 332.11 258.263 332.122 258.101 332.149C257.342 332.267 256.646 332.642 256.129 333.211C255.612 333.779 255.306 334.508 255.26 335.275C255.215 336.043 255.434 336.802 255.881 337.428C256.328 338.053 256.975 338.507 257.715 338.713C257.908 338.772 258.102 338.802 258.302 338.847H258.97H259.067C259.685 338.768 260.269 338.517 260.752 338.124C261.234 337.73 261.597 337.209 261.799 336.619C261.799 336.575 261.799 336.515 261.851 336.433C261.601 336.764 261.279 337.034 260.909 337.22C260.539 337.407 260.131 337.506 259.716 337.511C259.302 337.515 258.892 337.424 258.518 337.245C258.144 337.066 257.816 336.804 257.559 336.478V336.478Z" fill="white"/>
<path d="M202.145 332.149C201.828 332.1 201.505 332.1 201.188 332.149C201.63 332.257 202.038 332.474 202.375 332.78C202.712 333.086 202.968 333.472 203.118 333.902C203.28 334.331 203.325 334.794 203.251 335.247C203.177 335.699 202.985 336.124 202.695 336.478C202.437 336.802 202.107 337.063 201.732 337.24C201.358 337.417 200.947 337.506 200.533 337.5C200.118 337.493 199.71 337.392 199.341 337.203C198.972 337.014 198.651 336.744 198.403 336.411C198.415 336.474 198.433 336.537 198.455 336.597C198.655 337.188 199.017 337.71 199.5 338.105C199.984 338.499 200.569 338.748 201.188 338.825H201.277H201.952C202.145 338.78 202.346 338.75 202.539 338.691C203.279 338.484 203.926 338.03 204.373 337.404C204.819 336.777 205.037 336.018 204.991 335.25C204.945 334.483 204.637 333.754 204.12 333.186C203.602 332.618 202.905 332.244 202.145 332.127V332.149Z" fill="white"/>
<path d="M203.63 387.86L204.098 386.07H204.974L203.741 390.526H202.791L202.316 388.677C202.123 387.867 202.004 387.34 201.959 387.103C201.84 387.659 201.722 388.187 201.595 388.677L201.12 390.526H200.177L198.945 386.07H199.821L200.281 387.86C200.496 388.721 200.638 389.286 200.689 389.553C200.823 388.929 200.949 388.357 201.068 387.852L201.529 386.07H202.39L202.85 387.852C202.962 388.328 203.088 388.892 203.221 389.553C203.281 389.167 203.415 388.602 203.63 387.86Z" fill="white"/>
<path d="M208.62 386.107V386.849H206.184V387.896H208.412V388.639H206.184V389.797H208.605V390.54H205.338V386.085L208.62 386.107Z" fill="white"/>
<path d="M209.978 390.51H209.132V386.055H209.978V390.51Z" fill="white"/>
<path d="M212.837 388.795V388.112H214.82V390.51H214.211L214.092 389.924C213.93 390.153 213.712 390.337 213.458 390.458C213.205 390.579 212.924 390.633 212.644 390.614C212.356 390.626 212.068 390.575 211.801 390.465C211.535 390.355 211.295 390.188 211.1 389.976C210.698 389.509 210.491 388.905 210.52 388.29C210.49 387.67 210.703 387.063 211.114 386.597C211.321 386.384 211.571 386.217 211.848 386.108C212.125 385.999 212.421 385.951 212.718 385.966C213.215 385.948 213.704 386.097 214.107 386.389C214.289 386.528 214.441 386.702 214.555 386.901C214.668 387.1 214.741 387.32 214.768 387.548H213.899C213.875 387.423 213.826 387.305 213.756 387.199C213.686 387.093 213.596 387.002 213.49 386.931C213.274 386.777 213.014 386.696 212.748 386.701C212.564 386.693 212.381 386.727 212.213 386.801C212.044 386.874 211.895 386.985 211.775 387.124C211.523 387.459 211.396 387.872 211.419 388.29C211.398 388.707 211.527 389.118 211.783 389.449C211.906 389.59 212.059 389.701 212.232 389.774C212.404 389.848 212.591 389.881 212.778 389.872C213.089 389.881 213.393 389.775 213.632 389.575C213.743 389.483 213.834 389.37 213.9 389.243C213.967 389.115 214.007 388.976 214.018 388.832L212.837 388.795Z" fill="white"/>
<path d="M218.391 387.852V386.107H219.223V390.562H218.384V388.669H216.327V390.562H215.51V386.107H216.357V387.889L218.391 387.852Z" fill="white"/>
<path d="M219.654 386.107H223.366V386.85H221.941V390.562H221.079V386.85H219.654V386.107Z" fill="white"/>
<path d="M224.287 388.335H223.366V387.444H224.287V388.335ZM224.287 390.503H223.366V389.612H224.287V390.503Z" fill="white"/>
<path d="M227.91 387.592C228.111 387.575 228.314 387.601 228.504 387.669C228.694 387.737 228.867 387.845 229.012 387.986C229.156 388.127 229.269 388.297 229.341 388.486C229.414 388.674 229.445 388.876 229.432 389.077C229.44 389.286 229.402 389.494 229.322 389.686C229.241 389.878 229.119 390.051 228.965 390.191C228.637 390.484 228.208 390.638 227.769 390.622C227.357 390.634 226.953 390.502 226.626 390.251C226.476 390.128 226.355 389.976 226.269 389.803C226.183 389.63 226.135 389.441 226.128 389.248H226.93C226.94 389.346 226.969 389.442 227.017 389.528C227.064 389.615 227.128 389.691 227.205 389.753C227.364 389.881 227.565 389.947 227.769 389.939C227.883 389.943 227.997 389.924 228.103 389.881C228.209 389.839 228.306 389.775 228.385 389.694C228.464 389.612 228.524 389.515 228.564 389.409C228.604 389.303 228.621 389.19 228.616 389.077C228.62 388.963 228.603 388.849 228.563 388.742C228.524 388.635 228.463 388.537 228.385 388.454C228.304 388.374 228.208 388.312 228.102 388.272C227.996 388.231 227.883 388.212 227.769 388.216C227.609 388.203 227.449 388.239 227.31 388.318C227.171 388.398 227.059 388.517 226.989 388.662H226.247L226.648 386.107H229.217V386.813H227.309L227.116 387.919C227.335 387.722 227.616 387.606 227.91 387.592V387.592Z" fill="white"/>
<path d="M230.687 390.51H229.774V389.619H230.687V390.51Z" fill="white"/>
<path d="M232.878 387.592C233.076 387.583 233.273 387.615 233.457 387.686C233.642 387.757 233.809 387.866 233.949 388.006C234.089 388.146 234.198 388.313 234.269 388.498C234.341 388.682 234.373 388.88 234.363 389.077C234.372 389.285 234.336 389.493 234.256 389.685C234.177 389.878 234.056 390.05 233.903 390.191C233.577 390.483 233.151 390.637 232.715 390.622C232.338 390.632 231.968 390.52 231.66 390.303C231.394 390.058 231.189 389.755 231.06 389.417C230.931 389.08 230.882 388.717 230.918 388.357C230.88 387.735 231.038 387.117 231.371 386.59C231.523 386.386 231.724 386.223 231.954 386.116C232.185 386.008 232.438 385.96 232.692 385.974C233.071 385.96 233.442 386.075 233.747 386.3C233.888 386.411 234.006 386.549 234.094 386.706C234.182 386.863 234.238 387.035 234.259 387.214H233.472C233.445 387.041 233.353 386.884 233.215 386.775C233.078 386.667 232.904 386.614 232.729 386.627C232.585 386.616 232.439 386.644 232.309 386.708C232.178 386.772 232.067 386.87 231.987 386.991C231.802 387.348 231.713 387.747 231.727 388.149C231.851 387.961 232.023 387.81 232.226 387.712C232.428 387.614 232.654 387.573 232.878 387.592V387.592ZM231.898 389.077C231.894 389.19 231.914 389.301 231.954 389.406C231.995 389.511 232.057 389.606 232.135 389.686C232.216 389.764 232.312 389.825 232.416 389.866C232.521 389.907 232.632 389.927 232.744 389.924C232.856 389.928 232.967 389.909 233.071 389.868C233.175 389.827 233.269 389.764 233.347 389.685C233.426 389.605 233.486 389.51 233.526 389.405C233.565 389.301 233.582 389.189 233.576 389.077C233.582 388.85 233.5 388.629 233.346 388.461C233.181 388.309 232.965 388.224 232.741 388.224C232.516 388.224 232.3 388.309 232.135 388.461C232.057 388.543 231.995 388.64 231.955 388.745C231.914 388.851 231.895 388.964 231.898 389.077Z" fill="white"/>
<path d="M237.86 386.108H238.907L237.08 387.912L238.907 390.548H237.904L236.479 388.476L235.781 389.159V390.548H234.942V386.093H235.781V388.187L237.86 386.108Z" fill="white"/>
<path d="M241.045 388.795V388.112H243.028V390.51H242.419L242.3 389.924C242.138 390.153 241.92 390.337 241.666 390.458C241.413 390.579 241.133 390.633 240.852 390.614C240.564 390.626 240.276 390.575 240.01 390.465C239.743 390.355 239.504 390.188 239.308 389.976C238.906 389.509 238.699 388.905 238.729 388.29C238.699 387.67 238.912 387.063 239.323 386.597C239.529 386.384 239.779 386.217 240.056 386.108C240.333 385.999 240.63 385.951 240.927 385.966C241.424 385.948 241.912 386.097 242.315 386.389C242.497 386.528 242.65 386.702 242.763 386.901C242.877 387.1 242.949 387.32 242.976 387.548H242.107C242.083 387.423 242.034 387.305 241.964 387.199C241.894 387.093 241.804 387.002 241.699 386.931C241.483 386.777 241.222 386.696 240.956 386.701C240.773 386.693 240.59 386.727 240.421 386.801C240.252 386.874 240.103 386.985 239.984 387.124C239.731 387.459 239.605 387.872 239.627 388.29C239.606 388.707 239.735 389.118 239.991 389.449C240.114 389.59 240.268 389.701 240.44 389.774C240.612 389.848 240.799 389.881 240.986 389.872C241.297 389.881 241.601 389.775 241.84 389.575C241.951 389.483 242.042 389.37 242.109 389.243C242.175 389.115 242.215 388.976 242.226 388.832L241.045 388.795Z" fill="white"/>
<path d="M511.973 514.896C511.685 514.908 511.397 514.858 511.129 514.749C510.861 514.64 510.62 514.475 510.422 514.265C510.215 514.038 510.056 513.772 509.953 513.482C509.85 513.193 509.804 512.886 509.82 512.58C509.79 511.957 510.003 511.347 510.414 510.879C510.615 510.671 510.858 510.508 511.127 510.4C511.396 510.293 511.684 510.243 511.973 510.256C512.45 510.242 512.918 510.389 513.303 510.671C513.683 510.968 513.931 511.403 513.993 511.882H513.139C513.082 511.62 512.935 511.386 512.723 511.221C512.509 511.063 512.247 510.982 511.981 510.991C511.804 510.983 511.627 511.017 511.466 511.091C511.305 511.164 511.163 511.275 511.053 511.414C510.806 511.751 510.686 512.163 510.711 512.58C510.687 512.995 510.804 513.406 511.045 513.745C511.159 513.882 511.302 513.99 511.465 514.062C511.627 514.134 511.804 514.168 511.981 514.161C512.27 514.169 512.553 514.072 512.775 513.886C512.998 513.699 513.142 513.433 513.176 513.144H514.001C513.988 513.396 513.923 513.642 513.809 513.868C513.695 514.093 513.535 514.291 513.34 514.451C512.95 514.753 512.467 514.91 511.973 514.896V514.896Z" fill="white"/>
<path d="M516.57 514.896C516.272 514.909 515.975 514.86 515.698 514.751C515.42 514.643 515.168 514.477 514.959 514.265C514.542 513.805 514.323 513.2 514.35 512.58C514.335 512.272 514.381 511.965 514.485 511.676C514.59 511.386 514.751 511.121 514.959 510.894C515.395 510.484 515.971 510.256 516.57 510.256C517.169 510.256 517.745 510.484 518.181 510.894C518.388 511.121 518.547 511.387 518.65 511.677C518.753 511.966 518.799 512.273 518.783 512.58C518.812 513.199 518.596 513.804 518.181 514.265C517.972 514.477 517.72 514.643 517.443 514.751C517.165 514.86 516.868 514.909 516.57 514.896V514.896ZM515.226 512.58C515.205 512.996 515.337 513.405 515.597 513.73C515.722 513.864 515.874 513.971 516.042 514.044C516.21 514.117 516.391 514.154 516.574 514.154C516.757 514.154 516.938 514.117 517.106 514.044C517.274 513.971 517.425 513.864 517.55 513.73C517.808 513.404 517.937 512.995 517.914 512.58C517.937 512.162 517.807 511.751 517.55 511.421C517.425 511.287 517.274 511.181 517.106 511.108C516.938 511.035 516.757 510.997 516.574 510.997C516.391 510.997 516.21 511.035 516.042 511.108C515.874 511.181 515.722 511.287 515.597 511.421C515.336 511.749 515.204 512.161 515.226 512.58V512.58Z" fill="white"/>
<path d="M521.13 514.889C520.632 514.919 520.142 514.754 519.763 514.429C519.593 514.26 519.46 514.057 519.374 513.833C519.289 513.609 519.252 513.369 519.266 513.129V510.352H520.112V513.129C520.093 513.268 520.106 513.409 520.15 513.542C520.194 513.675 520.268 513.796 520.367 513.896C520.465 513.996 520.585 514.072 520.717 514.118C520.85 514.164 520.991 514.179 521.13 514.161C521.264 514.169 521.399 514.15 521.527 514.106C521.654 514.061 521.772 513.992 521.872 513.902C522.055 513.699 522.151 513.432 522.139 513.159L522.139 510.382H522.979V513.159C522.993 513.399 522.957 513.639 522.872 513.865C522.788 514.09 522.657 514.295 522.488 514.466C522.105 514.774 521.62 514.925 521.13 514.889V514.889Z" fill="white"/>
<path d="M529.148 512.854H523.49V512.186H529.148V512.854Z" fill="white"/>
<path d="M529.713 510.352H531.666C532.088 510.327 532.504 510.468 532.824 510.745C533.091 511.032 533.24 511.408 533.24 511.8C533.24 512.191 533.091 512.568 532.824 512.854C532.504 513.132 532.088 513.273 531.666 513.248H530.559V514.8H529.713V510.352ZM530.559 512.52H531.629C531.73 512.53 531.833 512.518 531.93 512.486C532.027 512.454 532.117 512.403 532.193 512.334C532.263 512.265 532.318 512.182 532.352 512.089C532.387 511.997 532.401 511.898 532.393 511.8C532.4 511.702 532.385 511.603 532.35 511.511C532.316 511.419 532.262 511.335 532.193 511.265C532.117 511.197 532.027 511.146 531.93 511.114C531.833 511.082 531.73 511.07 531.629 511.08H530.559V512.52Z" fill="white"/>
<path d="M536.7 511.518V510.352H537.509V514.807H536.574L535.334 512.825C535 512.298 534.732 511.852 534.547 511.496C534.547 511.956 534.547 512.676 534.547 513.642V514.807H533.737V510.352H534.673L535.913 512.335C536.284 512.936 536.544 513.374 536.7 513.671C536.707 513.077 536.7 512.335 536.7 511.518Z" fill="white"/>
<path d="M541.511 510.352V511.095H539.083V512.141H541.311V512.884H539.083V514.042H541.474V514.785H538.207V510.33L541.511 510.352Z" fill="white"/>
<path d="M541.749 510.352H545.461V511.095H544.036V514.807H543.189V511.095H541.764L541.749 510.352Z" fill="white"/>
<path d="M513.013 520.443C512.846 520.63 512.641 520.78 512.412 520.883C512.183 520.985 511.935 521.038 511.684 521.038C511.433 521.038 511.185 520.985 510.956 520.883C510.727 520.78 510.522 520.63 510.355 520.443C510.058 519.918 509.902 519.324 509.902 518.721C509.902 518.117 510.058 517.524 510.355 516.998C510.521 516.809 510.725 516.657 510.954 516.553C511.183 516.449 511.432 516.395 511.684 516.395C511.935 516.395 512.184 516.449 512.413 516.553C512.643 516.657 512.847 516.809 513.013 516.998C513.31 517.524 513.465 518.117 513.465 518.721C513.465 519.324 513.31 519.918 513.013 520.443V520.443ZM511.684 520.332C512.285 520.332 512.59 519.79 512.59 518.721C512.59 517.651 512.285 517.109 511.684 517.109C511.082 517.109 510.785 517.644 510.785 518.721C510.785 519.797 511.082 520.332 511.684 520.332Z" fill="white"/>
<path d="M516.518 518.565C516.738 518.657 516.928 518.809 517.067 519.003C517.203 519.196 517.273 519.428 517.268 519.664C517.275 519.852 517.238 520.04 517.161 520.213C517.084 520.386 516.968 520.538 516.822 520.659C516.474 520.925 516.043 521.059 515.605 521.037C515.134 521.072 514.668 520.923 514.305 520.621C514.153 520.473 514.034 520.293 513.957 520.094C513.88 519.896 513.847 519.683 513.86 519.471H514.677C514.664 519.59 514.679 519.711 514.72 519.824C514.761 519.936 514.828 520.038 514.915 520.121C515.001 520.205 515.106 520.267 515.22 520.303C515.335 520.34 515.456 520.35 515.575 520.332C515.792 520.344 516.007 520.275 516.176 520.139C516.249 520.077 516.306 519.999 516.343 519.912C516.381 519.824 516.397 519.729 516.392 519.634C516.398 519.535 516.381 519.436 516.342 519.344C516.303 519.253 516.244 519.172 516.169 519.107C515.991 518.97 515.77 518.901 515.545 518.914H515.219V518.275H515.538C516.058 518.275 516.28 518.075 516.28 517.659C516.284 517.576 516.268 517.493 516.235 517.417C516.201 517.341 516.151 517.274 516.087 517.221C515.928 517.106 515.734 517.049 515.538 517.057C515.033 517.057 514.795 517.295 514.743 517.8H514.001C513.992 517.609 514.026 517.418 514.099 517.241C514.172 517.064 514.283 516.905 514.424 516.775C514.759 516.511 515.18 516.382 515.605 516.411C516.012 516.39 516.414 516.505 516.748 516.738C516.886 516.841 516.996 516.976 517.07 517.131C517.143 517.287 517.178 517.457 517.171 517.629C517.17 517.833 517.106 518.031 516.989 518.198C516.873 518.365 516.709 518.493 516.518 518.565V518.565Z" fill="white"/>
<path d="M518.255 520.94H517.512L519.109 516.485H519.851L518.255 520.94Z" fill="white"/>
<path d="M521.3 516.493H521.968V520.948H521.129V517.978H520.104V517.391H520.201C520.464 517.384 520.72 517.307 520.944 517.168C521.045 517.085 521.129 516.982 521.19 516.866C521.251 516.75 521.288 516.623 521.3 516.493V516.493Z" fill="white"/>
<path d="M523.727 516.493H524.396V520.948H523.557V517.978H522.532V517.391H522.629C522.891 517.384 523.148 517.307 523.371 517.168C523.472 517.085 523.556 516.982 523.617 516.866C523.678 516.75 523.716 516.623 523.727 516.493V516.493Z" fill="white"/>
<path d="M525.495 520.94H524.753L526.349 516.485H527.092L525.495 520.94Z" fill="white"/>
<path d="M530.181 518.609L530.923 516.493H532.148V520.948H531.339V519.589C531.339 518.757 531.339 518.022 531.339 517.361C531.242 517.673 531.131 518.015 530.997 518.386L530.099 520.918H529.408L528.503 518.386C528.347 517.918 528.235 517.584 528.176 517.369C528.176 518.007 528.176 518.735 528.176 519.596V520.955H527.366V516.5H528.592L529.334 518.661C529.389 518.809 529.515 519.21 529.713 519.864C529.921 519.396 530.054 519.017 530.181 518.609Z" fill="white"/>
<path d="M535.645 518.609L536.387 516.493H537.605V520.948H536.803V519.589C536.803 518.757 536.803 518.022 536.803 517.361C536.714 517.673 536.603 518.015 536.469 518.386L535.571 520.918H534.88L533.974 518.386C533.811 517.918 533.707 517.584 533.64 517.369C533.64 518.007 533.64 518.735 533.64 519.596V520.955H532.831V516.5H534.056L534.798 518.661C534.85 518.809 534.977 519.21 535.185 519.864C535.385 519.396 535.534 519.017 535.645 518.609Z" fill="white"/>
<path d="M542.001 516.493L540.516 518.653L542.067 520.94H541.087L540.597 520.198L540.003 519.292C539.832 519.567 539.632 519.871 539.417 520.198L538.919 520.94H537.969L539.535 518.676L538.05 516.493H539.023L539.469 517.154C539.58 517.317 539.766 517.606 540.018 518.015C540.1 517.881 540.189 517.748 540.278 517.614L540.471 517.309L540.575 517.154L541.02 516.493H542.001Z" fill="white"/>
<path d="M546.174 516.493L544.689 518.653L546.241 520.94H545.261L544.778 520.198C544.556 519.871 544.355 519.567 544.184 519.292C544.006 519.567 543.813 519.871 543.59 520.198L543.093 520.94H542.143L543.709 518.676L542.224 516.493H543.204L543.642 517.154C543.754 517.317 543.939 517.606 544.192 518.015C544.274 517.881 544.363 517.748 544.452 517.614C544.513 517.509 544.58 517.408 544.652 517.309L544.749 517.154L545.202 516.493H546.174Z" fill="white"/>
<path d="M600.808 493.794H594.979V520.569H600.808V493.794Z" fill="white"/>
<path d="M602.263 493.794H601.536V520.569H602.263V493.794Z" fill="white"/>
<path d="M603.719 493.794H602.992V520.569H603.719V493.794Z" fill="white"/>
<path d="M605.174 493.794H604.446V520.569H605.174V493.794Z" fill="white"/>
<path d="M649.621 493.794H644.52V520.569H649.621V493.794Z" fill="white"/>
<path d="M651.076 493.794H650.348V520.569H651.076V493.794Z" fill="white"/>
<path d="M653.986 493.794H653.259V520.569H653.986V493.794Z" fill="white"/>
<path d="M655.45 493.794H654.723V520.569H655.45V493.794Z" fill="white"/>
<path d="M657.633 493.794H656.906V520.569H657.633V493.794Z" fill="white"/>
<path d="M615.376 495.465H616.104V497.135H617.559V495.465H619.015V493.794H615.376V495.465Z" fill="white"/>
<path d="M624.115 493.794H623.388V495.465H624.115V493.794Z" fill="white"/>
<path d="M634.288 493.771H632.134V520.546H634.288V517.197H635.773V515.527H634.288V512.178H635.03V510.5H634.288V503.817H635.03V495.464H634.288V493.771ZM633.545 518.868H632.803V517.197H633.545V518.868ZM633.545 513.849V515.527H632.803V512.178H633.545V513.849ZM633.545 505.481V510.5H632.803V503.817H633.545V505.481ZM634.288 498.798V500.454H633.545V497.105H634.288V498.798Z" fill="white"/>
<path d="M635.773 493.794H635.045V495.465H635.773V493.794Z" fill="white"/>
<path d="M637.229 493.794H636.501V495.465H637.229V493.794Z" fill="white"/>
<path d="M640.146 493.794H637.963V495.465H640.146V493.794Z" fill="white"/>
<path d="M612.458 495.465V493.794H611.731V495.465V497.135H612.458V495.465Z" fill="white"/>
<path d="M613.921 495.465V493.794H613.193V495.465V497.135H612.458V498.813V500.484H611.003V502.162H611.73V503.833H611.003V505.503V507.181V508.852H612.458V507.181H611.73V505.503H613.193V503.833H612.458V502.162H613.193V500.484V498.813H613.921V500.484H616.104V498.813V497.135H613.921V495.465Z" fill="white"/>
<path d="M627.762 495.465H628.489V493.794H627.034V495.465H625.579V497.135H624.844V498.813V500.484H627.034V498.813H627.762V497.135V495.465Z" fill="white"/>
<path d="M629.944 495.465H628.489V497.135H629.944V495.465Z" fill="white"/>
<path d="M630.672 497.135V498.813H631.407V497.135V495.465H630.672V497.135Z" fill="white"/>
<path d="M637.964 495.465H637.236V497.135H637.964V495.465Z" fill="white"/>
<path d="M611.73 497.136H611.003V498.807H611.73V497.136Z" fill="white"/>
<path d="M624.115 497.136H623.388V498.807H624.115V497.136Z" fill="white"/>
<path d="M611.003 498.813H610.275V500.484H611.003V498.813Z" fill="white"/>
<path d="M627.761 500.484V502.162V503.833H628.489V505.503H629.216V503.833H629.944V505.503H629.216V507.182H627.033V508.852H627.761V510.53V512.201V513.872H629.944V515.55H631.407V513.872H630.672V512.201H629.216V510.53H628.489V508.852H629.944V507.182H630.672V505.503H631.407V503.833H630.672V502.162H629.944V500.484H630.672V498.813H627.761V500.484Z" fill="white"/>
<path d="M638.692 498.813H636.516V495.465H635.774V505.503H635.031V507.181H635.774V508.852H636.516V510.523H638.001V508.852H637.259V507.181H639.442V505.503H640.927V503.833H640.184V502.162H639.442V500.454H638.699L638.692 498.813ZM638.692 505.496H637.949V503.825H638.692V505.496ZM637.207 502.155V503.825H636.464V500.454H637.207V502.155Z" fill="white"/>
<path d="M643.064 498.813H642.337V497.135H640.874V495.465H640.146V497.135H638.691V498.813H639.419V500.484H641.602V502.162H643.064V503.833H643.792V502.162V500.484H643.064V498.813Z" fill="white"/>
<path d="M616.832 500.484H616.104V502.155H616.832V500.484Z" fill="white"/>
<path d="M624.116 502.162V503.833V505.504H624.843V503.833H625.578V502.162H624.843V500.484H624.116V502.162Z" fill="white"/>
<path d="M631.407 500.484H630.68V502.155H631.407V500.484Z" fill="white"/>
<path d="M610.275 502.162V500.454H609.532V502.132H608.79V500.454H609.532V498.783H608.79V497.105H609.532V498.783H610.275V497.105H611.017V493.771H607.379V520.546H608.864V518.868H610.349V508.852H609.607V515.534H608.864V508.852H608.122V507.181H608.864V508.852H609.607V507.181H610.349V505.503H609.607V503.832H611.092V502.162H610.275ZM608.79 505.503H608.047V503.832H608.79V505.503Z" fill="white"/>
<path d="M615.376 502.161H613.193V503.832H615.376V502.161Z" fill="white"/>
<path d="M619.015 502.161H618.287V503.832H619.015V502.161Z" fill="white"/>
<path d="M622.661 502.161H621.205V503.832H622.661V502.161Z" fill="white"/>
<path d="M617.559 503.833H615.376V505.503H617.559V503.833Z" fill="white"/>
<path d="M614.649 507.182H613.921V505.504H613.193V507.182V508.852H612.458V510.531H611.731V512.201H612.458V513.872H613.193V512.201H613.921V510.531H614.649V508.852H615.376V510.531H616.104V512.201H614.649V513.872H615.376V515.55H616.832V513.872H618.287V512.201H616.832V510.531H618.287V508.852H616.832V507.182H615.376V505.504H614.649V507.182Z" fill="white"/>
<path d="M627.034 505.504H626.306V507.174H627.034V505.504Z" fill="white"/>
<path d="M622.66 507.181H623.403V505.503H621.22V503.832H620.477V502.162H621.22V498.813H621.962V500.454H622.705V497.105H623.447V495.434H622.705V493.771H621.962V495.442H621.22V493.771H619.735V520.546H621.22V518.868H620.477V513.849H621.22V512.178H621.962V508.829H622.705L622.66 507.181ZM621.175 510.522H620.433V507.181H621.175V510.522Z" fill="white"/>
<path d="M624.116 507.182V508.852H625.578V507.182V505.504H624.843V507.182H624.116Z" fill="white"/>
<path d="M640.147 508.852V510.531H641.602V508.852H643.065V507.182H643.792V505.504H641.602V507.182H639.419V508.852H640.147Z" fill="white"/>
<path d="M624.843 510.53V512.201H625.578V513.872V515.55H623.388V513.872H624.115V512.201V510.53H623.388V512.201H622.66V513.872V515.55V517.22V518.891H624.115V520.569H624.843V518.891H625.578V517.22H626.306V515.55H627.034V513.872H626.306V512.201H627.034V510.53H626.306V508.852H625.578V510.53H624.843Z" fill="white"/>
<path d="M636.502 510.523H635.774V512.194H636.502V510.523Z" fill="white"/>
<path d="M637.963 512.201H636.508V513.871H637.236V515.549H638.691V513.871H637.963V512.201Z" fill="white"/>
<path d="M640.146 512.201V510.53H637.963V512.201H638.691V513.872H641.602V515.55V517.22H640.146V518.891V520.569H642.337V518.891H643.792V517.22H643.064V515.55V513.872H642.337V512.201H643.792V510.53H641.602V512.201H640.146Z" fill="white"/>
<path d="M614.649 513.871H613.921V515.549V517.22H614.649V515.549V513.871Z" fill="white"/>
<path d="M621.933 515.549H621.205V517.22H621.933V515.549Z" fill="white"/>
<path d="M628.489 517.22V518.891V520.569H629.944V518.891H629.216V517.22H629.944V515.549H628.489V517.22Z" fill="white"/>
<path d="M637.229 515.549H636.501V517.22H637.229V515.549Z" fill="white"/>
<path d="M640.147 515.549H639.419V517.22H640.147V515.549Z" fill="white"/>
<path d="M611.73 517.22V515.549H611.003V517.22V518.891H611.73V517.22Z" fill="white"/>
<path d="M614.649 517.22V518.891H613.921V520.569H616.104V518.891H617.559V517.22V515.549H616.832V517.22H614.649Z" fill="white"/>
<path d="M619.015 517.221H618.287V518.891H619.015V517.221Z" fill="white"/>
<path d="M627.033 518.891V520.569H627.761V518.891V517.221H627.033V518.891Z" fill="white"/>
<path d="M639.419 517.221H637.963V518.891H639.419V517.221Z" fill="white"/>
<path d="M611.003 518.891H610.275V520.561H611.003V518.891Z" fill="white"/>
<path d="M613.186 518.891H611.731V520.561H613.186V518.891Z" fill="white"/>
<path d="M636.502 518.891H635.774V520.561H636.502V518.891Z" fill="white"/>
<path d="M637.964 518.891H637.236V520.561H637.964V518.891Z" fill="white"/>
<path d="M458.312 335.267L455.416 334.681C455.295 334.657 455.169 334.66 455.049 334.69C454.929 334.719 454.817 334.775 454.72 334.853C454.624 334.931 454.546 335.029 454.492 335.14C454.438 335.252 454.408 335.374 454.406 335.497V336.158C454.405 336.283 454.431 336.406 454.483 336.519C454.536 336.631 454.613 336.731 454.71 336.809C454.806 336.888 454.919 336.944 455.04 336.972C455.161 337.001 455.287 337.002 455.409 336.975L458.312 336.359C458.445 336.332 458.582 336.339 458.711 336.377C458.841 336.416 458.958 336.486 459.054 336.581C459.15 336.677 459.221 336.795 459.26 336.925C459.298 337.054 459.305 337.191 459.277 337.324L458.661 340.227C458.634 340.348 458.635 340.473 458.663 340.594C458.692 340.714 458.747 340.827 458.824 340.923C458.902 341.019 459.001 341.097 459.112 341.15C459.224 341.203 459.347 341.23 459.47 341.23H460.139C460.263 341.23 460.385 341.203 460.497 341.15C460.609 341.097 460.708 341.019 460.786 340.923C460.864 340.827 460.92 340.715 460.95 340.594C460.979 340.474 460.981 340.349 460.955 340.227L460.361 337.331C460.34 337.198 460.35 337.062 460.39 336.933C460.429 336.804 460.499 336.687 460.591 336.589V336.589C460.688 336.494 460.805 336.423 460.934 336.383C461.064 336.343 461.201 336.334 461.334 336.359L464.23 336.953C464.352 336.977 464.478 336.974 464.599 336.943C464.719 336.913 464.832 336.857 464.928 336.778C465.025 336.699 465.103 336.6 465.157 336.488C465.21 336.376 465.239 336.253 465.24 336.129V335.468C465.24 335.344 465.213 335.221 465.16 335.109C465.107 334.997 465.029 334.898 464.933 334.82C464.837 334.742 464.725 334.686 464.604 334.657C464.484 334.627 464.359 334.626 464.237 334.651L461.341 335.275C461.208 335.299 461.071 335.291 460.942 335.251C460.813 335.211 460.695 335.14 460.599 335.045V335.045C460.504 334.948 460.435 334.83 460.396 334.701C460.357 334.571 460.35 334.435 460.376 334.302L460.992 331.406C461.019 331.285 461.018 331.16 460.99 331.04C460.962 330.919 460.907 330.806 460.829 330.71C460.751 330.614 460.653 330.536 460.541 330.483C460.429 330.43 460.307 330.403 460.183 330.404H459.522C459.397 330.403 459.274 330.431 459.161 330.484C459.048 330.538 458.949 330.616 458.87 330.712C458.791 330.809 458.734 330.922 458.705 331.044C458.675 331.165 458.673 331.291 458.698 331.414L459.292 334.309C459.316 334.443 459.307 334.579 459.267 334.709C459.227 334.838 459.157 334.956 459.062 335.052V335.052C458.964 335.146 458.844 335.215 458.713 335.252C458.583 335.29 458.445 335.295 458.312 335.267Z" fill="white"/>
</svg>
