<svg width="870" height="700" viewBox="0 0 870 700" fill="none" xmlns="http://www.w3.org/2000/svg">
<path d="M459.456 83.0738C469.047 83.0738 476.823 75.2317 476.823 65.5579C476.823 55.8841 469.047 48.042 459.456 48.042C449.864 48.042 442.088 55.8841 442.088 65.5579C442.088 75.2317 449.864 83.0738 459.456 83.0738Z" fill="white"/>
<path d="M459.456 653.398C469.047 653.398 476.823 645.556 476.823 635.882C476.823 626.208 469.047 618.366 459.456 618.366C449.864 618.366 442.088 626.208 442.088 635.882C442.088 645.556 449.864 653.398 459.456 653.398Z" fill="white"/>
<path d="M744.128 368.043C753.72 368.043 761.496 360.201 761.496 350.527C761.496 340.853 753.72 333.011 744.128 333.011C734.536 333.011 726.761 340.853 726.761 350.527C726.761 360.201 734.536 368.043 744.128 368.043Z" fill="white"/>
<path d="M175.258 368.043C184.85 368.043 192.625 360.201 192.625 350.527C192.625 340.853 184.85 333.011 175.258 333.011C165.666 333.011 157.891 340.853 157.891 350.527C157.891 360.201 165.666 368.043 175.258 368.043Z" fill="white"/>
<path d="M113.607 316.505C117.149 316.505 120.691 316.468 124.233 316.505C131.116 316.579 135.816 321.257 135.86 328.148C135.905 335.655 135.935 343.169 135.86 350.676C135.828 353.015 135.059 355.285 133.663 357.163C132.268 359.041 130.317 360.431 128.086 361.138C125.863 361.867 123.469 361.889 121.232 361.201C118.996 360.514 117.027 359.151 115.597 357.299C114.141 355.316 113.313 352.941 113.221 350.483C112.664 343.265 108.276 339.13 101.029 339.078C93.9454 339.033 86.8618 339.078 79.7783 339.078C76.8793 339.189 74.0476 338.187 71.8631 336.278C70.6894 335.301 69.7422 334.081 69.087 332.701C68.4319 331.321 68.0844 329.816 68.0688 328.289C68.002 320.448 67.9574 312.6 68.0688 304.759C68.1582 301.95 69.2955 299.277 71.257 297.264C73.2184 295.252 75.862 294.047 78.6674 293.886C81.4728 293.725 84.2369 294.619 86.4158 296.394C88.5947 298.168 90.0305 300.694 90.4408 303.474C90.5447 304.142 90.6115 304.818 90.6635 305.486C91.213 312.169 95.72 316.409 102.469 316.52C106.182 316.579 109.895 316.52 113.607 316.52V316.505Z" fill="white"/>
<path d="M45.348 361.68C41.4721 361.68 37.5962 361.761 33.7203 361.68C31.1632 361.622 28.7022 360.695 26.7429 359.051C24.7837 357.407 23.4431 355.144 22.9423 352.636C22.4416 350.128 22.8105 347.524 23.9882 345.254C25.166 342.983 27.0823 341.182 29.4211 340.147C31.0514 339.472 32.7949 339.111 34.5593 339.085C41.7988 338.974 49.0457 338.981 56.2927 339.085C61.8244 339.145 66.079 342.315 67.5269 347.253C68.0168 348.893 68.1257 350.623 67.8455 352.311C67.5653 353.999 66.9033 355.601 65.9099 356.995C64.9166 358.389 63.6182 359.537 62.1136 360.353C60.6091 361.169 58.9382 361.63 57.2282 361.702C53.2706 361.851 49.3056 361.702 45.348 361.702V361.68Z" fill="white"/>
<path d="M56.6637 293.807C54.4207 293.801 52.23 293.129 50.3695 291.876C48.509 290.624 47.0624 288.846 46.2133 286.77C45.3642 284.694 45.1508 282.413 45.6002 280.215C46.0495 278.018 47.1414 276.003 48.7374 274.427C50.3333 272.851 52.3613 271.784 54.5643 271.363C56.7673 270.941 59.0459 271.183 61.1112 272.058C63.1765 272.933 64.9354 274.401 66.1648 276.277C67.3942 278.153 68.0388 280.352 68.0167 282.595C67.9739 285.58 66.7596 288.428 64.6357 290.525C62.5119 292.623 59.6487 293.802 56.6637 293.807V293.807Z" fill="white"/>
<path d="M45.326 305.36C45.2753 307.59 44.5643 309.754 43.283 311.58C42.0017 313.405 40.2076 314.81 38.1279 315.615C36.0481 316.42 33.7762 316.591 31.5996 316.104C29.423 315.618 27.4396 314.497 25.9005 312.883C24.3613 311.269 23.3356 309.234 22.9531 307.037C22.5706 304.84 22.8486 302.579 23.7518 300.539C24.655 298.5 26.1429 296.775 28.0271 295.582C29.9113 294.388 32.1072 293.781 34.3367 293.836C37.316 293.926 40.14 295.185 42.1969 297.342C44.2539 299.499 45.3781 302.38 45.326 305.36V305.36Z" fill="white"/>
<path d="M11.356 339.018C9.85697 339.031 8.37038 338.745 6.98349 338.176C5.5966 337.607 4.33735 336.766 3.27963 335.704C2.22192 334.642 1.38706 333.379 0.824044 331.989C0.261027 330.6 -0.0188017 329.112 0.000980166 327.613C0.020762 326.114 0.339756 324.634 0.939241 323.26C1.53873 321.886 2.40662 320.646 3.492 319.612C4.57738 318.578 5.85837 317.771 7.25979 317.239C8.66122 316.706 10.1548 316.459 11.653 316.512C14.5936 316.616 17.3768 317.867 19.4064 319.997C21.4361 322.128 22.5509 324.968 22.512 327.91C22.4732 330.852 21.2839 333.663 19.1987 335.739C17.1135 337.815 14.2984 338.992 11.356 339.018V339.018Z" fill="white"/>
<path d="M113.199 373.1C113.174 375.327 112.489 377.497 111.23 379.336C109.972 381.174 108.197 382.598 106.129 383.427C104.062 384.256 101.794 384.454 99.6145 383.995C97.4346 383.536 95.4398 382.441 93.8823 380.848C92.3248 379.255 91.2745 377.236 90.8644 375.046C90.4543 372.857 90.7027 370.595 91.5781 368.546C92.4536 366.498 93.9168 364.755 95.7828 363.538C97.6488 362.321 99.8337 361.685 102.061 361.71C105.047 361.749 107.895 362.969 109.983 365.104C112.07 367.239 113.227 370.114 113.199 373.1V373.1Z" fill="white"/>
<path d="M794.389 350.066C794.389 535.041 644.439 685 459.456 685" stroke="white" stroke-width="30" stroke-linecap="round" stroke-linejoin="round"/>
<path d="M124.656 349.933C124.656 164.988 274.614 15 459.589 15" stroke="white" stroke-width="30" stroke-linecap="round" stroke-linejoin="round"/>
<path d="M848.08 361.204C848.08 378.683 848.08 396.162 848.08 413.641C848.023 415.409 848.297 417.172 848.889 418.838C850.649 423.197 854.087 425.402 858.794 425.603C863.19 425.781 866.509 427.719 868.395 431.691C869.1 433.215 869.482 434.869 869.516 436.547C869.635 443.601 869.613 450.655 869.553 457.716C869.548 459.154 869.257 460.577 868.699 461.902C868.141 463.227 867.325 464.429 866.3 465.437C865.275 466.446 864.06 467.241 862.726 467.778C861.392 468.315 859.965 468.582 858.527 468.564C844.33 468.438 830.133 468.565 815.937 468.505C813.755 468.557 811.61 467.933 809.796 466.72C807.982 465.506 806.587 463.762 805.801 461.726C805.024 459.732 804.86 457.551 805.331 455.463C805.802 453.376 806.886 451.476 808.445 450.009C810.132 448.38 812.324 447.374 814.659 447.158C815.461 447.084 816.263 447.039 817.058 446.935C819.767 446.614 822.252 445.271 824.005 443.181C825.757 441.09 826.646 438.409 826.488 435.685C826.331 432.961 825.14 430.4 823.158 428.525C821.176 426.65 818.553 425.602 815.825 425.595C808.69 425.528 801.554 425.595 794.419 425.551C792.03 425.589 789.697 424.821 787.798 423.372C785.899 421.922 784.543 419.876 783.949 417.561C783.74 416.872 783.626 416.158 783.607 415.438C783.607 393.548 783.496 371.629 783.645 349.77C783.689 341.996 792.228 337.147 799.148 340.726C800.751 341.491 802.128 342.66 803.142 344.118C804.156 345.576 804.773 347.273 804.932 349.042C805.029 350.081 805.066 351.125 805.044 352.168C805.044 365.236 805.044 378.305 805.044 391.373C805.015 392.656 805.087 393.94 805.259 395.212C805.723 397.758 807.091 400.05 809.113 401.666C811.134 403.282 813.672 404.113 816.258 404.004C818.843 403.896 821.302 402.855 823.181 401.076C825.06 399.296 826.232 396.897 826.48 394.321C826.48 394.001 826.517 393.675 826.517 393.355C826.517 379.002 826.517 364.65 826.517 350.289C826.601 348.182 826.021 346.102 824.86 344.342C823.698 342.583 822.013 341.232 820.043 340.481C818.467 339.912 816.815 339.582 815.142 339.501C811.355 339.115 808.363 337.437 806.559 334.11C805.7 332.573 805.214 330.857 805.14 329.098C805.036 314.51 805.036 299.92 805.14 285.327C805.14 280.827 807.613 277.59 811.771 275.86C815.758 274.197 819.501 274.902 822.797 277.627C823.887 278.521 824.78 279.631 825.419 280.887C826.058 282.144 826.429 283.519 826.51 284.926C826.51 285.32 826.51 285.728 826.562 286.121C827.015 291.92 830.898 295.9 836.69 296.517C837.809 296.564 838.923 296.69 840.024 296.895C842.215 297.461 844.171 298.705 845.613 300.449C847.054 302.193 847.908 304.349 848.05 306.607C848.117 307.484 848.087 308.375 848.087 309.251C848.087 326.571 848.085 343.889 848.08 361.204Z" fill="white"/>
</svg>
