<svg width="351" height="31" viewBox="0 0 351 31" fill="none" xmlns="http://www.w3.org/2000/svg">
<path d="M12.9121 6C16.5751 6 19.5055 7.07528 21.7033 9.22581C23.9011 11.3764 25 14.3333 25 18.0968C25 22.0394 23.8095 25.1756 21.4286 27.5054C19.2308 29.8351 16.1172 31 12.0879 31C8.24176 31 5.21978 29.9247 3.02198 27.7742C1.00733 25.6236 0 22.5771 0 18.6344C0 14.871 1.0989 11.8244 3.2967 9.49463C5.67765 7.16488 8.88278 6 12.9121 6Z" fill="white"/>
<path d="M58.9121 6C62.5751 6 65.5055 7.07528 67.7033 9.22581C69.9011 11.3764 71 14.3333 71 18.0968C71 22.0394 69.8095 25.1756 67.4286 27.5054C65.2308 29.8351 62.1172 31 58.0879 31C54.2418 31 51.2198 29.9247 49.022 27.7742C47.0073 25.6236 46 22.5771 46 18.6344C46 14.871 47.0989 11.8244 49.2967 9.49463C51.6777 7.16488 54.8828 6 58.9121 6Z" fill="white"/>
<path d="M104.912 6C108.575 6 111.505 7.07528 113.703 9.22581C115.901 11.3764 117 14.3333 117 18.0968C117 22.0394 115.81 25.1756 113.429 27.5054C111.231 29.8351 108.117 31 104.088 31C100.242 31 97.2198 29.9247 95.022 27.7742C93.0073 25.6236 92 22.5771 92 18.6344C92 14.871 93.0989 11.8244 95.2967 9.49463C97.6777 7.16488 100.883 6 104.912 6Z" fill="white"/>
<path d="M246.912 6C250.575 6 253.505 7.07528 255.703 9.22581C257.901 11.3764 259 14.3333 259 18.0968C259 22.0394 257.81 25.1756 255.429 27.5054C253.231 29.8351 250.117 31 246.088 31C242.242 31 239.22 29.9247 237.022 27.7742C235.007 25.6236 234 22.5771 234 18.6344C234 14.871 235.099 11.8244 237.297 9.49463C239.678 7.16488 242.883 6 246.912 6Z" fill="white"/>
<path d="M129.912 6C133.575 6 136.505 7.07528 138.703 9.22581C140.901 11.3764 142 14.3333 142 18.0968C142 22.0394 140.81 25.1756 138.429 27.5054C136.231 29.8351 133.117 31 129.088 31C125.242 31 122.22 29.9247 120.022 27.7742C118.007 25.6236 117 22.5771 117 18.6344C117 14.871 118.099 11.8244 120.297 9.49463C122.678 7.16488 125.883 6 129.912 6Z" fill="white"/>
<path d="M175.912 6C179.575 6 182.505 7.07528 184.703 9.22581C186.901 11.3764 188 14.3333 188 18.0968C188 22.0394 186.81 25.1756 184.429 27.5054C182.231 29.8351 179.117 31 175.088 31C171.242 31 168.22 29.9247 166.022 27.7742C164.007 25.6236 163 22.5771 163 18.6344C163 14.871 164.099 11.8244 166.297 9.49463C168.678 7.16488 171.883 6 175.912 6Z" fill="white"/>
</svg>
