<svg width="271" height="17" viewBox="0 0 271 17" fill="none" xmlns="http://www.w3.org/2000/svg">
<path d="M0.848636 4.28019C0.586254 4.05975 0.374588 3.78522 0.228119 3.4754C0.0816506 3.16558 0.00383629 2.82778 0 2.4851C0.0347995 1.88088 0.290767 1.3106 0.719093 0.883004C0.938312 0.615982 1.21218 0.399015 1.52228 0.246704C1.83237 0.0943921 2.1715 0.0102706 2.51683 0C3.12105 0.0347995 3.69133 0.290767 4.11892 0.719093C4.70583 1.2637 4.99929 1.85237 4.99929 2.4851C5.00463 2.81684 4.94405 3.14634 4.82106 3.45449C4.69808 3.76264 4.51513 4.0433 4.28284 4.28019C4.0533 4.51446 3.77814 4.69914 3.47438 4.82283C3.17062 4.94652 2.84472 5.00657 2.51683 4.99929C1.89063 4.97562 1.29579 4.71921 0.848636 4.28019Z" fill="white"/>
<path d="M23.9507 4.28019C23.6907 4.0585 23.4815 3.78343 23.3374 3.47367C23.1932 3.16392 23.1174 2.82675 23.1152 2.4851C23.1488 1.88112 23.4039 1.31072 23.8317 0.883004C24.0494 0.617627 24.3212 0.401637 24.6289 0.249392C24.9366 0.0971469 25.2731 0.0121327 25.6162 0C26.2204 0.0347995 26.7907 0.290767 27.2183 0.719093C27.8087 1.2637 28.1031 1.85237 28.1013 2.4851C28.1062 2.81701 28.0451 3.14658 27.9217 3.45471C27.7982 3.76285 27.6149 4.04343 27.3822 4.28019C27.1529 4.51471 26.8777 4.69957 26.5739 4.82327C26.2701 4.94697 25.9441 5.00689 25.6162 4.99929C24.9908 4.97573 24.3967 4.71925 23.9507 4.28019Z" fill="white"/>
<path d="M40.6853 4.28019C40.4224 4.06 40.2102 3.78558 40.0633 3.47575C39.9164 3.16592 39.8381 2.82798 39.834 2.4851C39.8716 1.87944 40.1314 1.30896 40.5637 0.883004C40.7817 0.617299 41.0539 0.401115 41.362 0.248856C41.6702 0.0965978 42.0073 0.0117615 42.3508 0C42.955 0.0347995 43.5253 0.290767 43.9529 0.719093C44.5292 1.2637 44.8359 1.85061 44.8359 2.4851C44.8408 2.81701 44.7797 3.14658 44.6563 3.45471C44.5328 3.76285 44.3495 4.04343 44.1168 4.28019C43.8873 4.51446 43.6121 4.69914 43.3084 4.82283C43.0046 4.94652 42.6787 5.00657 42.3508 4.99929C41.7254 4.97573 41.1313 4.71925 40.6853 4.28019Z" fill="white"/>
<path d="M65.7852 4.28019C65.5228 4.05975 65.3111 3.78522 65.1646 3.4754C65.0182 3.16558 64.9404 2.82778 64.9365 2.4851C64.9701 1.88058 65.2262 1.30988 65.6556 0.883004C65.8746 0.615721 66.1484 0.398571 66.4586 0.246235C66.7687 0.0938986 67.108 0.00992806 67.4533 0C68.0575 0.0352876 68.6276 0.291181 69.0554 0.719093C69.6424 1.2637 69.9358 1.85237 69.9358 2.4851C69.9412 2.81709 69.8805 3.14682 69.757 3.45504C69.6335 3.76326 69.4498 4.04378 69.2167 4.28019C68.9882 4.51502 68.7135 4.70011 68.4101 4.82385C68.1067 4.94759 67.7809 5.00732 67.4533 4.99929C66.827 4.97613 66.232 4.71964 65.7852 4.28019Z" fill="white"/>
<path d="M74.1523 4.28019C73.89 4.05975 73.6783 3.78522 73.5318 3.4754C73.3854 3.16558 73.3075 2.82778 73.3037 2.4851C73.3373 1.88058 73.5934 1.30988 74.0228 0.883004C74.2418 0.615721 74.5156 0.398571 74.8258 0.246235C75.1359 0.0938986 75.4751 0.00992806 75.8205 0C76.4238 0.0354367 76.9931 0.291357 77.42 0.719093C78.0087 1.2637 78.303 1.85237 78.303 2.4851C78.3068 2.81756 78.2445 3.14746 78.1197 3.45563C77.9949 3.76379 77.8101 4.04408 77.576 4.28019C77.3474 4.51502 77.0728 4.70011 76.7694 4.82385C76.4659 4.94759 76.1402 5.00732 75.8126 4.99929C75.1891 4.97417 74.5972 4.71783 74.1523 4.28019Z" fill="white"/>
<path d="M99.2546 4.28019C98.9917 4.06 98.7796 3.78558 98.6326 3.47575C98.4857 3.16592 98.4075 2.82798 98.4033 2.4851C98.4381 1.88088 98.6941 1.3106 99.1224 0.883004C99.3416 0.615982 99.6155 0.399015 99.9256 0.246704C100.236 0.0943921 100.575 0.0102706 100.92 0C101.524 0.0347995 102.095 0.290767 102.522 0.719093C103.109 1.2637 103.405 1.85061 103.405 2.4851C103.411 2.81664 103.351 3.14599 103.228 3.4541C103.106 3.76222 102.923 4.04299 102.691 4.28019C102.462 4.51446 102.187 4.69914 101.883 4.82283C101.579 4.94652 101.253 5.00657 100.925 4.99929C100.298 4.97729 99.7018 4.72068 99.2546 4.28019Z" fill="white"/>
<path d="M115.987 4.28019C115.725 4.05975 115.513 3.78522 115.367 3.4754C115.22 3.16558 115.143 2.82778 115.139 2.4851C115.173 1.88088 115.429 1.3106 115.858 0.883004C116.077 0.615982 116.351 0.399015 116.661 0.246704C116.971 0.0943921 117.31 0.0102706 117.656 0C118.26 0.0347995 118.83 0.290767 119.258 0.719093C119.846 1.2637 120.141 1.85237 120.141 2.4851C120.146 2.81709 120.085 3.14682 119.962 3.45504C119.838 3.76326 119.655 4.04378 119.422 4.28019C119.193 4.51502 118.918 4.70011 118.615 4.82385C118.311 4.94759 117.986 5.00732 117.658 4.99929C117.031 4.97678 116.435 4.72024 115.987 4.28019Z" fill="white"/>
<path d="M157.824 4.28019C157.561 4.06 157.349 3.78558 157.202 3.47575C157.055 3.16592 156.977 2.82798 156.973 2.4851C157.005 1.88231 157.257 1.31222 157.681 0.883004C157.902 0.614657 158.177 0.396901 158.489 0.244536C158.801 0.0921715 159.142 0.00876982 159.489 0C160.094 0.0347995 160.664 0.290767 161.092 0.719093C161.678 1.2637 161.975 1.85325 161.975 2.4851C161.979 2.81701 161.918 3.14658 161.795 3.45471C161.672 3.76285 161.488 4.04343 161.255 4.28019C161.026 4.51446 160.751 4.69914 160.447 4.82283C160.143 4.94652 159.817 5.00657 159.489 4.99929C158.864 4.97598 158.27 4.71946 157.824 4.28019Z" fill="white"/>
<path d="M174.556 4.28019C174.294 4.05975 174.082 3.78522 173.936 3.4754C173.789 3.16558 173.711 2.82778 173.708 2.4851C173.741 1.88058 173.997 1.30988 174.427 0.883004C174.646 0.615982 174.92 0.399015 175.23 0.246704C175.54 0.0943921 175.879 0.0102706 176.224 0C176.828 0.0352876 177.399 0.291181 177.826 0.719093C178.413 1.2637 178.707 1.85237 178.707 2.4851C178.712 2.81701 178.651 3.14658 178.527 3.45471C178.404 3.76285 178.22 4.04343 177.988 4.28019C177.759 4.51502 177.485 4.70011 177.181 4.82385C176.878 4.94759 176.552 5.00732 176.224 4.99929C175.598 4.97613 175.003 4.71964 174.556 4.28019Z" fill="white"/>
<path d="M182.923 4.28019C182.661 4.05975 182.449 3.78522 182.303 3.4754C182.156 3.16558 182.079 2.82778 182.075 2.4851C182.109 1.88022 182.366 1.30947 182.796 0.883004C183.015 0.61579 183.288 0.398653 183.598 0.246306C183.908 0.0939583 184.247 0.00995942 184.592 0C185.195 0.0354367 185.764 0.291357 186.191 0.719093C186.781 1.2637 187.076 1.85237 187.074 2.4851C187.079 2.81701 187.018 3.14658 186.894 3.45471C186.771 3.76285 186.588 4.04343 186.355 4.28019C186.126 4.51502 185.852 4.70011 185.548 4.82385C185.245 4.94759 184.919 5.00732 184.592 4.99929C183.965 4.97613 183.37 4.71964 182.923 4.28019Z" fill="white"/>
<path d="M199.658 4.28019C199.395 4.06 199.183 3.78558 199.036 3.47575C198.889 3.16592 198.811 2.82798 198.807 2.4851C198.841 1.88088 199.097 1.3106 199.526 0.883004C199.745 0.615982 200.019 0.399015 200.329 0.246704C200.639 0.0943921 200.978 0.0102706 201.323 0C201.928 0.0347995 202.498 0.290767 202.926 0.719093C203.516 1.2637 203.81 1.85237 203.809 2.4851C203.813 2.81701 203.752 3.14658 203.629 3.45471C203.505 3.76285 203.322 4.04343 203.089 4.28019C202.86 4.51446 202.585 4.69914 202.281 4.82283C201.977 4.94652 201.651 5.00657 201.323 4.99929C200.698 4.97573 200.104 4.71925 199.658 4.28019Z" fill="white"/>
<path d="M208.026 4.28019C207.763 4.06 207.551 3.78558 207.404 3.47575C207.257 3.16592 207.178 2.82798 207.174 2.4851C207.209 1.88088 207.465 1.3106 207.893 0.883004C208.113 0.615982 208.386 0.399015 208.697 0.246704C209.007 0.0943921 209.346 0.0102706 209.691 0C210.295 0.0347995 210.866 0.290767 211.293 0.719093C211.877 1.2637 212.176 1.85061 212.176 2.4851C212.181 2.81701 212.12 3.14658 211.997 3.45471C211.873 3.76285 211.69 4.04343 211.457 4.28019C211.228 4.51446 210.952 4.69914 210.649 4.82283C210.345 4.94652 210.019 5.00657 209.691 4.99929C209.066 4.97573 208.472 4.71925 208.026 4.28019Z" fill="white"/>
<path d="M224.758 4.28019C224.495 4.05975 224.284 3.78522 224.137 3.4754C223.991 3.16558 223.913 2.82778 223.909 2.4851C223.943 1.88058 224.199 1.30988 224.628 0.883004C224.847 0.616971 225.119 0.400591 225.428 0.248319C225.737 0.0960478 226.074 0.0113897 226.418 0C227.022 0.0352876 227.592 0.291181 228.02 0.719093C228.607 1.2637 228.901 1.85237 228.901 2.4851C228.905 2.81701 228.844 3.14658 228.721 3.45471C228.597 3.76285 228.414 4.04343 228.181 4.28019C227.953 4.51502 227.678 4.70011 227.375 4.82385C227.071 4.94759 226.746 5.00732 226.418 4.99929C225.795 4.97417 225.203 4.71783 224.758 4.28019Z" fill="white"/>
<path d="M249.86 4.28019C249.597 4.06 249.385 3.78558 249.238 3.47575C249.091 3.16592 249.013 2.82798 249.009 2.4851C249.044 1.88088 249.3 1.3106 249.728 0.883004C249.948 0.614989 250.223 0.397431 250.535 0.245079C250.846 0.092728 251.187 0.00914593 251.534 0C252.132 0.0386055 252.696 0.294288 253.12 0.719093C253.71 1.2637 254.005 1.85237 254.003 2.4851C254.008 2.81701 253.947 3.14658 253.823 3.45471C253.7 3.76285 253.516 4.04343 253.284 4.28019C253.056 4.51249 252.783 4.69604 252.483 4.81966C252.182 4.94329 251.859 5.0044 251.534 4.99929C250.905 4.97769 250.308 4.72106 249.86 4.28019Z" fill="white"/>
<path d="M266.603 4.28019C266.34 4.05975 266.129 3.78522 265.982 3.4754C265.836 3.16558 265.758 2.82778 265.754 2.4851C265.789 1.88088 266.045 1.3106 266.473 0.883004C266.692 0.615982 266.966 0.399015 267.276 0.246704C267.586 0.0943921 267.925 0.0102706 268.271 0C268.875 0.0347995 269.445 0.290767 269.873 0.719093C270.46 1.2637 270.756 1.85325 270.756 2.4851C270.761 2.81701 270.7 3.14658 270.576 3.45471C270.453 3.76285 270.269 4.04343 270.037 4.28019C269.807 4.51446 269.532 4.69914 269.228 4.82283C268.925 4.94652 268.599 5.00657 268.271 4.99929C267.645 4.97562 267.05 4.71921 266.603 4.28019Z" fill="white"/>
<path d="M269.908 16.2802C270.17 16.0597 270.382 15.7852 270.528 15.4754C270.675 15.1656 270.753 14.8278 270.756 14.4851C270.722 13.8809 270.466 13.3106 270.037 12.883C269.818 12.616 269.544 12.399 269.234 12.2467C268.924 12.0944 268.585 12.0103 268.24 12C267.635 12.0348 267.065 12.2908 266.637 12.7191C266.051 13.2637 265.757 13.8524 265.757 14.4851C265.752 14.8168 265.812 15.1463 265.935 15.4545C266.058 15.7626 266.241 16.0433 266.474 16.2802C266.703 16.5145 266.978 16.6991 267.282 16.8228C267.586 16.9465 267.912 17.0066 268.24 16.9993C268.866 16.9756 269.461 16.7192 269.908 16.2802Z" fill="white"/>
<path d="M244.806 16.2802C245.066 16.0585 245.275 15.7834 245.419 15.4737C245.563 15.1639 245.639 14.8268 245.641 14.4851C245.608 13.8811 245.352 13.3107 244.925 12.883C244.707 12.6176 244.435 12.4016 244.127 12.2494C243.82 12.0971 243.483 12.0121 243.14 12C242.536 12.0348 241.966 12.2908 241.538 12.7191C240.948 13.2637 240.653 13.8524 240.655 14.4851C240.65 14.817 240.711 15.1466 240.835 15.4547C240.958 15.7628 241.141 16.0434 241.374 16.2802C241.603 16.5147 241.879 16.6996 242.182 16.8233C242.486 16.947 242.812 17.0069 243.14 16.9993C243.766 16.9757 244.36 16.7192 244.806 16.2802Z" fill="white"/>
<path d="M228.071 16.2802C228.333 16.06 228.546 15.7856 228.693 15.4757C228.839 15.1659 228.918 14.828 228.922 14.4851C228.884 13.8794 228.624 13.309 228.192 12.883C227.974 12.6173 227.702 12.4011 227.394 12.2489C227.086 12.0966 226.749 12.0118 226.405 12C225.801 12.0348 225.231 12.2908 224.803 12.7191C224.227 13.2637 223.92 13.8506 223.92 14.4851C223.915 14.817 223.976 15.1466 224.1 15.4547C224.223 15.7628 224.406 16.0434 224.639 16.2802C224.869 16.5145 225.144 16.6991 225.447 16.8228C225.751 16.9465 226.077 17.0066 226.405 16.9993C227.03 16.9757 227.625 16.7192 228.071 16.2802Z" fill="white"/>
<path d="M202.971 16.2802C203.234 16.0597 203.445 15.7852 203.592 15.4754C203.738 15.1656 203.816 14.8278 203.82 14.4851C203.786 13.8806 203.53 13.3099 203.101 12.883C202.882 12.6157 202.608 12.3986 202.298 12.2462C201.988 12.0939 201.648 12.0099 201.303 12C200.699 12.0353 200.129 12.2912 199.701 12.7191C199.114 13.2637 198.821 13.8524 198.821 14.4851C198.815 14.8171 198.876 15.1468 198.999 15.455C199.123 15.7633 199.306 16.0438 199.54 16.2802C199.768 16.515 200.043 16.7001 200.346 16.8238C200.65 16.9476 200.975 17.0073 201.303 16.9993C201.929 16.9761 202.524 16.7196 202.971 16.2802Z" fill="white"/>
<path d="M194.604 16.2802C194.866 16.0597 195.078 15.7852 195.225 15.4754C195.371 15.1656 195.449 14.8278 195.453 14.4851C195.419 13.8806 195.163 13.3099 194.734 12.883C194.515 12.6157 194.241 12.3986 193.931 12.2462C193.62 12.0939 193.281 12.0099 192.936 12C192.333 12.0354 191.763 12.2914 191.336 12.7191C190.748 13.2637 190.453 13.8524 190.453 14.4851C190.45 14.8176 190.512 15.1475 190.637 15.4556C190.761 15.7638 190.946 16.0441 191.18 16.2802C191.409 16.515 191.684 16.7001 191.987 16.8238C192.29 16.9476 192.616 17.0073 192.944 16.9993C193.567 16.9742 194.159 16.7178 194.604 16.2802Z" fill="white"/>
<path d="M169.502 16.2802C169.765 16.06 169.977 15.7856 170.124 15.4757C170.271 15.1659 170.349 14.828 170.353 14.4851C170.318 13.8809 170.062 13.3106 169.634 12.883C169.415 12.616 169.141 12.399 168.831 12.2467C168.521 12.0944 168.182 12.0103 167.836 12C167.232 12.0348 166.662 12.2908 166.234 12.7191C165.647 13.2637 165.351 13.8506 165.351 14.4851C165.346 14.8166 165.406 15.146 165.528 15.4541C165.651 15.7622 165.833 16.043 166.065 16.2802C166.294 16.5145 166.57 16.6991 166.873 16.8228C167.177 16.9465 167.503 17.0066 167.831 16.9993C168.458 16.9773 169.055 16.7207 169.502 16.2802Z" fill="white"/>
<path d="M152.77 16.2802C153.032 16.0597 153.244 15.7852 153.39 15.4754C153.537 15.1656 153.614 14.8278 153.618 14.4851C153.583 13.8809 153.327 13.3106 152.899 12.883C152.68 12.616 152.406 12.399 152.096 12.2467C151.786 12.0944 151.447 12.0103 151.101 12C150.497 12.0348 149.927 12.2908 149.499 12.7191C148.911 13.2637 148.616 13.8524 148.616 14.4851C148.611 14.8171 148.672 15.1468 148.795 15.455C148.919 15.7633 149.102 16.0438 149.335 16.2802C149.564 16.515 149.838 16.7001 150.142 16.8238C150.445 16.9476 150.771 17.0073 151.099 16.9993C151.726 16.9768 152.322 16.7202 152.77 16.2802Z" fill="white"/>
<path d="M110.933 16.2802C111.196 16.06 111.408 15.7856 111.555 15.4757C111.702 15.1659 111.78 14.828 111.784 14.4851C111.752 13.8823 111.5 13.3122 111.076 12.883C110.855 12.6147 110.58 12.3969 110.268 12.2445C109.956 12.0922 109.614 12.0088 109.267 12C108.663 12.0348 108.093 12.2908 107.665 12.7191C107.078 13.2637 106.782 13.8533 106.782 14.4851C106.777 14.817 106.838 15.1466 106.962 15.4547C107.085 15.7628 107.269 16.0434 107.501 16.2802C107.731 16.5145 108.006 16.6991 108.31 16.8228C108.614 16.9465 108.939 17.0066 109.267 16.9993C109.893 16.976 110.487 16.7195 110.933 16.2802Z" fill="white"/>
<path d="M94.2002 16.2802C94.4626 16.0597 94.6742 15.7852 94.8207 15.4754C94.9672 15.1656 95.045 14.8278 95.0488 14.4851C95.0153 13.8806 94.7591 13.3099 94.3297 12.883C94.1105 12.616 93.8366 12.399 93.5265 12.2467C93.2164 12.0944 92.8773 12.0103 92.532 12C91.9279 12.0353 91.3578 12.2912 90.9299 12.7191C90.343 13.2637 90.0495 13.8524 90.0495 14.4851C90.0447 14.817 90.1058 15.1466 90.2292 15.4547C90.3526 15.7628 90.536 16.0434 90.7686 16.2802C90.9972 16.515 91.2718 16.7001 91.5752 16.8238C91.8787 16.9476 92.2044 17.0073 92.532 16.9993C93.1583 16.9761 93.7533 16.7196 94.2002 16.2802Z" fill="white"/>
<path d="M85.833 16.2802C86.0954 16.0597 86.3071 15.7852 86.4535 15.4754C86.6 15.1656 86.6778 14.8278 86.6816 14.4851C86.6474 13.8802 86.3902 13.3095 85.9599 12.883C85.7414 12.6158 85.4681 12.3987 85.1584 12.2463C84.8487 12.094 84.5098 12.01 84.1648 12C83.5615 12.0354 82.9923 12.2914 82.5654 12.7191C81.9749 13.2637 81.6806 13.8524 81.6824 14.4851C81.6775 14.817 81.7386 15.1466 81.862 15.4547C81.9854 15.7628 82.1688 16.0434 82.4014 16.2802C82.63 16.515 82.9046 16.7001 83.2081 16.8238C83.5115 16.9476 83.8372 17.0073 84.1648 16.9993C84.7911 16.9761 85.3862 16.7196 85.833 16.2802Z" fill="white"/>
<path d="M69.0979 16.2802C69.3608 16.06 69.573 15.7856 69.7199 15.4757C69.8668 15.1659 69.9451 14.828 69.9492 14.4851C69.9144 13.8809 69.6584 13.3106 69.2301 12.883C69.0109 12.616 68.737 12.399 68.4269 12.2467C68.1169 12.0944 67.7777 12.0103 67.4324 12C66.8282 12.0348 66.2579 12.2908 65.8303 12.7191C65.2399 13.2637 64.9455 13.8524 64.9473 14.4851C64.9424 14.817 65.0035 15.1466 65.1269 15.4547C65.2504 15.7628 65.4337 16.0434 65.6664 16.2802C65.8959 16.5145 66.1711 16.6991 66.4748 16.8228C66.7786 16.9465 67.1045 17.0066 67.4324 16.9993C68.0578 16.9757 68.6519 16.7192 69.0979 16.2802Z" fill="white"/>
<path d="M60.7308 16.2802C60.9936 16.06 61.2058 15.7856 61.3527 15.4757C61.4997 15.1659 61.5779 14.828 61.582 14.4851C61.5472 13.8809 61.2913 13.3106 60.8629 12.883C60.6437 12.616 60.3699 12.399 60.0598 12.2467C59.7497 12.0944 59.4105 12.0103 59.0652 12C58.461 12.0348 57.8907 12.2908 57.4631 12.7191C56.8789 13.2637 56.5801 13.8506 56.5801 14.4851C56.5753 14.817 56.6363 15.1466 56.7598 15.4547C56.8832 15.7628 57.0666 16.0434 57.2992 16.2802C57.5287 16.5145 57.8039 16.6991 58.1077 16.8228C58.4114 16.9465 58.7373 17.0066 59.0652 16.9993C59.6907 16.9757 60.2847 16.7192 60.7308 16.2802Z" fill="white"/>
<path d="M43.999 16.2802C44.2614 16.0597 44.4731 15.7852 44.6195 15.4754C44.766 15.1656 44.8438 14.8278 44.8477 14.4851C44.8141 13.8806 44.5579 13.3099 44.1286 12.883C43.9102 12.617 43.6376 12.4006 43.329 12.2483C43.0203 12.096 42.6827 12.0114 42.3388 12C41.7347 12.0353 41.1645 12.2912 40.7367 12.7191C40.1498 13.2637 39.8563 13.8524 39.8563 14.4851C39.8515 14.817 39.9125 15.1466 40.036 15.4547C40.1594 15.7628 40.3428 16.0434 40.5754 16.2802C40.804 16.515 41.0786 16.7001 41.382 16.8238C41.6854 16.9476 42.0112 17.0073 42.3388 16.9993C42.9623 16.9742 43.5542 16.7178 43.999 16.2802Z" fill="white"/>
<path d="M18.8968 16.2802C19.1596 16.06 19.3718 15.7856 19.5187 15.4757C19.6657 15.1659 19.7439 14.828 19.748 14.4851C19.7132 13.8809 19.4573 13.3106 19.029 12.883C18.8089 12.615 18.5337 12.3974 18.2222 12.2451C17.9106 12.0927 17.57 12.0091 17.2233 12C16.6246 12.0386 16.0606 12.2943 15.6371 12.7191C15.0466 13.2637 14.7523 13.8524 14.754 14.4851C14.7492 14.817 14.8103 15.1466 14.9337 15.4547C15.0571 15.7628 15.2405 16.0434 15.4731 16.2802C15.7008 16.5125 15.9734 16.696 16.2743 16.8197C16.5752 16.9433 16.8981 17.0044 17.2233 16.9993C17.8515 16.9777 18.4487 16.7211 18.8968 16.2802Z" fill="white"/>
<path d="M4.15331 16.2802C4.41569 16.0597 4.62735 15.7852 4.77382 15.4754C4.92029 15.1656 4.99812 14.8278 5.00195 14.4851C4.96715 13.8809 4.71118 13.3106 4.28285 12.883C4.06363 12.616 3.78976 12.399 3.47966 12.2467C3.16957 12.0944 2.83045 12.0103 2.48512 12C1.8809 12.0348 1.31062 12.2908 0.883024 12.7191C0.296116 13.2637 2.81334e-05 13.8533 2.81334e-05 14.4851C-0.00482035 14.817 0.0562186 15.1466 0.179655 15.4547C0.303091 15.7628 0.486463 16.0434 0.719114 16.2802C0.948652 16.5145 1.2238 16.6991 1.52756 16.8228C1.83132 16.9465 2.15723 17.0066 2.48512 16.9993C3.11131 16.9756 3.70616 16.7192 4.15331 16.2802Z" fill="white"/>
</svg>
