<svg width="216" height="41" viewBox="0 0 216 41" fill="none" xmlns="http://www.w3.org/2000/svg">
<path d="M215.222 27.0166C214.495 29.1369 213.51 30.959 212.266 32.483C211.075 33.9628 209.643 35.2312 208.03 36.2346C206.465 37.202 204.76 37.9204 202.975 38.3641C201.208 38.8065 199.393 39.0306 197.571 39.0315C194.616 39.0315 191.947 38.5441 189.562 37.5693C187.177 36.5946 185.143 35.2815 183.458 33.63C181.82 32.0343 180.518 30.1263 179.63 28.0191C178.742 25.9118 178.285 23.6479 178.288 21.3614C178.288 19.0318 178.742 16.6482 179.648 14.2104C180.546 11.7875 181.877 9.54746 183.576 7.59937C185.286 5.62895 187.412 4.00689 189.953 2.73318C192.494 1.45947 195.396 0.823777 198.661 0.826094C200.656 0.829203 202.643 1.08577 204.574 1.58962C206.543 2.09787 208.163 2.82896 209.434 3.78289C210.705 4.73681 211.456 5.89157 211.689 7.24715C211.921 8.60428 211.338 10.1298 209.939 11.8237L202.634 20.6593L203.257 21.0417L215.61 6.10244V5.46636C214.271 4.36034 212.794 3.43122 211.217 2.7019C209.726 2.0163 208.178 1.46305 206.591 1.04855C205.047 0.648384 203.474 0.37214 201.886 0.222455C200.305 0.0741515 198.737 0 197.182 0C193.549 0 190.284 0.519061 187.386 1.55718C184.488 2.5953 181.999 4.02426 179.921 5.84407C177.875 7.62223 176.239 9.82166 175.124 12.2914C174.009 14.7611 173.442 17.4426 173.462 20.1518C173.44 22.8899 174.011 25.6003 175.134 28.0976C176.121 30.278 177.518 32.2489 179.248 33.9035L179.259 33.9127C179.472 34.1178 179.691 34.3206 179.916 34.5187C180.092 34.6728 180.273 34.8246 180.455 34.974C182.195 36.6424 184.684 39.6838 179.936 39.773L179.386 39.7835C178.838 39.7365 178.294 39.6553 177.756 39.5401C177.139 39.4059 176.547 39.1711 176.006 38.845C175.391 38.4693 174.839 37.9971 174.374 37.4465C173.854 36.8533 173.388 36.0693 172.974 35.0945L157.894 1.27448C156.688 -1.42858 155.017 1.96965 155.017 1.96965L150.263 12.5131C147.42 18.0976 143.313 19.4961 141.656 19.839C141.424 19.8726 141.178 19.9097 140.936 19.9479H140.922L140.666 19.9885C138.772 20.3075 136.815 20.6574 134.795 21.0382C133.295 21.3209 131.773 21.5862 130.23 21.8341C126.18 22.5177 125.72 18.6248 125.678 17.3155V6.5404C125.678 4.67657 126.093 3.43723 126.923 2.82239C127.758 2.20594 128.762 1.86164 129.8 1.83641L130.81 1.77268V1.27448H97.2885C95.8288 0.976299 94.3491 0.785772 92.8615 0.704439H92.8394C92.1437 0.663502 91.4299 0.642647 90.6978 0.641874C89.6094 0.641874 88.5852 0.673543 87.6251 0.736881L84.3182 0.953542C83.0729 1.03928 81.5969 1.11343 79.8901 1.176C78.1833 1.23856 76.0575 1.27139 73.5128 1.27448V1.78311L74.5239 1.84684C75.5614 1.87229 76.5659 2.21657 77.4006 2.83282C78.2293 3.44689 78.644 4.68622 78.6448 6.55082V12.9429C78.5682 13.9382 78.1809 14.9601 76.5681 12.1551C75.6234 10.3769 74.3904 8.76738 72.9191 7.39198C70.9704 5.55364 68.5528 4.06366 65.6664 2.92203C62.78 1.78041 59.4128 1.21114 55.5648 1.21423C51.7175 1.21423 48.3507 1.7835 45.4643 2.92203C42.5779 4.06057 40.1603 5.55055 38.2116 7.39198C36.3177 9.15328 34.828 11.3035 33.8449 13.6949C32.895 15.9884 32.4046 18.4459 32.4013 20.9281C32.4009 22.1129 32.5139 23.2951 32.7387 24.4584C32.901 25.9704 32.9115 29.0929 31.0991 32.8584C30.5567 33.8514 29.9057 34.7813 29.1581 35.631C28.2648 36.6386 27.1983 37.4783 26.0089 38.1104C24.8151 38.7358 23.5288 39.1661 22.1988 39.3849C20.7471 39.6241 19.2778 39.7404 17.8066 39.7325H11.827C6.98487 39.7406 8.01799 37.0758 8.94676 35.6147L34.2901 1.27448H3.18749C2.41641 1.27448 2.79905 1.91056 2.79905 1.91056L11.3261 19.174C11.9058 20.7532 12.3314 23.681 9.78856 27.1209L0 40.3662H28.3813L28.9251 39.9213L31.9294 33.184L32.0743 32.8584C32.5045 31.9894 33.8889 29.8321 36.1755 32.2339C36.4201 32.556 36.6787 32.8711 36.9477 33.1805C37.3303 33.6208 37.7377 34.0479 38.1698 34.4619C40.0931 36.3041 42.5106 37.7941 45.4225 38.9319C48.3344 40.0696 51.714 40.6389 55.5613 40.6397C57.0286 40.6436 58.4946 40.5518 59.95 40.3651C63.8552 40.3651 77.0794 40.4022 78.3653 40.4601C79.79 40.5226 81.1508 40.5964 82.4479 40.6814C83.745 40.7663 85.0669 40.8405 86.4135 40.9038C87.7608 40.9672 89.2902 40.9992 91.0016 41C91.906 41 92.7846 40.9687 93.6372 40.9062H93.6441C96.5043 40.6999 99.0706 40.1488 101.343 39.2528C104.297 38.0872 106.759 36.5613 108.729 34.6751C110.468 33.0327 111.867 31.0642 112.844 28.882C113.045 28.4585 113.219 28.0232 113.366 27.5786C113.378 27.5473 113.388 27.5172 113.399 27.4859C113.409 27.4546 113.424 27.4152 113.436 27.3793C115.059 22.819 117.414 22.8549 117.863 22.907L117.937 22.9175C118.385 22.9792 118.835 23.031 119.287 23.0727C119.287 23.0727 120.989 23.0183 120.993 25.4629C120.993 25.6703 121.004 25.8592 121.02 26.0341V35.0853C121.02 36.0183 120.917 36.7811 120.709 37.3735C120.534 37.9171 120.226 38.4087 119.814 38.8044C119.443 39.1552 118.988 39.4067 118.494 39.5355C117.971 39.6671 117.437 39.752 116.899 39.7892L115.888 39.853V40.3616H150.736V39.8564L145.759 39.7927C142.96 39.7927 141.379 39.1891 141.016 37.9818C140.653 36.7745 141.171 34.6237 142.571 31.5295L145.249 25.6564L145.698 24.6739C146.57 23.0322 148.764 20.0394 152.694 21.4437C152.773 21.4738 152.853 21.5028 152.926 21.5341C152.944 21.541 152.962 21.5468 152.98 21.5549C153.534 21.7712 154.08 22.013 154.618 22.2802C156.738 23.3239 158.733 24.6034 160.566 26.0944C162.261 27.4596 163.803 29.0051 165.164 30.7034C166.433 32.3154 167.353 33.7563 167.924 35.0262L170.413 40.3662H197.211C199.277 40.3628 201.333 40.085 203.325 39.5401C205.308 39.0064 207.196 38.17 208.924 37.0607C210.641 35.9525 212.143 34.5416 213.355 32.8966C214.6 31.2236 215.481 29.2636 216 27.0166H215.222ZM6.22076 6.38862C6.01359 5.43469 6.12954 4.62945 6.56861 3.9729C7.00768 3.31635 7.85064 2.80772 9.0975 2.447C10.342 2.08783 12.0786 1.90786 14.3072 1.90708H18.0489C20.1975 1.96154 27.6728 2.71812 21.808 10.8447L19.2409 14.3356C14.5889 20.6744 11.1777 16.6945 9.71783 14.1977L7.38722 9.53542C6.86985 8.53864 6.47805 7.48166 6.22076 6.38862ZM61.8307 38.1579C59.4762 39.2354 56.8561 39.7738 53.9704 39.773C50.5777 39.773 47.7041 39.2347 45.3495 38.1579C42.9949 37.0812 41.1347 35.6522 39.7688 33.871C38.4007 32.0921 37.4644 30.0202 37.0335 27.8184C36.5773 25.5379 36.5134 23.1964 36.8445 20.8945C37.1865 18.49 37.9041 16.154 38.971 13.9718C40.0463 11.7344 41.4828 9.68914 43.223 7.91799C44.9827 6.12883 47.0547 4.67601 49.337 3.63111C51.6653 2.55591 54.2224 2.01793 57.0083 2.01715C60.3995 2.01715 63.2728 2.55514 65.6281 3.63111C67.9835 4.70708 69.8568 6.13604 71.2482 7.91799C72.6384 9.69829 73.6104 11.768 74.0925 13.9741C74.5989 16.2467 74.6893 18.5921 74.3592 20.8968C74.0168 23.3011 73.3009 25.6372 72.2373 27.8207C71.1613 30.0579 69.724 32.1028 67.9831 33.8733C66.2152 35.6695 64.1291 37.1223 61.8307 38.1579ZM78.6436 35.0899C78.6436 36.023 78.5276 36.7857 78.2957 37.3782C78.0994 37.9139 77.7934 38.4029 77.3971 38.8137C77.043 39.1685 76.5995 39.4211 76.1135 39.5448C75.5911 39.6764 75.0579 39.7613 74.5204 39.7985L70.6743 39.8147L70.7485 39.7777C70.7485 39.7777 65.9122 40.0279 69.662 36.997C70.8471 36.2756 71.9518 35.4301 72.9574 34.4747C74.4152 33.0915 75.6368 31.4795 76.5739 29.7023C76.5739 29.7023 78.6413 25.7201 78.6413 29.963L78.6436 35.0899ZM83.3071 5.97499C83.3071 4.9585 83.6442 4.15326 84.3182 3.55927C85.0277 2.94634 85.8462 2.47232 86.7312 2.16198C87.6472 1.82665 88.6001 1.60221 89.5696 1.49346C90.3051 1.40353 91.0446 1.35055 91.7855 1.33473C91.7855 1.33473 113.367 1.89781 91.6695 29.9422C84.4458 39.079 83.4289 29.4196 83.3141 25.1177L83.3071 5.97499ZM109.998 20.2607C109.98 20.4566 109.961 20.6535 109.938 20.8505C109.644 23.3405 108.948 25.7664 107.877 28.0339C106.806 30.3419 105.346 32.4491 103.561 34.2638C101.737 36.1114 99.5896 37.6088 97.2247 38.6816C96.1741 39.1641 95.0785 39.5421 93.9537 39.8101C83.1471 41.3047 89.3829 34.2661 90.3349 33.2465C95.0309 28.3224 100.696 21.0567 102.677 13.0866C102.793 12.6231 102.895 12.1554 102.984 11.6835C103.718 8.82867 105.784 3.39707 109.397 13.0738C109.451 13.2708 109.503 13.4689 109.549 13.6682C110.025 15.7174 110.186 17.8272 110.026 19.9247L109.998 20.2607ZM121.019 19.5273C121.019 22.3613 119.036 22.3671 118.683 22.3463C118.01 22.2628 117.343 22.1562 116.68 22.0265L116.503 21.9906L116.307 21.95C115.123 21.6661 114.621 20.0279 114.416 18.9307C114.38 18.597 114.335 18.2637 114.281 17.9308C114.031 16.3826 113.603 14.8683 113.006 13.4179C111.998 10.9703 110.473 8.76926 108.535 6.96561C108.333 6.77444 108.124 6.58674 107.911 6.40252C104.188 2.49682 107.425 1.8955 109.079 1.82251H109.913L116.895 1.84452C118.035 1.88777 119.006 2.21644 119.81 2.8305C120.613 3.44457 121.015 4.6839 121.015 6.54851L121.019 19.5273ZM137.055 38.8763C135.97 39.4335 134.776 39.7479 133.557 39.7974L130.676 39.853L129.806 39.7974C129.281 39.7543 128.762 39.6694 128.251 39.5436C127.751 39.4272 127.293 39.174 126.929 38.8125C126.535 38.4027 126.23 37.9154 126.034 37.3816C125.802 36.7892 125.686 36.0264 125.686 35.0934V28.5796C125.686 23.8629 128.662 22.7668 129.824 22.5189L130.272 22.4482H130.28C131.8 22.208 133.295 21.9516 134.764 21.6789L136.015 21.4472C138.274 21.0845 146.205 20.3847 142.517 29.6907L140.091 35.091C139.206 37.0406 138.194 38.3012 137.054 38.8728L137.055 38.8763ZM160.566 25.2799L160.513 25.2382L160.489 25.2185C159.134 24.1502 158.712 23.8594 158.819 24.0054C158.629 23.8749 158.435 23.7463 158.239 23.6196C156.671 22.5881 155.004 21.7149 153.263 21.0127C153.097 20.9466 152.931 20.8841 152.765 20.8215L152.699 20.7972L152.513 20.73C148.514 19.1971 149.784 15.5602 150.123 14.755L150.194 14.5951L152.392 9.69068C153.097 8.28759 154.885 5.6668 156.872 10.1089L162.447 22.5664C162.911 23.5987 165.029 28.758 160.566 25.2764V25.2799Z" fill="white"/>
</svg>
