<svg width="2940" height="184" viewBox="0 0 2940 184" fill="none" xmlns="http://www.w3.org/2000/svg">
<path d="M742.641 54.1407V53.6885C742.342 50.2211 746.687 46.3015 749.01 44.7186L749.16 44.5679C749.235 44.4925 749.384 44.3417 749.459 44.2664L750.284 43.588C739.12 44.0402 745.938 40.6483 751.482 37.5578C751.407 37.2563 753.056 35.2211 753.655 34.3166C752.306 34.8443 751.183 33.4875 749.759 33.5628C747.436 33.6382 750.658 29.8694 751.258 29.5679C745.414 31.9046 735.074 33.789 727.657 32.8091C726.758 34.0151 725.784 35.1458 724.735 36.201C728.031 36.8794 729.455 38.387 729.455 39.0654C721.888 44.3417 730.878 52.4071 724.66 58.4372L723.761 59.2664L723.461 61.4523C729.38 57.985 735.524 55.1206 741.667 54.2915L742.641 54.1407Z" stroke="white" stroke-width="2" stroke-miterlimit="10"/>
<path d="M770.513 43.6633C767.666 47.4321 765.718 52.6331 765.418 57.9095C767.516 55.196 779.129 49.1658 782.501 52.1055C782.725 52.3316 808.424 27.1558 808.274 21.2764C803.254 23.7638 797.56 25.7236 792.54 27.2311C791.791 27.4573 792.016 29.3417 790.517 29.8693C780.253 33.3367 771.412 33.2613 769.913 30.3216C770.588 31.6784 772.011 34.0151 773.21 35.9749C777.705 35.9749 771.861 45.8492 770.513 43.6633Z" stroke="white" stroke-width="2" stroke-miterlimit="10"/>
<path d="M823.559 58.7388C817.415 63.0352 816.441 61.6031 816.591 56.4774H812.845L813.37 49.1659C807.451 57.2312 794.339 61.7538 797.711 55.196C795.613 54.8945 792.99 54.593 791.717 52.784C792.691 55.7991 788.045 55.6483 784.599 55.9498C786.247 60.2463 787.221 62.583 781.452 62.5076C785.798 64.5428 782.501 67.8594 781.977 71.0252C781.302 75.2463 792.016 78.186 784.824 82.8594C792.915 82.181 816.067 101.854 811.122 104.266C819.438 101.101 822.51 111.201 829.628 113.236C835.023 114.819 839.218 116.779 842.215 121C839.293 116.025 835.397 109.618 838.544 105.925C839.893 104.342 841.766 103.362 843.489 102.382C844.538 101.779 845.587 101.101 846.486 100.422C846.411 100.121 846.486 99.7438 846.411 99.4423C846.186 98.2362 847.235 97.7086 847.61 96.9548C844.538 93.1106 843.114 78.6383 843.489 76.9046C842.29 79.3166 837.945 76.9046 833.599 73.3619C832.325 72.3066 829.104 68.0101 828.579 66.2011C828.354 65.5227 828.654 69.0654 828.204 68.4624C826.706 66.6533 825.582 64.8443 825.058 63.2614C825.357 67.6332 825.657 77.0553 821.536 80.5227C817.94 83.5378 815.917 76.7538 816.217 74.3418C815.318 77.6584 809.848 77.5076 808.05 80.4473C808.35 75.7739 801.082 76.3769 798.61 73.7388C796.811 71.779 798.46 68.0101 801.007 67.1056C803.555 66.1257 811.422 66.7287 806.102 73.0604C809.324 70.9498 820.937 70.196 821.536 75.397C822.36 69.1408 817.79 63.0352 823.559 58.7388Z" stroke="white" stroke-width="2" stroke-miterlimit="10"/>
<path d="M699.935 63.5628C701.733 65.8995 694.466 71.9296 693.642 72.4573C694.391 71.9296 696.564 72.1558 697.238 72.3065C694.466 77.0553 683.452 89.3417 694.316 89.6432C693.492 89.794 688.921 93.9397 689.371 94.6934C692.293 91.2261 699.036 95.4472 702.857 94.3166C706.379 93.2613 710.05 84.5929 714.62 88.5125C712.297 86.5527 714.096 80.4472 715.969 79.0151C715.594 75.0955 718.067 73.3618 718.591 69.6683C718.067 69.8945 718.216 69.8945 717.617 70.0452C717.242 68.3869 720.239 64.995 720.464 63.9397C718.741 64.7688 716.793 65.8241 715.294 65.9749C715.519 65.0703 716.194 64.3919 716.343 63.4874C709.9 66.2764 709.45 73.4372 704.88 77.809C701.359 72.2311 717.542 57.0804 715.145 59.1156C714.62 59.4925 702.857 64.6181 699.935 63.5628Z" stroke="white" stroke-width="2" stroke-miterlimit="10"/>
<path d="M839.593 129.141C839.443 128.99 839.293 128.839 839.143 128.688C827.081 117.231 813.969 119.568 812.845 118.965C814.643 117.457 821.012 118.437 823.11 118.362C819.513 112.332 807.151 106.603 800.558 105.623C801.007 103.211 805.578 104.492 807.001 103.211C802.281 102.608 788.12 91.9799 784.074 88.9648C781.377 86.9296 779.504 83.4623 778.006 79.4673C777.706 78.5628 780.778 79.0151 779.879 78.5628C778.455 77.7337 776.657 72.7588 776.507 71.8543C775.383 65.1457 776.432 59.191 780.553 55.2714C777.931 53.5377 766.842 58.4372 764.594 63.3367C763.246 66.3518 763.321 72.6834 761.822 75.6985C763.021 75.0201 764.22 74.4171 765.493 73.7387C765.418 87.9095 772.162 96.804 771.862 104.342C772.012 101.402 772.162 100.347 773.36 99.5176C775.009 98.9899 779.279 110.899 780.104 112.332C781.827 115.196 783.4 113.538 785.273 116.1C787.221 118.739 789.694 119.643 786.547 125.146C785.573 124.92 778.006 124.618 770.813 116.628C770.363 116.1 774.934 124.618 774.11 124.392C770.064 122.96 760.174 111.804 760.174 111.804C760.174 111.804 777.781 134.417 775.383 143.161C775.009 144.442 773.061 143.236 773.061 143.236C773.061 143.236 779.13 152.583 780.403 153.412C781.677 154.241 783.175 154.015 786.022 152.884C802.356 146.251 833.599 161.025 846.636 169.618C837.87 158.312 844.838 141.955 850.682 139.693C851.431 139.543 834.948 132.005 839.593 129.141Z" stroke="white" stroke-width="2" stroke-miterlimit="10"/>
<path d="M763.995 96.804C763.995 96.2764 762.796 95.1457 762.721 94.6181C761.673 90.4724 760.923 86.5528 760.998 82.1055C760.998 82.0301 760.549 83.7638 760.324 83.9146C757.027 85.9497 759.05 62.206 762.047 58.9648C758.376 60.4724 752.607 61 751.183 65.7487C750.884 66.6533 749.16 73.4372 747.737 72.7588C746.763 72.3065 749.685 61.0754 752.981 57.9095C749.46 60.5477 745.264 61.9045 743.166 62.9598C745.264 65.5226 736.873 73.1357 737.997 79.392C739.195 85.9497 743.466 91.3015 742.567 98.0854C742.717 97.1055 744.515 89.9447 744.74 90.0955C752.382 95.5226 758.676 104.945 768.116 107.432C767.591 106.301 763.77 102.985 763.995 96.804Z" stroke="white" stroke-width="2" stroke-miterlimit="10"/>
<path d="M980 107.131L977.228 100.422C966.064 96.9548 960.595 91.0754 949.131 90.6231C941.939 90.3216 928.228 78.1106 924.856 71.1759C925.006 71.4774 924.481 74.794 924.407 74.794C923.358 74.1156 901.18 67.2563 896.91 67.1809C894.587 67.1055 900.806 70.196 895.861 71.402C891.59 72.3819 889.043 64.7688 867.465 66.1256C886.57 74.191 903.353 99.2161 896.91 107.658H885.746C896.385 82.7839 849.783 63.8643 849.783 63.8643C849.858 63.8643 856.526 63.9397 861.021 64.0151L860.272 61.7538C853.529 59.2663 844.763 53.99 844.913 53.7638C846.561 54.8191 857.575 58.7387 862.67 51.6533C861.995 54.4422 868.813 55.2714 864.168 60.2462C874.133 54.9698 890.991 64.1658 895.036 61.8291C907.848 54.5176 914.142 62.2814 921.709 61.9799C906.949 51.2764 918.263 51.3518 927.329 42.2312C936.919 32.5829 940.665 8.46231 952.053 1C934.971 12.0804 903.803 22.4824 884.173 17.4322C885.671 17.809 888.443 21.3518 889.717 21.1256C878.329 23.1608 867.24 27.5327 855.777 28.6633C856.001 27.7588 855.926 27.608 856.301 26.7789C848.959 29.8693 837.87 31.0754 829.329 28.2864V30.7739C834.348 33.6382 832.775 36.2764 833.899 35.7487C829.853 37.7085 824.983 34.8442 817.865 32.1307C817.865 32.1307 836.147 48.0352 824.009 50.7487C834.498 50.7487 845.737 59.3417 845.737 59.3417C845.737 59.3417 839.368 59.2663 836.821 59.4171C836.746 59.8693 833.374 64.8442 833.225 65.2211C841.391 62.9598 856.751 76.3769 855.477 88.4372C855.477 88.4372 848.884 86.9297 848.209 86.1759C847.46 85.3467 860.497 110.296 841.316 108.261C851.506 109.317 862.595 136.829 856.601 145.271C870.761 135.322 911.744 150.849 925.905 160.347C924.856 159.668 921.634 162.307 921.634 162.307C921.634 162.307 945.61 166.377 959.845 181C957.073 178.136 947.933 119.342 968.237 109.392C967.862 108.412 967.413 107.432 967.038 106.452C967.637 105.095 976.778 106.98 980 107.131Z" stroke="white" stroke-width="2" stroke-miterlimit="10"/>
<path d="M736.948 70.4975C735.899 68.1608 741.219 59.794 742.043 57.3065C742.043 57.3065 729.756 60.5477 725.335 64.1658C722.863 66.201 720.915 72.3065 719.641 75.2462C720.24 75.3216 724.136 74.2663 724.286 73.8141C721.064 82.407 717.843 91 711.324 97.5578C710.95 96.8794 710.575 96.201 710.201 95.5226C706.454 99.6683 702.334 105.472 696.49 106.075C702.633 107.658 699.936 115.874 696.115 117.156C693.193 118.136 687.274 109.166 697.089 97.9347C685.476 109.995 661.35 126.201 644.343 128.915C645.991 128.462 656.405 140.372 656.93 142.03C660.301 151.678 659.552 163.513 652.36 171.05C658.428 165.02 689.971 140.07 683.753 160.799C690.72 157.106 711.474 141.653 715.82 150.02C716.719 151.678 728.257 137.809 729.606 139.09C724.361 134.116 732.827 119.417 735.899 112.633C733.652 115.045 725.035 122.131 726.983 116.553C718.742 116.704 724.736 106.377 728.332 100.648C728.707 101.1 727.358 104.116 728.482 106.754C728.407 100.196 735.749 96.1256 735.3 89.4171C735.899 90.397 736.499 91.3769 737.098 92.3568C736.124 89.6432 731.928 68.7638 736.948 70.4975Z" stroke="white" stroke-width="2" stroke-miterlimit="10"/>
<path d="M640.446 110.447C627.635 114.292 630.856 107.055 634.977 105.322C636.775 104.493 635.202 107.809 636.026 107.734C641.42 96.2011 640.222 77.8091 651.91 70.4976C652.509 70.1207 652.884 70.2714 653.558 69.9699C650.261 71.4021 644.043 88.5127 648.388 93.4121C652.434 87.0051 662.024 79.6182 669.517 79.9951C665.92 74.5679 674.836 72.985 677.758 70.3468C675.735 72.4574 667.419 92.8845 665.771 89.9448C665.171 88.8895 665.096 87.2312 664.572 87.1559C663.073 86.8544 662.174 89.8694 660.751 91.377C657.154 95.1458 651.385 97.7086 646.216 97.7086C645.541 98.9147 664.272 105.548 645.841 122.055C652.809 121.075 680.83 106.075 684.427 99.3669C674.537 100.95 687.124 79.9197 689.372 75.6232C689.746 74.8694 690.72 73.6634 690.346 73.7388C688.622 73.9649 684.202 75.8493 686.225 72.6081C688.472 69.1408 689.521 65.5981 694.841 64.0905C692.968 58.0604 699.261 57.9096 703.457 56.8544C701.959 53.7639 708.627 46.4524 711.099 44.7941C706.005 45.9247 693.043 46.98 686.824 51.6534C686.375 50.0704 689.821 46.8292 690.645 46.0755C690.645 46.0755 675.286 52.181 673.188 56.7036C672.139 57.0805 675.511 58.0604 674.911 58.3619C670.341 60.6232 666.22 64.1659 663.223 67.4825C662.474 64.6182 664.572 60.0202 667.269 58.9649C660.076 57.8343 674.012 48.7137 678.283 46.6785C676.709 46.6031 658.653 51.4272 665.171 43.7388C662.924 46.377 649.437 48.8644 646.59 48.6383C646.216 48.6383 647.714 38.2363 667.269 36.5026L665.771 33.0353C664.422 32.0554 656.031 32.0554 656.18 31.5277C656.405 30.774 657.754 30.5478 658.803 30.0956L658.503 28.8895C650.336 29.1911 640.147 28.7388 632.579 25.9498C632.729 26.176 634.228 29.2664 633.329 29.1911C612.425 27.382 593.245 25.7991 573.09 20.1458C574.739 20.5981 573.615 18.5629 577.735 18.3368C577.586 18.2614 577.436 18.1106 577.286 18.0353C569.344 16.5277 536.902 8.08552 530.084 2.73376C539.674 10.0453 543.046 33.4122 554.06 37.4071C559.005 39.2162 564.249 39.1408 563.875 47.0554C563.575 53.9147 556.232 56.7036 551.737 60.8493C558.33 60.3217 562.826 55.9498 569.044 54.2915C582.605 50.6735 594.069 67.4071 587.55 70.9498C593.919 67.4825 611.376 77.6584 616.546 75.9247C606.281 69.8192 631.68 54.0654 634.677 56.4021C634.827 58.1358 633.479 61.0001 633.479 61.0001C633.479 61.0001 649.437 52.3317 653.034 57.3066C645.991 58.2865 633.104 68.1609 627.934 72.0805C628.309 71.779 634.677 70.7991 635.202 70.573C629.208 72.5328 626.136 77.2815 622.165 85.2714C623.439 82.7086 623.214 79.3921 624.113 76.6031C622.24 82.784 612.125 89.8694 610.102 90.4724L611.226 85.7991C606.506 91.0001 601.486 92.2061 595.268 97.3317C590.997 100.799 588.974 103.437 589.498 107.658H576.612C577.136 103.136 584.628 95.975 587.625 93.789C594.593 88.588 603.659 85.2714 610.702 80.372C606.281 80.4473 594.518 73.5127 585.303 75.8493C576.462 78.0353 565.298 77.9599 561.177 75.3971C561.777 74.8694 562.301 74.2664 562.751 73.5127C562.826 72.985 543.121 79.9951 540.349 81.2765C533.306 84.5177 527.537 90.2463 520.269 93.0353C514.8 95.2212 509.106 96.7287 503.411 98.2363C499.89 99.1408 496.294 100.121 492.772 101.176H492.697L490 108.035C494.046 107.809 506.783 105.699 504.086 112.106C505.884 112.633 507.532 112.407 509.106 111.427C518.92 109.618 531.583 134.643 530.159 140.975C528.361 149.116 525.739 148.739 525.064 157.256C524.39 165.925 524.54 171.729 521.543 179.945C529.56 173.387 534.205 171.879 543.121 166.603C547.466 164.04 555.483 165.096 559.979 162.91C561.327 162.231 565.148 156.804 564.099 157.256C586.651 148.211 615.647 150.699 638.049 160.271C626.661 155.372 631.68 139.467 637.3 131.854L624.638 137.809L627.784 130.648L630.107 127.106C638.948 127.256 638.573 112.859 643.893 110.523C642.245 111.126 640.671 111.729 639.023 112.332C639.547 111.729 639.997 111.05 640.446 110.447Z" stroke="white" stroke-width="2" stroke-miterlimit="10"/>
<path d="M245.02 181C294.737 181 335.04 140.706 335.04 91C335.04 41.2944 294.737 1 245.02 1C195.303 1 155 41.2944 155 91C155 140.706 195.303 181 245.02 181Z" fill="#231F20"/>
<path d="M245.02 173.626C290.663 173.626 327.664 136.633 327.664 91C327.664 45.3671 290.663 8.37439 245.02 8.37439C199.377 8.37439 162.376 45.3671 162.376 91C162.376 136.633 199.377 173.626 245.02 173.626Z" fill="black"/>
<path d="M245.021 177.421C197.359 177.421 158.588 138.658 158.588 91.0073C158.588 43.3564 197.366 4.59375 245.021 4.59375C292.676 4.59375 331.453 43.3629 331.453 91.0073C331.428 113.918 322.313 135.882 306.109 152.082C289.906 168.282 267.936 177.395 245.021 177.421V177.421ZM245.021 12.1696C229.424 12.1696 214.178 16.7935 201.21 25.4566C188.243 34.1196 178.135 46.4328 172.167 60.8389C166.199 75.245 164.638 91.0969 167.681 106.39C170.724 121.683 178.235 135.731 189.264 146.756C200.293 157.782 214.344 165.29 229.641 168.331C244.938 171.372 260.793 169.81 275.202 163.842C289.611 157.874 301.926 147.768 310.59 134.802C319.253 121.837 323.877 106.594 323.876 91.0008C323.852 70.0997 315.536 50.0617 300.753 35.283C285.97 20.5043 265.926 12.1919 245.021 12.1696V12.1696Z" fill="white"/>
<path d="M187.24 30.5235C188.904 35.0716 186.805 41.166 180.956 41.8287C181.034 42.9658 181.073 43.7779 181.054 44.0638C214.697 41.9522 236.767 43.6155 263.944 61.0671C266.914 57.7665 269.689 55.5639 272.75 52.926C244.604 28.2884 210.09 28.4899 187.24 30.5235Z" fill="white"/>
<path fill-rule="evenodd" clip-rule="evenodd" d="M181.052 44.0638H180.993C180.993 44.2075 181.039 44.201 181.052 44.0638Z" fill="white"/>
<path fill-rule="evenodd" clip-rule="evenodd" d="M181.132 90.6622C184.758 93.1571 187.903 96.2758 191.725 98.9072C200.102 91.0455 208.894 83.5152 220.845 79.2985C212.573 101.526 225.68 122.297 248.062 123.597C265.31 121.427 275.733 112.447 277.813 95.1193C281.914 97.4518 287.717 102.091 291.103 107.146C294.352 104.911 300.597 98.0496 300.597 97.6467C263.763 53.0626 221.768 49.3916 181.132 90.6622Z" fill="white"/>
<path fill-rule="evenodd" clip-rule="evenodd" d="M294.482 135.298L294.17 134.181L293.143 131.549L292.435 130.185L291.252 128.45L290.004 126.39L288.38 123.98L286.833 121.498L285.163 118.509L283.85 115.072L282.888 112.298L282.258 109.641L281.888 107.763V107.074L281.823 106.717H281.706L281.68 106.814L281.66 107.029L281.381 109.641L281.121 111.291L280.633 113.357L279.847 115.475L278.047 119.094L274.81 124.415L271.717 129.256L270.151 132.004L269.124 134.993L268.786 137.403L268.955 140.204L269.228 141.815L269.696 143.238L270.151 144.271L270.859 145.557L271.665 146.532L272.731 147.896L273.972 148.813L275.213 149.683L277.065 150.664L278.456 151.113L279.99 151.424L281.452 151.593L283.421 151.431L284.584 151.242L286.229 150.918L287.255 150.515L288.412 149.904L289.608 149.053L290.771 148.15L291.759 146.98L292.812 145.583L293.676 143.842L294.086 142.79L294.56 141.256L294.865 139.015L294.742 137.202L294.482 135.298Z" fill="white"/>
<path fill-rule="evenodd" clip-rule="evenodd" d="M241.556 85.5099L236.233 94.2812H240.685L231.684 106.438L235.655 97.3414H231.028L235.447 89.0054H227.896L234.017 78.9672H240.516L236.032 85.4644L241.556 85.5099ZM277.175 123.941L276.363 125.306L275.563 126.56L274.719 127.917L273.802 129.431L272.821 131.01L272.171 132.342L271.482 133.875L271.144 135.175L270.826 136.923L270.78 138.872L271.014 140.938L271.547 142.517L272.061 143.582L272.769 144.609L275.68 144.57L274.335 142.335L273.484 140.288L273.074 138.638L273.029 136.689L273.308 134.467L273.958 132.433L274.81 130.484L275.726 128.632L276.376 127.118L277.026 125.819L277.715 123.993L278.215 122.694L278.559 121.492L277.175 123.941ZM255.431 108.855C254.514 108.816 253.481 108.77 253.006 108.127C252.74 107.583 252.605 106.985 252.61 106.379C252.61 105.911 252.747 105.327 252.383 104.969H252.22C252.22 105.041 252.142 105.047 252.162 105.138C251.96 106.301 252.233 107.464 251.707 108.179C251.31 108.731 250.206 108.829 249.341 108.829C248.964 108.829 248.314 108.634 248.1 109.114C248.607 109.433 249.328 109.296 249.907 109.335C251.629 109.465 252.019 110.18 252.103 111.876C252.103 112.285 251.882 112.954 252.383 113.175C252.753 112.824 252.584 112.24 252.61 111.772C252.619 111.274 252.696 110.78 252.838 110.303C253.182 109.413 254.423 109.348 255.599 109.29C255.905 109.29 256.392 109.459 256.561 109.062C256.334 108.699 255.775 108.9 255.431 108.855ZM260.064 98.355C258.985 98.29 257.51 98.186 256.815 97.7052C255.275 96.6332 256.21 93.8784 255.431 91.9747H255.151C254.501 93.9238 255.307 96.4513 253.949 97.6143C253.299 98.1666 251.876 98.264 250.803 98.355C250.017 98.4134 248.724 98.1406 248.399 98.8163C249.049 99.375 250.004 99.1476 250.803 99.1866C253.63 99.3296 254.67 100.109 254.872 102.884C254.937 103.735 254.651 104.917 255.333 105.567C255.983 105.184 255.684 104.358 255.703 103.806C255.755 102.682 255.814 101.292 256.262 100.48C256.912 99.2971 258.959 99.1801 260.701 99.0957C261.156 99.0957 262.001 99.375 262.274 98.7253C261.767 98.0886 260.792 98.4199 260.064 98.381V98.355Z" fill="#231F20"/>
<path fill-rule="evenodd" clip-rule="evenodd" d="M2101 181H2308.84L2204.92 1" fill="#231F20"/>
<path fill-rule="evenodd" clip-rule="evenodd" d="M2204.92 21.762L2118.98 170.616H2290.86L2204.92 21.762Z" fill="black"/>
<path d="M2302.1 177.101H2107.74L2204.9 8.79126L2302.1 177.101ZM2122.54 168.559H2287.3L2204.92 25.8752L2122.54 168.559Z" fill="white"/>
<path d="M2178.71 145.204L2218.68 75.2345H2201.02H2187.8L2179.9 89.0569H2193.13L2153.15 159.033H2169.15H2170.81H2248.78L2256.67 145.204H2178.71Z" fill="black" stroke="white" stroke-width="4" stroke-miterlimit="10"/>
<path d="M2202.94 137.729L2193.37 134.883L2193.03 135.211L2201.23 140.889L2199.43 142.151H2206.66C2206.34 141.552 2206.03 140.952 2205.61 140.258L2209.76 141.596C2208.25 137.811 2206.85 134.259 2205.3 130.354C2209.09 132.246 2211.66 134.909 2215.79 136.479V127.426L2216.3 127.332L2218.9 132.877C2219.57 131.653 2220.12 130.669 2220.93 129.212L2222.83 134.997L2228.63 125.944L2229.05 125.994L2230.01 137.52L2236.15 132.883C2235.68 136.17 2235.26 139.135 2234.85 142.138H2241.19C2244.74 136.908 2248.24 131.641 2251.53 126.184L2242.02 132.221L2241.63 132.025C2243.89 126.045 2246.14 120.062 2248.38 114.077L2248.12 113.919L2237.43 123.458L2237 123.313L2241.32 93.4603L2241.01 93.3657L2225.04 120.127H2224.54L2223.59 110.614L2223.16 110.551C2221.99 113.427 2220.84 116.306 2219.69 119.187H2219.16C2216.87 111.036 2214.58 102.883 2212.3 94.7284L2211.74 94.7663V121.704L2211.14 121.856C2209.36 119.883 2207.57 117.907 2205.78 115.926L2205.33 116.052C2205.96 118.575 2206.54 121.055 2207.15 123.622L2188.62 108.929L2202.94 137.729Z" fill="white" stroke="black" stroke-width="2" stroke-miterlimit="10"/>
<path d="M2204.34 68.5978L2202.57 59.8855C2202.54 59.7501 2202.48 59.6257 2202.38 59.5281C2202.28 59.4304 2202.16 59.3638 2202.02 59.3367L2193.31 57.5765C2193.15 57.5458 2193.01 57.4603 2192.9 57.3348C2192.8 57.2093 2192.74 57.0516 2192.74 56.8889C2192.74 56.7261 2192.8 56.5684 2192.9 56.443C2193.01 56.3175 2193.15 56.232 2193.31 56.2012L2202.02 54.4411C2202.16 54.4139 2202.28 54.3473 2202.38 54.2497C2202.48 54.152 2202.54 54.0277 2202.57 53.8922L2204.33 33.206C2204.36 33.0462 2204.45 32.902 2204.57 32.7984C2204.7 32.6948 2204.86 32.6381 2205.02 32.6381C2205.18 32.6381 2205.34 32.6948 2205.46 32.7984C2205.59 32.902 2205.67 33.0462 2205.71 33.206L2207.47 53.8922C2207.49 54.0277 2207.56 54.152 2207.66 54.2497C2207.75 54.3473 2207.88 54.4139 2208.01 54.4411L2216.73 56.2012C2216.89 56.232 2217.03 56.3175 2217.13 56.443C2217.24 56.5684 2217.29 56.7261 2217.29 56.8889C2217.29 57.0516 2217.24 57.2093 2217.13 57.3348C2217.03 57.4603 2216.89 57.5458 2216.73 57.5765L2208.01 59.3367C2207.88 59.3638 2207.75 59.4304 2207.66 59.5281C2207.56 59.6257 2207.49 59.7501 2207.47 59.8855L2205.72 68.5978C2205.7 68.7614 2205.61 68.9101 2205.49 69.0173C2205.36 69.1245 2205.2 69.1834 2205.03 69.1834C2204.87 69.1834 2204.71 69.1245 2204.58 69.0173C2204.45 68.9101 2204.37 68.7614 2204.34 68.5978Z" fill="white" stroke="black" stroke-width="2" stroke-linecap="round" stroke-linejoin="round"/>
<path d="M2773.79 118.132L2776.27 118.103L2793.99 117.844L2747.31 83.5348C2750.2 78.5849 2753.21 73.6062 2756.16 68.7543C2762.61 58.1399 2769.28 47.1683 2774.55 36.1679L2781.47 21.6294L2766.73 28.1524C2762.49 30.0271 2758.24 31.9249 2753.98 33.8457C2750.8 35.269 2747.57 36.7269 2744.33 38.1617C2746.72 30.7801 2748.81 23.7557 2750.46 16.7083L2754.15 1L2741.14 10.5541C2737.51 13.224 2733.89 15.9131 2730.26 18.6214C2720.82 25.6227 2711.1 32.8372 2701.45 39.5216L2699.91 37.839L2695.42 32.9525L2691.05 37.8793L2689.58 39.5216C2679.91 32.8257 2670.17 25.6054 2660.72 18.5984C2657.1 15.9092 2653.48 13.2201 2649.85 10.531L2636.84 1L2640.53 16.7083C2642.17 23.7327 2644.27 30.7801 2646.66 38.1617C2643.42 36.7211 2640.2 35.2805 2637.02 33.8514C2632.76 31.9268 2628.51 30.0271 2624.25 28.1524L2609.51 21.6294L2616.47 36.1506C2621.75 47.151 2628.41 58.1226 2634.86 68.737C2637.79 73.6062 2640.84 78.5849 2643.71 83.5348L2597.04 117.844L2614.76 118.103L2617.24 118.132L2594 143.383L2611.67 140.018C2620.81 138.289 2630.06 136.301 2639 134.388C2649.17 132.21 2659.66 129.968 2670.02 128.049C2674.09 135.079 2695.48 180.977 2695.48 180.977C2695.48 180.977 2716.85 135.183 2720.97 128.049C2731.35 129.945 2741.82 132.187 2751.99 134.388C2760.93 136.301 2770.18 138.278 2779.32 140.018L2796.99 143.383L2773.79 118.132Z" fill="white"/>
<path d="M2695.5 159.76C2690.31 142.951 2684.65 126.067 2678.99 109.189C2660.29 109.448 2641.6 109.633 2622.99 109.35L2668.26 76.084C2662.95 58.2206 2655.46 40.069 2651.49 22.4419C2666.13 33.1657 2680.71 44.339 2695.5 54.089V50.6949C2678.96 39.8616 2662.65 27.3687 2646.32 15.3541C2650.93 35.0558 2659.32 55.3394 2665.08 75.2197L2614.83 112.151C2635.65 112.451 2656.64 111.632 2677.41 112.272C2683.21 130.792 2689.54 149.393 2695.5 167.937V159.76Z" fill="black"/>
<path fill-rule="evenodd" clip-rule="evenodd" d="M2669.01 47.3528C2670.88 53.6914 2672.87 60.03 2674.93 66.4205H2666.68C2662.15 52.9538 2657.74 39.5044 2654.23 26.1932C2667.63 37.1418 2681.48 45.2725 2694.84 56.5495L2688.61 61.1307C2682.07 56.5495 2675.63 51.3634 2669.01 47.3528Z" fill="black"/>
<path fill-rule="evenodd" clip-rule="evenodd" d="M2686.95 61.8797L2677.19 69.0654C2674.44 62.4386 2671.97 55.858 2671.14 49.5366C2676.28 54.5326 2681.83 56.8088 2686.95 61.8797Z" fill="black"/>
<path fill-rule="evenodd" clip-rule="evenodd" d="M2695.5 58.0477C2689.62 62.4272 2683.74 66.7605 2677.9 70.9382C2679.51 73.5313 2679.16 75.819 2680.78 78.4293L2695.49 67.6248L2695.5 58.0477Z" fill="black"/>
<path fill-rule="evenodd" clip-rule="evenodd" d="M2695.5 99.7963C2680.86 100.067 2666.27 100.015 2651.7 99.7963L2671.22 85.4249C2670.53 82.7899 2669.71 80.1916 2668.76 77.6399L2627.64 107.858C2650.23 107.996 2672.89 107.708 2695.5 107.708V99.7963Z" fill="black"/>
<path fill-rule="evenodd" clip-rule="evenodd" d="M2675.62 97.5662C2670.58 99.1105 2662.73 98.4997 2656.78 97.9696L2671.76 86.9807C2673.35 90.5592 2673.41 93.8956 2675.62 97.5662ZM2670.35 91.1988L2664.53 95.5033C2666.97 95.6243 2669.3 96.4426 2671.95 95.1748C2670.74 93.7285 2671.25 92.576 2670.35 91.1988Z" fill="black"/>
<path fill-rule="evenodd" clip-rule="evenodd" d="M2670.35 91.1989L2664.53 95.5034C2666.97 95.6244 2669.3 96.4426 2671.95 95.1749C2670.74 93.7285 2671.25 92.5761 2670.35 91.1989Z" fill="white"/>
<path fill-rule="evenodd" clip-rule="evenodd" d="M2695.5 128.989C2693.38 122.65 2691.3 116.352 2689.16 110.03C2686.56 108.601 2683.63 109.247 2680.72 109.829C2685.94 124.897 2691.02 139.943 2695.49 154.896L2695.5 128.989Z" fill="black"/>
<path fill-rule="evenodd" clip-rule="evenodd" d="M2695.5 115.856C2694.92 114.398 2694.5 112.975 2694.81 111.65C2695.01 111.811 2695.25 111.927 2695.5 111.99V109.299C2694.05 109.264 2692.62 109.212 2691.13 109.229C2692.01 114.058 2693.68 119.025 2695.5 123.993V115.856Z" fill="black"/>
<path fill-rule="evenodd" clip-rule="evenodd" d="M2695.5 111.99C2695.26 111.92 2695.03 111.8 2694.84 111.638C2694.53 112.958 2694.94 114.387 2695.53 115.845L2695.5 111.99Z" fill="white"/>
<path d="M2695.5 154.896C2691.03 139.943 2685.94 124.897 2680.73 109.829C2683.64 109.252 2686.57 108.601 2689.17 110.03C2691.3 116.369 2693.38 122.667 2695.5 128.983V123.993C2693.69 119.014 2692.05 114.058 2691.14 109.229C2692.6 109.229 2694.05 109.264 2695.5 109.299V107.708C2672.89 107.708 2650.24 107.996 2627.65 107.858L2668.76 77.6399C2669.71 80.1916 2670.53 82.7899 2671.22 85.4249L2651.72 99.7675C2666.27 100.015 2680.86 100.067 2695.51 99.7675V98.2001C2692.75 98.0909 2689.99 98.2278 2687.25 98.6093C2685.05 92.4723 2683.42 86.4218 2680.88 80.2387L2695.51 69.4861V67.5672L2680.8 78.3717C2679.17 75.7787 2679.53 73.491 2677.92 70.8806C2683.77 66.7029 2689.64 62.3695 2695.52 57.9901V54.089C2680.73 44.3505 2666.13 33.1657 2651.51 22.4419C2655.48 40.0691 2662.98 58.2494 2668.28 76.0841L2622.99 109.333C2641.6 109.615 2660.29 109.431 2678.99 109.172C2684.65 126.05 2690.32 142.934 2695.5 159.743V154.896ZM2656.81 97.9696L2671.79 86.9808C2673.41 90.5592 2673.47 93.8956 2675.68 97.5663C2670.58 99.1106 2662.73 98.4998 2656.81 97.9696ZM2677.84 69.0655C2675.27 62.8709 2672.27 51.4037 2672.27 51.4037C2672.27 51.4037 2682.19 57.604 2686.98 62.3523L2677.84 69.0655ZM2665.96 64.3864C2658.47 40.5358 2660.46 49.8651 2654.23 26.2105C2667.63 37.1591 2681.48 45.2898 2694.84 56.5668L2688.61 61.1479C2682.07 56.5668 2675.63 51.3807 2669.01 47.37C2673.99 64.1732 2668.62 47.6639 2674.4 64.5881C2671.53 64.8877 2668.62 65.4524 2665.96 64.3864Z" fill="white"/>
<path d="M2695.5 93.8495L2688.47 97.4856L2684.23 84.5548C2684.23 84.5548 2691.31 77.807 2695.5 74.5974V71.3877C2690.5 75.0583 2685.5 78.0951 2680.52 82.3939C2683.03 88.5596 2684.68 94.5813 2686.86 100.689C2689.72 100.297 2692.61 100.166 2695.5 100.298V93.8495Z" fill="black"/>
<path fill-rule="evenodd" clip-rule="evenodd" d="M2632 42.5238C2643.15 64.248 2657.26 85.8167 2669.72 107.472C2672.6 107.985 2675.39 106.838 2678.19 105.939C2668.88 90.6686 2659.63 75.3983 2651.17 60.0761C2658.62 62.6115 2666.15 66.3398 2673.64 69.4572L2678.91 63.7294C2663.19 55.5007 2647.67 50.4413 2632 42.5238Z" fill="black"/>
<path fill-rule="evenodd" clip-rule="evenodd" d="M2672.15 70.725L2664.08 79.4838C2660.05 73.7618 2656.3 68.0282 2654.21 62.1967C2660.23 65.8961 2666.12 66.9333 2672.15 70.725Z" fill="black"/>
<path fill-rule="evenodd" clip-rule="evenodd" d="M2659.45 67.3079L2665.04 75.283L2668.52 71.6066L2659.45 67.3079Z" fill="white"/>
<path fill-rule="evenodd" clip-rule="evenodd" d="M2668.72 108.083C2664 110.618 2655.56 111.096 2649.5 111.794L2662.15 98.0446C2664.51 101.197 2665.75 104.965 2668.72 108.083ZM2661.64 102.418L2656.72 107.766C2659.18 107.38 2661.68 107.702 2664.06 105.928C2662.57 104.815 2662.83 103.571 2661.64 102.418Z" fill="black"/>
<path fill-rule="evenodd" clip-rule="evenodd" d="M2661.64 102.418C2661.64 102.418 2658.29 106.452 2656.65 108.227C2659.11 107.846 2664.32 106.544 2664.32 106.544L2661.64 102.418Z" fill="white"/>
<path fill-rule="evenodd" clip-rule="evenodd" d="M2695.5 135.46C2691.77 129.19 2688.05 122.062 2684.31 115.868C2681.8 116.386 2678.22 116.594 2675.44 117.752C2682.15 128.672 2689.19 140.225 2695.5 151.208V135.46Z" fill="black"/>
<path d="M2679.84 82.7973L2680.48 84.0823L2685.27 78.6196L2684 77.905L2679.84 82.7973Z" fill="#F2F2F2"/>
<path d="M2671.76 89.3779L2678.79 82.7166L2685.91 102.384L2678.48 102.222L2671.76 89.3779Z" fill="black"/>
<path d="M2685.99 102.626L2692.06 99.8942L2690.15 99.2546L2686.88 100.695L2685.83 97.9696L2684.55 98.5286L2685.99 102.626Z" fill="white"/>
<path fill-rule="evenodd" clip-rule="evenodd" d="M2681.15 103.346L2675.39 86.8079L2672.94 89.3606L2681.15 103.346Z" fill="white"/>
<path d="M2695.49 159.76C2700.68 142.951 2706.34 126.067 2712 109.189C2730.7 109.448 2749.39 109.633 2768 109.35L2722.73 76.084C2728.04 58.2206 2735.54 40.069 2739.5 22.4419C2724.86 33.1657 2710.29 44.339 2695.49 54.089V50.6949C2712.03 39.8616 2728.34 27.3687 2744.66 15.3541C2740.05 35.0558 2731.67 55.3394 2725.91 75.2197L2776.17 112.151C2755.35 112.451 2734.35 111.632 2713.58 112.272C2707.77 130.792 2701.45 149.393 2695.49 167.937V159.76Z" fill="black"/>
<path fill-rule="evenodd" clip-rule="evenodd" d="M2721.98 47.3528C2720.1 53.7144 2718.13 60.0704 2716.07 66.4205H2724.32C2728.84 52.9538 2733.25 39.5044 2736.76 26.1932C2723.35 37.1418 2709.51 45.2725 2696.15 56.5495L2702.38 61.1307C2708.91 56.5495 2715.36 51.3634 2721.98 47.3528Z" fill="black"/>
<path fill-rule="evenodd" clip-rule="evenodd" d="M2719.85 49.5366C2719.02 55.8753 2716.55 62.4386 2713.81 69.0654L2704.06 61.8797C2709.16 56.8088 2714.72 54.5326 2719.85 49.5366Z" fill="black"/>
<path fill-rule="evenodd" clip-rule="evenodd" d="M2695.49 58.0477C2701.37 62.4272 2707.25 66.7605 2713.1 70.9382C2711.47 73.5313 2711.82 75.819 2710.22 78.4293L2695.51 67.6248L2695.49 58.0477Z" fill="black"/>
<path fill-rule="evenodd" clip-rule="evenodd" d="M2695.49 99.7963C2710.13 100.067 2724.71 100.015 2739.29 99.7963L2719.77 85.4537C2720.46 82.8089 2721.28 80.2009 2722.24 77.6399L2763.35 107.858C2740.76 107.996 2718.1 107.708 2695.49 107.708V99.7963Z" fill="black"/>
<path fill-rule="evenodd" clip-rule="evenodd" d="M2719.26 86.9807L2734.21 97.9696C2728.26 98.4997 2720.42 99.1221 2715.37 97.5662C2717.58 93.8956 2717.64 90.5592 2719.26 86.9807ZM2719.04 95.146C2721.69 96.4137 2724.02 95.5955 2726.46 95.4745L2720.65 91.1988C2719.74 92.576 2720.25 93.7285 2719.04 95.146Z" fill="black"/>
<path fill-rule="evenodd" clip-rule="evenodd" d="M2720.65 91.1989L2726.46 95.5034C2724.02 95.6244 2721.69 96.4426 2719.04 95.1749C2720.25 93.7285 2719.74 92.5761 2720.65 91.1989Z" fill="white"/>
<path fill-rule="evenodd" clip-rule="evenodd" d="M2695.49 128.989C2697.61 122.65 2699.69 116.352 2701.83 110.03C2704.44 108.601 2707.36 109.247 2710.27 109.829C2705.08 124.897 2699.98 139.943 2695.5 154.896L2695.49 128.989Z" fill="black"/>
<path fill-rule="evenodd" clip-rule="evenodd" d="M2695.49 115.856C2696.07 114.398 2696.48 112.975 2696.18 111.65C2695.98 111.811 2695.74 111.927 2695.49 111.99V109.299C2696.95 109.264 2698.37 109.212 2699.86 109.229C2698.98 114.058 2697.31 119.025 2695.49 123.993V115.856Z" fill="black"/>
<path fill-rule="evenodd" clip-rule="evenodd" d="M2695.49 111.99C2695.74 111.927 2695.98 111.811 2696.18 111.65C2696.48 112.969 2696.08 114.398 2695.49 115.856V111.99Z" fill="white"/>
<path d="M2695.49 159.76C2700.68 142.951 2706.34 126.067 2712 109.189C2730.7 109.448 2749.39 109.633 2768 109.35L2722.73 76.0841C2728.04 58.2206 2735.54 40.0691 2739.5 22.4419C2724.86 33.1657 2710.29 44.339 2695.49 54.089V58.0477C2701.37 62.4272 2707.25 66.7605 2713.1 70.9382C2711.47 73.5313 2711.82 75.819 2710.22 78.4293L2695.51 67.6249V69.5437L2710.14 80.2964C2707.61 86.4794 2705.96 92.5299 2703.76 98.6669C2701.03 98.2854 2698.27 98.1485 2695.51 98.2578V99.8251C2710.15 100.096 2724.73 100.044 2739.3 99.8251L2719.79 85.4825C2720.47 82.8283 2721.29 80.2107 2722.24 77.6399L2763.35 107.858C2740.76 107.996 2718.1 107.708 2695.49 107.708V109.299C2696.95 109.264 2698.37 109.212 2699.86 109.229C2698.98 114.058 2697.31 119.025 2695.49 123.993V128.983C2697.61 122.644 2699.69 116.352 2701.83 110.03C2704.44 108.601 2707.36 109.247 2710.27 109.829C2705.08 124.897 2699.98 139.943 2695.5 154.896L2695.49 159.76ZM2715.37 97.5663C2717.58 93.8956 2717.64 90.5592 2719.26 86.9807L2734.2 97.9696C2728.26 98.4998 2720.42 99.1106 2715.37 97.5663V97.5663ZM2704.06 62.3465C2708.85 57.604 2718.77 51.3979 2718.77 51.3979C2718.77 51.3979 2715.77 62.8651 2713.2 69.0597L2704.06 62.3465ZM2716.61 64.5708C2722.37 47.6466 2717.03 64.1559 2722 47.3527C2715.37 51.3864 2708.93 56.5726 2702.41 61.1306L2696.15 56.5495C2709.51 45.2725 2723.35 37.1648 2736.76 26.1932C2730.53 49.8479 2732.53 40.5185 2725.03 64.3691C2722.37 65.4524 2719.46 64.8877 2716.59 64.5708H2716.61Z" fill="white"/>
<path d="M2695.49 93.8495L2702.52 97.4856L2706.76 84.5548C2706.76 84.5548 2699.68 77.807 2695.49 74.5974V71.3877C2700.48 75.0583 2705.49 78.0951 2710.48 82.3939C2707.95 88.5596 2706.31 94.5813 2704.14 100.689C2701.27 100.297 2698.38 100.166 2695.49 100.298V93.8495Z" fill="black"/>
<path d="M2780.43 134.169L2737.94 87.9776C2747.83 69.8203 2760.41 51.8128 2769.15 33.5979C2749.72 42.1954 2730.26 51.3173 2710.9 58.5779C2705.76 53.167 2700.68 47.5083 2695.49 41.8324C2690.43 47.5083 2685.24 53.167 2680.09 58.5779C2660.73 51.3173 2641.25 42.1954 2621.84 33.5979C2630.57 51.8128 2643.16 69.8203 2653.05 87.9776L2610.56 134.169C2631.42 130.204 2652.21 125.111 2673.09 121.492C2680.38 134.169 2688.04 146.881 2695.49 159.575C2703.08 146.898 2710.61 134.192 2717.9 121.492C2738.78 125.111 2759.57 130.204 2780.43 134.169ZM2695.49 154.28C2688.5 142.231 2681.25 130.193 2674.02 118.15C2655.4 122.229 2636.78 126.217 2618.13 129.772L2656.4 88.1563C2647.39 71.9063 2636.12 55.7428 2628.48 39.4352C2645.86 47.0992 2663.3 55.2645 2680.64 61.8221L2695.49 45.6874L2710.35 61.8221C2727.69 55.2645 2745.11 47.0992 2762.51 39.4352C2754.87 55.7428 2743.6 71.9063 2734.6 88.162L2772.88 129.778C2754.23 126.24 2735.61 122.235 2716.98 118.155C2709.73 130.199 2702.49 142.236 2695.49 154.28Z" fill="black"/>
<path fill-rule="evenodd" clip-rule="evenodd" d="M2758.99 42.5238C2747.84 64.248 2733.73 85.8167 2721.27 107.472C2718.39 107.985 2715.6 106.838 2712.8 105.939C2722.1 90.6686 2731.35 75.3983 2739.82 60.0761C2732.37 62.6115 2724.84 66.3398 2717.38 69.4572L2712.13 63.7294C2727.8 55.5007 2743.32 50.4413 2758.99 42.5238Z" fill="black"/>
<path fill-rule="evenodd" clip-rule="evenodd" d="M2736.8 62.1909C2734.7 68.0167 2730.96 73.7503 2726.93 79.4781L2718.86 70.7193C2724.88 66.9334 2730.76 65.8961 2736.8 62.1909Z" fill="black"/>
<path fill-rule="evenodd" clip-rule="evenodd" d="M2731.54 67.3079L2725.95 75.283L2722.47 71.6066L2731.54 67.3079Z" fill="white"/>
<path fill-rule="evenodd" clip-rule="evenodd" d="M2726.03 81.178C2715.84 70.3908 2705.74 58.9409 2695.49 47.8483C2685.38 58.9409 2675.15 70.3908 2664.95 81.178C2667.11 83.3677 2667.26 85.6611 2669.41 87.8566L2695.49 59.4883L2721.59 87.8566C2723.75 85.6611 2723.87 83.3677 2726.03 81.178Z" fill="black"/>
<path fill-rule="evenodd" clip-rule="evenodd" d="M2768.53 127.375L2733.76 89.5739C2732.28 91.8638 2730.91 94.2275 2729.66 96.6558L2746.17 114.6C2729.25 111.431 2712.4 107.996 2695.49 104.089C2678.59 107.996 2661.73 111.431 2644.82 114.6L2661.33 96.6558C2660.08 94.2341 2658.71 91.878 2657.22 89.5969L2622.46 127.398C2646.82 122.558 2671.15 117.216 2695.49 112.278C2719.84 117.193 2744.17 122.535 2768.53 127.375Z" fill="black"/>
<path fill-rule="evenodd" clip-rule="evenodd" d="M2695.49 68.7773C2696.96 68.1492 2698.52 67.5038 2700.05 66.7431C2698.52 65.2564 2696.96 63.545 2695.49 61.8163C2694.03 63.545 2692.47 65.2737 2690.95 66.7431C2692.47 67.5038 2694.03 68.1492 2695.49 68.7773ZM2695.49 65.6656L2695.64 65.7866L2695.49 65.8327L2695.35 65.7866L2695.49 65.6656Z" fill="black"/>
<path d="M2695.49 78.9883C2699.22 77.346 2702.98 75.6864 2706.72 73.9923L2701.1 67.8842L2695.49 70.3793L2689.89 67.8842L2684.27 73.9923C2688.01 75.6864 2691.76 77.346 2695.49 78.9883Z" fill="black"/>
<path fill-rule="evenodd" clip-rule="evenodd" d="M2721.12 89.6488L2707.77 75.139C2703.66 77.4094 2699.58 78.8615 2695.49 80.6075C2691.41 78.8788 2687.33 77.4094 2683.22 75.139L2669.87 89.6488C2673.69 95.1461 2676.59 100.695 2680.07 106.21C2685.17 104.314 2690.36 103.945 2695.49 102.672C2700.63 103.945 2705.82 104.314 2710.92 106.21C2714.4 100.69 2717.32 95.1461 2721.12 89.6488ZM2695.49 100.021C2690.84 101.122 2686.05 101.49 2681.39 103.254C2678.39 98.8052 2676.55 94.2933 2673.23 89.862L2683.77 78.4063C2687.68 80.2157 2691.63 81.9387 2695.49 83.6904C2699.35 81.9617 2703.31 80.233 2707.23 78.4063L2717.76 89.862C2714.45 94.2933 2712.57 98.8052 2709.59 103.254C2704.93 101.467 2700.15 101.099 2695.49 99.998V100.021Z" fill="black"/>
<path fill-rule="evenodd" clip-rule="evenodd" d="M2728.84 98.0446C2733.07 102.628 2737.28 107.211 2741.48 111.794C2735.43 111.096 2726.98 110.641 2722.27 108.083C2725.24 104.965 2726.48 101.197 2728.84 98.0446ZM2726.93 105.945C2729.31 107.72 2731.81 107.397 2734.26 107.783L2729.35 102.418C2728.16 103.571 2728.43 104.815 2726.93 105.945Z" fill="black"/>
<path fill-rule="evenodd" clip-rule="evenodd" d="M2729.35 102.418C2729.35 102.418 2732.7 106.452 2734.34 108.227C2731.88 107.846 2726.66 106.544 2726.66 106.544L2729.35 102.418Z" fill="white"/>
<path fill-rule="evenodd" clip-rule="evenodd" d="M2695.49 135.46C2699.22 129.19 2702.94 122.062 2706.68 115.868C2709.2 116.386 2712.76 116.594 2715.55 117.752C2708.84 128.672 2701.79 140.225 2695.49 151.208V135.46Z" fill="black"/>
<path fill-rule="evenodd" clip-rule="evenodd" d="M2695.49 131.651C2698.95 126.407 2702.62 121.025 2704.83 115.741C2701.72 115.072 2698.56 114.721 2695.49 113.822C2692.43 114.721 2689.27 115.072 2686.16 115.741C2688.38 121.025 2692.04 126.407 2695.49 131.651V131.651Z" fill="black"/>
<path d="M2772.86 129.778L2734.6 88.162C2743.6 71.9063 2754.87 55.7428 2762.51 39.4352C2745.11 47.0992 2727.69 55.2645 2710.35 61.8221C2705.4 56.4343 2700.42 51.0522 2695.49 45.6874C2690.57 51.0752 2685.59 56.4573 2680.64 61.8221C2663.3 55.2645 2645.86 47.0992 2628.48 39.4352C2636.12 55.7428 2647.39 71.9063 2656.41 88.162L2618.13 129.778C2636.78 126.24 2655.4 122.235 2674.03 118.155C2681.27 130.193 2688.58 142.231 2695.5 154.286C2702.56 142.231 2709.72 130.187 2716.98 118.155C2735.59 122.235 2754.19 126.24 2772.86 129.778ZM2758.99 42.5238C2747.84 64.2481 2733.64 86.1106 2721.15 107.766C2718.33 107.338 2715.54 106.73 2712.8 105.945C2722.1 90.6686 2731.35 75.4041 2739.82 60.0761C2732.37 62.6115 2724.84 66.3398 2717.38 69.4573L2712.13 63.7294C2727.8 55.5007 2743.32 50.4414 2758.99 42.5238ZM2728.84 98.0445C2733.06 102.654 2741.52 112.099 2741.52 112.099L2723.08 108.002C2723.08 108.002 2726.43 101.744 2728.84 98.0445ZM2695.49 102.332L2680.31 105.755C2680.31 105.755 2673.98 95.1172 2670.16 89.6199C2674.61 84.7852 2678.77 79.9736 2683.22 75.139C2687.33 77.4094 2691.37 78.8557 2695.49 80.6017C2699.62 78.873 2703.65 77.4094 2707.77 75.139C2712.22 79.9736 2716.38 84.7852 2720.82 89.6199C2717.01 95.1172 2710.67 105.755 2710.67 105.755L2695.49 102.332ZM2695.49 61.8106C2697.01 63.5393 2698.52 65.268 2700.05 66.7432C2698.52 67.5038 2697.01 68.1492 2695.49 68.7773C2693.98 68.1492 2692.46 67.5038 2690.94 66.7432C2692.47 65.2565 2693.98 63.545 2695.49 61.8106ZM2695.49 70.3793L2701.1 67.8841L2706.72 73.9923C2702.98 75.6864 2699.23 77.3537 2695.49 78.994C2691.75 77.346 2688.01 75.6787 2684.27 73.9923C2686.14 71.9562 2688.02 69.9202 2689.89 67.8841L2695.49 70.3793ZM2726.61 79.1727L2718.98 70.8806L2736.33 62.7268C2736.33 62.7268 2730.44 73.7445 2726.63 79.1727H2726.61ZM2695.49 47.8425C2705.97 59.2636 2725.71 81.0282 2725.71 81.0282L2721.59 87.8566C2721.59 87.8566 2704.55 69.2786 2695.49 59.4883C2686.44 69.2844 2669.41 87.8566 2669.41 87.8566L2665.29 81.0282C2665.29 81.0282 2685.01 59.2636 2695.49 47.8425V47.8425ZM2664.38 79.1727C2660.57 73.7445 2654.67 62.7268 2654.67 62.7268L2672.01 70.8806L2664.38 79.1727ZM2632 42.5238C2647.67 50.4414 2663.19 55.5007 2678.88 63.7294L2673.61 69.4573C2666.12 66.3398 2658.63 62.6115 2651.17 60.0761C2659.63 75.3925 2668.88 90.6686 2678.19 105.945C2675.45 106.728 2672.66 107.337 2669.84 107.766C2657.39 86.1106 2643.15 64.2481 2632 42.5238ZM2667.93 108.002L2649.49 112.099C2649.49 112.099 2657.96 102.626 2662.16 98.0445C2664.57 101.744 2667.93 108.002 2667.93 108.002ZM2622.47 127.375L2657.22 89.5738C2658.71 91.8624 2660.08 94.2262 2661.33 96.6558L2644.82 114.577C2661.73 111.408 2678.63 107.973 2695.49 104.066C2712.37 107.973 2729.25 111.408 2746.17 114.577L2729.66 96.6558C2730.91 94.2353 2732.28 91.8793 2733.76 89.5968L2768.53 127.398C2744.17 122.558 2719.86 117.216 2695.49 112.278C2671.14 117.193 2646.82 122.535 2622.47 127.375ZM2695.49 131.576C2693.55 128.245 2686.43 115.873 2686.43 115.873L2695.49 113.943L2704.56 115.85C2704.56 115.85 2697.44 128.245 2695.49 131.576ZM2695.49 151.203C2689.21 140.225 2682.47 128.96 2675.76 118.04C2678.82 117.256 2681.76 116.997 2684.4 116.271C2688.13 122.46 2691.77 129.173 2695.5 135.442C2699.23 129.173 2702.86 122.46 2706.6 116.271C2709.24 116.997 2712.18 117.256 2715.25 118.04C2708.52 128.96 2701.79 140.225 2695.49 151.203V151.203Z" fill="white"/>
<path d="M2711.16 82.7973L2710.52 84.0823L2705.72 78.6196L2706.98 77.905L2711.16 82.7973Z" fill="#F2F2F2"/>
<path d="M2719.23 89.3779L2712.19 82.7166L2705.08 102.384L2712.52 102.222L2719.23 89.3779Z" fill="black"/>
<path d="M2706.44 98.5287L2705.16 97.9697L2704.11 100.684L2695.49 96.7481V96.7423V96.7481L2686.05 101.058L2690.25 100.741L2695.49 98.1483L2698.99 99.8771L2698.93 99.8943L2700.09 100.419L2700.74 100.741L2700.82 100.747L2705 102.626L2706.44 98.5287Z" fill="white"/>
<path fill-rule="evenodd" clip-rule="evenodd" d="M2695.49 126.107L2700.25 117.879L2695.49 116.553V116.548V116.553L2690.75 117.879L2695.49 126.107V126.119V126.113V126.119V126.107Z" fill="white"/>
<path fill-rule="evenodd" clip-rule="evenodd" d="M2709.84 103.346L2715.6 86.8079L2718.05 89.3606L2709.84 103.346Z" fill="white"/>
<path fill-rule="evenodd" clip-rule="evenodd" d="M1349.17 53.1473C1362.88 98.2393 1318.34 151.721 1249.66 172.61C1180.98 193.5 1114.2 173.914 1100.48 128.822C1086.76 83.7301 1131.32 30.2485 1199.99 9.35895C1268.67 -11.5306 1335.46 8.08594 1349.17 53.1473Z" fill="black"/>
<path fill-rule="evenodd" clip-rule="evenodd" d="M1337.69 55.9003C1350.14 96.8589 1309.7 145.379 1247.36 164.344C1185.02 183.308 1124.41 165.494 1111.97 124.566C1099.52 83.6381 1139.96 35.0874 1202.29 16.1304C1264.63 -2.82667 1325.24 14.9801 1337.69 55.9003Z" stroke="#BCBEC0" stroke-width="1.93" stroke-miterlimit="10"/>
<path fill-rule="evenodd" clip-rule="evenodd" d="M1220.7 47.3344L1221.53 47.1044C1180.26 59.9111 1154.81 79.8958 1154.17 96.0078C1153.45 113.255 1182.41 119.259 1227.75 107.005C1273.1 94.7501 1310.46 70.8314 1311.19 53.5844C1311.57 44.6504 1301.99 39.2593 1286.43 37.8406C1305.48 38.6995 1317.42 44.2516 1317.42 54.1596C1317.42 73.063 1274.12 100.647 1220.74 115.785C1167.36 130.923 1124.07 127.856 1124.07 108.953C1124.07 90.0492 1167.33 62.4648 1220.7 47.3344Z" fill="white"/>
<path fill-rule="evenodd" clip-rule="evenodd" d="M1251.19 63.9832L1276.34 27.1887L1159.15 104.658L1228.59 74.5967L1217.09 96.7746L1271.07 69.0829L1278.19 83.0936L1289.65 42.8712L1251.19 63.9832Z" fill="white"/>
<path d="M1209.89 154.443C1209.13 154.369 1208.38 154.529 1207.72 154.901C1207.06 155.273 1206.54 155.839 1206.21 156.522C1205.27 158.431 1204.36 160.356 1203.44 162.273C1203.1 163.04 1202.68 163.715 1201.74 163.6C1200.81 163.485 1200.54 162.772 1200.4 161.928C1200.05 159.873 1199.63 157.825 1199.27 155.793C1199.18 154.962 1198.8 154.19 1198.2 153.605C1197.6 153.021 1196.82 152.662 1195.99 152.587C1193.84 152.273 1191.67 152.058 1189.55 151.644C1189.22 151.567 1188.9 151.415 1188.64 151.2C1188.37 150.985 1188.16 150.712 1188.02 150.402C1187.9 149.995 1188.51 149.144 1189 148.868C1190.78 147.787 1192.66 146.867 1194.49 145.87C1196.31 144.873 1197.01 143.485 1196.61 141.322L1195.55 135.555C1195.4 134.719 1195.29 133.883 1196.21 133.377C1197.13 132.871 1197.67 133.446 1198.25 133.999C1199.6 135.295 1200.94 136.598 1202.31 137.871C1204.23 139.658 1206.14 139.765 1208.31 138.285C1214.65 133.891 1221.79 131.499 1229.28 130.126C1240.71 128.032 1251.95 128.684 1262.87 132.879C1264.51 133.569 1266.11 134.357 1267.65 135.241C1267.95 135.402 1268.07 135.885 1268.27 136.222C1267.88 136.291 1267.46 136.514 1267.13 136.407C1258.94 133.822 1250.51 133.124 1242 133.439C1232.35 133.799 1223.98 137.603 1216.64 143.738C1216.1 144.197 1215.66 144.764 1215.35 145.403C1215.04 146.043 1214.87 146.74 1214.84 147.451C1214.82 148.161 1214.94 148.869 1215.21 149.527C1215.48 150.186 1215.88 150.782 1216.39 151.276C1216.95 151.752 1217.46 152.278 1217.92 152.848C1218.1 153.09 1218.23 153.367 1218.31 153.661C1218.38 153.955 1218.39 154.26 1218.34 154.558C1218.16 154.798 1217.93 154.992 1217.66 155.125C1217.4 155.259 1217.1 155.327 1216.8 155.325C1214.43 155.087 1212.07 154.727 1209.89 154.443Z" fill="white"/>
<path fill-rule="evenodd" clip-rule="evenodd" d="M1714.75 7.21801L1713.71 17.1155L1712.72 23.3335L1710.89 31.1852L1707.9 39.2027L1701.1 52.8903L1688.86 73.0523L1677.17 91.3695L1671.26 101.76L1667.38 113.11L1666.1 122.228L1666.74 132.824L1667.76 138.942L1669.52 144.31L1671.26 148.221L1673.94 153.112L1676.97 156.787L1681.02 161.954L1685.7 165.412L1690.4 168.715L1697.39 172.455L1702.66 174.149L1708.44 175.305L1713.97 175.948L1721.42 175.34L1725.8 174.626L1732.03 173.405L1735.9 171.877L1740.28 169.564L1744.8 166.337L1749.19 162.899L1752.93 158.486L1756.89 153.218L1760.16 146.628L1761.72 142.616L1763.53 136.806L1764.64 128.341L1764.2 121.474L1763.22 114.231L1762.03 110.023L1758.15 100.076L1755.48 94.9032L1751.02 88.3082L1746.3 80.532L1740.14 71.3784L1734.3 62.0037L1727.98 50.6836L1723.04 37.6746L1719.42 27.1739L1717 17.1155L1715.61 10.0078V7.38892L1715.37 6.03674H1714.93L1714.83 6.41374L1714.75 7.21801Z" fill="black"/>
<path d="M1713.89 181L1707.71 180.271L1701.47 179.004L1695.83 177.185L1688.14 173.058L1683.26 169.63L1678.16 165.875L1673.79 160.3L1670.55 156.324L1667.56 150.87L1665.67 146.597L1663.79 140.887L1662.68 134.116L1662 122.952L1663.4 113.055L1667.53 100.905L1673.8 89.8916L1685.79 71.112L1698.29 50.5378L1705.16 36.7145L1708.12 28.7824L1709.93 20.9911L1710.93 14.7731L1712.09 3.66916L1712.8 1H1717.69L1718.38 4.91075V7.57488L1719.75 14.572L1722.18 24.7158L1725.84 35.307L1730.82 48.4367L1737.19 59.812L1743.13 69.3627L1749.49 78.8329L1754.3 86.76L1759.01 93.737L1761.88 99.3116L1765.95 109.777L1767.22 114.301L1768.28 122.123L1768.75 129.441L1767.53 138.635L1765.52 145.009L1763.82 149.352L1760.37 156.324L1756.04 162.06L1752.02 166.81L1747.2 170.585L1742.24 174.103L1737.47 176.617L1733.25 178.276L1726.53 179.598L1721.82 180.352L1713.89 181ZM1708.68 174.827L1713.98 175.425L1721.24 174.832L1725.59 174.118L1731.69 172.922L1735.29 171.505L1739.49 169.288L1743.93 166.116L1748.16 162.803L1751.77 158.541L1755.64 153.409L1758.82 146.974L1760.33 143.059L1762.09 137.414L1763.17 129.225L1762.74 122.545L1761.77 115.402L1760.63 111.381L1756.76 101.428L1754.15 96.4012L1749.59 89.6503L1744.78 81.7183L1738.45 72.2983L1732.37 62.5767L1725.8 50.764L1720.64 37.1418L1716.84 26.0831L1715.56 20.7749L1715.34 22.1221L1713.36 30.5267L1710.18 39.0217L1703.08 53.3075L1690.49 74.0626L1678.52 92.8071L1672.61 103.187L1668.8 114.346L1667.55 123.173L1668.19 133.634L1669.2 139.56L1670.88 144.763L1672.56 148.523L1675.13 153.218L1678.12 156.827L1682.05 161.853L1686.53 165.161L1691.18 168.433L1698 172.078L1703.02 173.696L1708.68 174.827Z" fill="white"/>
<path d="M1738.68 108.641C1740.18 109.355 1741.66 110.059 1743.14 110.742C1744.15 111.205 1743.74 112.049 1743.64 112.723C1742.09 122.027 1737.2 129.024 1728.92 133.553C1723.73 136.368 1717.78 137.448 1711.93 136.635C1710.96 136.519 1710.51 136.187 1710.46 135.172C1710.31 132.085 1710.09 129.004 1709.89 125.873C1724.2 127.783 1733.59 122.143 1738.68 108.641Z" fill="white"/>
<path d="M1721.61 124.194C1717.95 112.406 1705.53 105.444 1694.01 107.897C1693.37 105.987 1693.21 103.951 1693.54 101.966C1693.58 101.669 1694.18 101.342 1694.55 101.217C1700.84 99.1445 1707.67 99.3725 1713.81 101.86C1721.64 104.962 1726.8 110.687 1729.94 118.388C1730.32 119.323 1730.19 119.896 1729.4 120.549C1727.13 122.37 1724.46 123.619 1721.61 124.194Z" fill="white"/>
<path d="M1715.48 147.125C1713.84 148.221 1712.33 149.317 1710.71 150.247C1710.39 150.433 1709.56 150.131 1709.21 149.799C1703.98 145.26 1700.63 138.951 1699.78 132.085C1698.69 124.118 1700.98 117.086 1705.73 110.727C1706.37 109.873 1706.97 109.636 1707.98 110.023C1710.71 111.081 1713.16 112.761 1715.13 114.929C1710.95 119.453 1709.18 124.852 1709.09 130.944C1708.98 137.152 1711.32 142.32 1715.48 147.125Z" fill="white"/>
<path d="M1755.58 135.237C1755.32 132.377 1755.16 129.15 1754.69 125.968C1753.08 115.03 1743.59 107.993 1733.52 107.535C1731.16 107.43 1728.75 108.038 1726.39 108.4C1726.01 108.5 1725.62 108.5 1725.24 108.399C1724.86 108.299 1724.52 108.101 1724.25 107.827C1722.06 105.816 1719.77 103.956 1717.59 102.091C1724.76 98.07 1737.7 99.0753 1746.88 106.937C1755.64 114.432 1758.51 127.225 1755.58 135.237Z" fill="white"/>
<path d="M1698.81 131.271C1691.8 125.687 1687.91 118.755 1687.51 110.079C1687 99.5981 1691.4 91.3996 1699.93 85.3475C1699.72 85.5938 1699.51 85.8502 1699.28 86.0814C1694.84 90.4152 1692.3 96.3357 1692.21 102.543C1692.13 108.75 1694.51 114.736 1698.84 119.187C1699.67 120.042 1699.78 120.74 1699.58 121.896C1699.16 124.44 1699.04 127.034 1698.82 129.612C1698.78 130.05 1698.81 130.502 1698.81 131.271Z" fill="white"/>
<path d="M1686.43 150.795C1686.79 150.981 1687.14 151.152 1687.49 151.348C1692.53 154.291 1698.5 155.201 1704.19 153.891C1710.72 152.383 1715.6 148.241 1719.39 142.833C1720.36 141.45 1721.01 139.852 1721.84 138.374C1722.06 137.987 1722.34 137.494 1722.68 137.338C1725.4 136.192 1728.15 135.117 1731.04 133.96C1729.28 143.064 1724.12 149.593 1715.86 153.725C1705.35 158.973 1693.45 156.726 1686.43 150.795Z" fill="white"/>
<path d="M1675.64 133.609C1672.81 121.233 1679.74 109.481 1686.99 105.213C1686.99 106.796 1687.02 108.435 1686.96 110.069C1686.93 110.285 1686.86 110.494 1686.75 110.683C1686.64 110.872 1686.5 111.037 1686.32 111.169C1678.83 116.317 1675.27 123.399 1675.64 132.493C1675.66 132.865 1675.64 133.237 1675.64 133.609Z" fill="white"/>
<path d="M1717.32 154.424C1718.58 153.6 1719.71 152.826 1720.88 152.132C1721.05 152.036 1721.24 151.975 1721.43 151.954C1721.63 151.934 1721.83 151.953 1722.01 152.011C1729.75 155.565 1737.29 155.178 1744.66 150.936C1744.72 150.9 1744.82 150.936 1744.91 150.936C1738.15 156.827 1725.92 158.476 1717.32 154.424Z" fill="white"/>
<path d="M1743.36 103.745C1742.07 103.072 1740.88 102.498 1739.75 101.835C1739.58 101.731 1739.44 101.594 1739.33 101.433C1739.22 101.273 1739.14 101.091 1739.1 100.9C1738.59 95.11 1735.97 89.7098 1731.74 85.7195C1731.69 85.6523 1731.65 85.5776 1731.63 85.4983C1736.46 87.5894 1743.2 97.9695 1743.36 103.745Z" fill="white"/>
<path d="M1715.5 96.5821L1713.62 87.2727C1713.59 87.1278 1713.52 86.9948 1713.42 86.8902C1713.31 86.7857 1713.18 86.7142 1713.04 86.6846L1703.72 84.8046C1703.55 84.7727 1703.39 84.6816 1703.28 84.5471C1703.17 84.4126 1703.11 84.2432 1703.11 84.0682C1703.11 83.8933 1703.17 83.7239 1703.28 83.5894C1703.39 83.4548 1703.55 83.3637 1703.72 83.3318L1713.03 81.4569C1713.18 81.4273 1713.31 81.3558 1713.41 81.2512C1713.52 81.1467 1713.59 81.0137 1713.62 80.8688L1715.5 58.7514C1715.53 58.5822 1715.62 58.4301 1715.76 58.3209C1715.89 58.2116 1716.06 58.152 1716.23 58.152C1716.4 58.152 1716.57 58.2116 1716.71 58.3209C1716.84 58.4301 1716.93 58.5822 1716.97 58.7514L1718.85 80.8688C1718.88 81.0137 1718.95 81.1467 1719.05 81.2512C1719.16 81.3558 1719.29 81.4273 1719.43 81.4569L1728.74 83.3318C1728.91 83.3687 1729.06 83.4619 1729.17 83.5958C1729.28 83.7297 1729.34 83.8964 1729.34 84.0682C1729.34 84.2401 1729.28 84.4068 1729.17 84.5407C1729.06 84.6746 1728.91 84.7677 1728.74 84.8046L1719.43 86.6846C1719.29 86.7142 1719.16 86.7857 1719.05 86.8902C1718.95 86.9948 1718.88 87.1278 1718.85 87.2727L1716.97 96.5821C1716.93 96.7487 1716.84 96.8978 1716.7 97.0046C1716.57 97.1115 1716.41 97.1697 1716.23 97.1697C1716.06 97.1697 1715.9 97.1115 1715.77 97.0046C1715.63 96.8978 1715.54 96.7487 1715.5 96.5821Z" fill="white" stroke="black" stroke-width="2" stroke-linecap="round" stroke-linejoin="round"/>
</svg>
