<svg width="27" height="9" viewBox="0 0 27 9" fill="none" xmlns="http://www.w3.org/2000/svg">
<path d="M26.2134 4.84194C26.4408 4.64933 26.4928 4.33706 26.3296 4.14445L23.6708 1.00577C23.5076 0.81316 23.191 0.81316 22.9637 1.00577C22.7363 1.19837 22.6843 1.51065 22.8474 1.70325L25.2109 4.49319L21.9174 7.28314C21.6901 7.47574 21.638 7.78802 21.8012 7.98062C21.9644 8.17323 22.2809 8.17323 22.5083 7.98062L26.2134 4.84194ZM0.622539 4.14445C0.395176 4.33706 0.34313 4.64933 0.506292 4.84194L3.16516 7.98062C3.32832 8.17323 3.6449 8.17323 3.87226 7.98062C4.09963 7.78802 4.15167 7.47574 3.98851 7.28314L1.62508 4.49319L4.91849 1.70325C5.14586 1.51065 5.1979 1.19837 5.03474 1.00577C4.87158 0.81316 4.555 0.81316 4.32763 1.00577L0.622539 4.14445ZM26.0002 4L1.00017 4L0.835769 4.98639L25.8358 4.98639L26.0002 4Z" fill="white"/>
</svg>
