<svg width="870" height="700" viewBox="0 0 870 700" fill="none" xmlns="http://www.w3.org/2000/svg">
<path d="M459.456 83.0738C469.047 83.0738 476.823 75.2317 476.823 65.5579C476.823 55.8841 469.047 48.042 459.456 48.042C449.864 48.042 442.088 55.8841 442.088 65.5579C442.088 75.2317 449.864 83.0738 459.456 83.0738Z" fill="white"/>
<path d="M459.456 653.398C469.047 653.398 476.823 645.556 476.823 635.882C476.823 626.208 469.047 618.366 459.456 618.366C449.864 618.366 442.088 626.208 442.088 635.882C442.088 645.556 449.864 653.398 459.456 653.398Z" fill="white"/>
<path d="M744.128 368.043C753.72 368.043 761.496 360.201 761.496 350.527C761.496 340.853 753.72 333.011 744.128 333.011C734.536 333.011 726.761 340.853 726.761 350.527C726.761 360.201 734.536 368.043 744.128 368.043Z" fill="white"/>
<path d="M175.258 368.043C184.85 368.043 192.625 360.201 192.625 350.527C192.625 340.853 184.85 333.011 175.258 333.011C165.666 333.011 157.891 340.853 157.891 350.527C157.891 360.201 165.666 368.043 175.258 368.043Z" fill="white"/>
<path d="M515.032 561.141C512.513 558.61 509.519 556.6 506.221 555.229C502.924 553.858 499.388 553.152 495.816 553.152H491.361V555.974H495.816C502.277 555.995 508.466 558.571 513.034 563.139C517.603 567.708 520.179 573.897 520.2 580.358C520.181 586.818 517.605 593.008 513.036 597.576C508.467 602.143 502.276 604.717 495.816 604.734H487.648V607.563H495.816C503.026 607.544 509.935 604.671 515.034 599.574C520.133 594.476 523.008 587.568 523.029 580.358C523.028 576.786 522.32 573.249 520.948 569.952C519.576 566.654 517.565 563.66 515.032 561.141Z" fill="white"/>
<path d="M406.099 597.577C403.825 595.322 402.02 592.64 400.786 589.685C399.553 586.73 398.916 583.56 398.911 580.358C398.933 573.897 401.509 567.708 406.077 563.139C410.645 558.571 416.835 555.995 423.296 555.974H427.751V553.152H423.296C416.086 553.172 409.176 556.044 404.077 561.142C398.978 566.239 396.104 573.148 396.083 580.358C396.104 587.568 398.978 594.476 404.077 599.574C409.176 604.671 416.086 607.544 423.296 607.563H431.463V604.734H423.296C420.1 604.73 416.936 604.096 413.985 602.867C411.034 601.639 408.354 599.841 406.099 597.577Z" fill="white"/>
<path d="M438.198 566.027C434.882 562.714 430.519 560.652 425.854 560.195C421.189 559.737 416.509 560.91 412.612 563.516C408.715 566.122 405.842 569.998 404.482 574.484C403.123 578.97 403.361 583.789 405.156 588.12C406.951 592.45 410.192 596.025 414.327 598.234C418.461 600.442 423.234 601.149 427.832 600.234C432.429 599.318 436.567 596.837 439.54 593.213C442.514 589.589 444.138 585.046 444.138 580.358C444.14 577.696 443.616 575.06 442.597 572.6C441.577 570.141 440.082 567.907 438.198 566.027ZM442.853 579.727H438.264C438.212 576.452 437.555 573.214 436.327 570.178H439.883C441.711 573.037 442.737 576.335 442.853 579.727ZM430.631 579.727C430.616 576.525 430.326 573.33 429.763 570.178H434.96C436.263 573.196 436.96 576.44 437.01 579.727H430.631ZM437.032 580.989C436.982 584.273 436.285 587.515 434.983 590.53H429.785C430.348 587.381 430.638 584.189 430.654 580.989H437.032ZM437.299 566.926C437.915 567.548 438.486 568.213 439.007 568.916H435.77C435.296 567.94 434.745 567.004 434.121 566.117C433.255 564.858 432.212 563.73 431.025 562.768C433.374 563.72 435.507 565.134 437.299 566.926ZM433.111 566.844C433.576 567.507 433.998 568.199 434.374 568.916H429.503C429.295 567.98 429.065 567.097 428.812 566.287C428.359 564.68 427.636 563.16 426.674 561.795C429.314 562.729 431.576 564.502 433.111 566.844ZM418.373 579.727C418.387 576.523 418.687 573.328 419.271 570.178H428.471C429.049 573.328 429.345 576.524 429.354 579.727H418.373ZM429.369 580.989C429.355 584.19 429.054 587.383 428.471 590.53H419.271C418.688 587.383 418.387 584.19 418.373 580.989H429.369ZM423.875 561.364C425.256 561.364 426.577 563.391 427.587 566.666C427.81 567.364 428.01 568.106 428.189 568.894H419.538C419.716 568.092 419.917 567.349 420.14 566.666C421.187 563.391 422.486 561.364 423.875 561.364ZM418.959 566.287C418.707 567.097 418.476 567.98 418.269 568.916H413.398C413.774 568.199 414.195 567.507 414.66 566.844C416.196 564.502 418.457 562.729 421.098 561.795C420.135 563.16 419.412 564.68 418.959 566.287ZM417.14 579.727H410.739C410.793 576.441 411.489 573.197 412.789 570.178H417.986C417.417 573.329 417.124 576.524 417.11 579.727H417.14ZM418.016 590.53H412.818C411.519 587.514 410.823 584.273 410.769 580.989H417.17C417.164 584.187 417.437 587.38 417.986 590.53H418.016ZM410.472 566.926C412.258 565.136 414.383 563.722 416.724 562.768C415.537 563.73 414.494 564.858 413.628 566.117C413.004 567.002 412.455 567.939 411.987 568.916H408.712C409.241 568.212 409.819 567.547 410.442 566.926H410.472ZM407.821 570.178H411.378C410.149 573.214 409.492 576.452 409.44 579.727H404.881C404.988 576.338 406.004 573.04 407.821 570.178ZM404.851 580.989H409.41C409.462 584.262 410.119 587.497 411.348 590.53H407.821C406.005 587.671 404.992 584.375 404.888 580.989H404.851ZM410.405 593.79C409.782 593.169 409.204 592.504 408.675 591.8H411.92C412.388 592.777 412.937 593.714 413.561 594.599C414.454 595.86 415.522 596.987 416.732 597.948C414.379 596.995 412.241 595.581 410.442 593.79H410.405ZM414.593 593.872C414.129 593.209 413.707 592.517 413.331 591.8H418.217C418.424 592.736 418.655 593.612 418.907 594.421C419.363 596.017 420.086 597.523 421.046 598.876C418.419 597.952 416.166 596.194 414.63 593.872H414.593ZM423.875 599.359C422.486 599.359 421.164 597.332 420.162 594.057C419.939 593.359 419.739 592.572 419.561 591.83H428.226C428.047 592.624 427.847 593.382 427.624 594.057C426.577 597.324 425.256 599.359 423.875 599.359ZM428.812 594.429C429.065 593.619 429.295 592.743 429.503 591.808H434.374C433.998 592.524 433.576 593.216 433.111 593.879C431.576 596.219 429.314 597.991 426.674 598.921C427.638 597.554 428.362 596.032 428.812 594.421V594.429ZM437.299 593.797C435.512 595.585 433.387 596.998 431.047 597.956C432.231 596.99 433.273 595.862 434.144 594.607C434.767 593.719 435.318 592.783 435.792 591.808H439.007C438.486 592.508 437.915 593.171 437.299 593.79V593.797ZM439.913 590.538H436.356C437.577 587.5 438.224 584.263 438.264 580.989H442.824C442.726 584.373 441.721 587.669 439.913 590.53V590.538Z" fill="white"/>
<path d="M511.328 577.744C511.817 576.08 511.967 574.335 511.771 572.612C511.574 570.89 511.035 569.223 510.185 567.712C508.89 565.306 506.832 563.399 504.334 562.292C502.26 561.432 500.056 560.93 497.815 560.807C495.138 560.527 492.434 560.883 489.922 561.846C486.758 563.032 484.137 565.332 482.548 568.314C481.487 570.327 481.099 572.628 481.442 574.878C481.516 575.221 481.512 575.576 481.431 575.918C481.35 576.26 481.194 576.579 480.974 576.853C480.232 577.788 479.489 578.716 478.747 579.659C478.471 579.966 478.223 580.297 478.004 580.647C477.885 580.824 477.805 581.024 477.771 581.234C477.736 581.444 477.746 581.659 477.802 581.865C477.858 582.071 477.957 582.262 478.093 582.426C478.229 582.59 478.399 582.723 478.591 582.815C478.946 583.014 479.316 583.186 479.697 583.327C480.054 583.468 480.158 583.654 479.979 584.003C479.861 584.241 479.66 584.441 479.564 584.679C479.463 584.882 479.445 585.116 479.512 585.332C479.758 585.71 480.028 586.073 480.321 586.416L480.217 586.542C480.104 586.644 480.014 586.77 479.954 586.91C479.895 587.05 479.867 587.202 479.873 587.355C479.878 587.507 479.917 587.656 479.987 587.792C480.057 587.927 480.156 588.046 480.276 588.139C480.39 588.266 480.517 588.381 480.655 588.48C481.012 588.725 481.026 588.963 480.766 589.319C480.568 589.608 480.432 589.934 480.366 590.277C480.292 590.854 480.407 591.439 480.694 591.945C480.98 592.45 481.422 592.85 481.954 593.084C482.432 593.264 482.931 593.379 483.44 593.426C484.405 593.515 485.377 593.522 486.35 593.596C486.665 593.601 486.969 593.713 487.211 593.914C487.453 594.115 487.618 594.394 487.679 594.703C487.768 595.029 487.843 595.363 487.932 595.69C488.154 596.574 488.533 597.762 488.771 598.66L508.774 598.697C508.826 598.571 508.707 598.445 508.707 598.319C508.683 598.167 508.638 598.02 508.574 597.881C507.573 595.091 506.975 592.174 506.799 589.216C506.647 587.183 507.25 585.166 508.492 583.55C509.838 581.838 510.805 579.858 511.328 577.744Z" fill="white"/>
<path d="M460.941 580.639C460.929 581.331 460.645 581.991 460.15 582.475C459.655 582.958 458.989 583.227 458.297 583.223C457.941 583.236 457.586 583.176 457.254 583.047C456.922 582.918 456.619 582.723 456.364 582.473C456.11 582.224 455.909 581.925 455.773 581.595C455.638 581.266 455.571 580.912 455.576 580.556C455.582 580.199 455.66 579.848 455.806 579.522C455.951 579.197 456.162 578.905 456.424 578.663C456.686 578.422 456.994 578.236 457.331 578.118C457.667 577.999 458.023 577.95 458.379 577.974C459.071 577.991 459.728 578.281 460.208 578.78C460.687 579.279 460.951 579.947 460.941 580.639Z" fill="white"/>
<path d="M463.561 572.739C464.079 572.739 464.584 572.893 465.014 573.18C465.444 573.468 465.779 573.876 465.977 574.354C466.174 574.832 466.226 575.358 466.124 575.866C466.023 576.373 465.773 576.838 465.407 577.204C465.041 577.569 464.574 577.817 464.067 577.917C463.559 578.017 463.034 577.964 462.556 577.766C462.079 577.567 461.671 577.23 461.385 576.8C461.098 576.369 460.946 575.863 460.948 575.346C460.956 574.655 461.234 573.996 461.722 573.509C462.211 573.021 462.871 572.745 463.561 572.739Z" fill="white"/>
<path d="M471.432 580.572C471.433 581.089 471.281 581.595 470.996 582.026C470.71 582.456 470.302 582.792 469.825 582.992C469.348 583.191 468.823 583.244 468.316 583.145C467.808 583.045 467.342 582.798 466.975 582.433C466.609 582.069 466.359 581.604 466.256 581.097C466.154 580.59 466.204 580.065 466.401 579.586C466.597 579.108 466.931 578.699 467.36 578.411C467.789 578.122 468.294 577.968 468.811 577.966C469.154 577.965 469.494 578.032 469.812 578.162C470.129 578.293 470.418 578.484 470.661 578.726C470.904 578.968 471.098 579.256 471.23 579.573C471.362 579.889 471.431 580.229 471.432 580.572Z" fill="white"/>
<path d="M458.313 593.708C457.795 593.703 457.291 593.545 456.863 593.254C456.435 592.962 456.104 592.55 455.911 592.07C455.717 591.59 455.671 591.063 455.778 590.557C455.884 590.05 456.138 589.587 456.508 589.225C456.879 588.863 457.348 588.62 457.856 588.525C458.365 588.43 458.891 588.488 459.366 588.693C459.842 588.897 460.246 589.238 460.528 589.672C460.81 590.106 460.956 590.614 460.949 591.131C460.935 591.821 460.651 592.477 460.158 592.959C459.665 593.441 459.002 593.71 458.313 593.708Z" fill="white"/>
<path d="M453.055 577.967C452.537 577.964 452.032 577.807 451.603 577.516C451.175 577.226 450.842 576.814 450.648 576.334C450.453 575.854 450.406 575.327 450.511 574.82C450.617 574.313 450.871 573.849 451.241 573.486C451.61 573.124 452.08 572.879 452.589 572.784C453.098 572.689 453.623 572.747 454.099 572.951C454.576 573.154 454.98 573.495 455.262 573.93C455.544 574.364 455.691 574.872 455.684 575.39C455.682 575.732 455.612 576.071 455.479 576.386C455.345 576.701 455.151 576.987 454.906 577.226C454.662 577.466 454.372 577.654 454.055 577.781C453.737 577.909 453.397 577.971 453.055 577.967Z" fill="white"/>
<path d="M450.464 585.852C450.466 585.335 450.62 584.83 450.909 584.401C451.198 583.972 451.608 583.638 452.086 583.442C452.565 583.245 453.091 583.196 453.598 583.299C454.105 583.401 454.569 583.652 454.934 584.02C455.298 584.387 455.545 584.854 455.643 585.362C455.742 585.87 455.688 586.395 455.487 586.872C455.287 587.349 454.95 587.756 454.518 588.041C454.087 588.326 453.58 588.476 453.063 588.474C452.719 588.475 452.379 588.407 452.062 588.276C451.745 588.144 451.457 587.951 451.215 587.707C450.973 587.463 450.782 587.173 450.653 586.855C450.524 586.537 450.46 586.196 450.464 585.852Z" fill="white"/>
<path d="M665.013 307.662C665.258 307.641 665.504 307.673 665.735 307.756C665.967 307.839 666.178 307.97 666.354 308.141C666.531 308.312 666.669 308.518 666.759 308.747C666.849 308.975 666.889 309.221 666.876 309.466C666.888 309.721 666.843 309.976 666.745 310.212C666.648 310.448 666.5 310.659 666.312 310.832C665.905 311.195 665.371 311.382 664.827 311.352C664.324 311.369 663.831 311.211 663.431 310.907C663.249 310.757 663.1 310.571 662.995 310.359C662.89 310.148 662.831 309.917 662.822 309.681H663.802C663.829 309.923 663.949 310.144 664.137 310.298C664.334 310.45 664.578 310.529 664.827 310.52C664.964 310.525 665.1 310.502 665.228 310.452C665.356 310.402 665.472 310.327 665.57 310.231C665.756 310.021 665.86 309.75 665.86 309.47C665.86 309.189 665.756 308.918 665.57 308.709C665.472 308.613 665.356 308.537 665.228 308.488C665.1 308.438 664.964 308.415 664.827 308.419C664.631 308.401 664.435 308.444 664.265 308.543C664.094 308.641 663.959 308.79 663.877 308.969H662.948L663.453 305.798H666.594V306.667H664.263L664.025 308.018C664.302 307.787 664.652 307.661 665.013 307.662Z" fill="white"/>
<path d="M670.76 308.345C671.044 308.433 671.29 308.613 671.461 308.856C671.632 309.099 671.717 309.392 671.703 309.689C671.715 309.921 671.668 310.152 671.568 310.362C671.469 310.572 671.319 310.753 671.132 310.891C670.67 311.192 670.131 311.352 669.58 311.352C669.029 311.352 668.49 311.192 668.028 310.891C667.842 310.752 667.693 310.57 667.594 310.36C667.494 310.151 667.447 309.92 667.456 309.689C667.445 309.392 667.532 309.101 667.702 308.858C667.872 308.615 668.117 308.435 668.399 308.345C668.172 308.248 667.979 308.085 667.847 307.877C667.714 307.669 667.648 307.426 667.657 307.179C667.651 306.967 667.695 306.757 667.787 306.565C667.879 306.374 668.015 306.208 668.184 306.08C668.594 305.818 669.071 305.679 669.558 305.679C670.044 305.679 670.521 305.818 670.931 306.08C671.1 306.208 671.236 306.374 671.328 306.565C671.42 306.757 671.465 306.967 671.458 307.179C671.469 307.42 671.409 307.659 671.285 307.867C671.16 308.074 670.978 308.24 670.76 308.345ZM669.58 310.52C669.869 310.541 670.157 310.456 670.389 310.283C670.481 310.198 670.554 310.095 670.604 309.981C670.654 309.866 670.679 309.743 670.679 309.618C670.679 309.493 670.654 309.37 670.604 309.255C670.554 309.141 670.481 309.038 670.389 308.953C670.156 308.781 669.869 308.697 669.58 308.716C669.29 308.695 669.003 308.78 668.77 308.953C668.679 309.038 668.606 309.141 668.556 309.255C668.506 309.37 668.48 309.493 668.48 309.618C668.48 309.743 668.506 309.866 668.556 309.981C668.606 310.095 668.679 310.198 668.77 310.283C669.003 310.456 669.29 310.541 669.58 310.52ZM670.278 306.652C670.074 306.509 669.828 306.438 669.58 306.451C669.331 306.439 669.086 306.51 668.882 306.652C668.796 306.721 668.728 306.809 668.68 306.909C668.633 307.008 668.609 307.117 668.609 307.227C668.609 307.337 668.633 307.446 668.68 307.546C668.728 307.645 668.796 307.733 668.882 307.803C669.088 307.946 669.336 308.016 669.587 308.003C669.836 308.016 670.081 307.945 670.285 307.803C670.37 307.734 670.438 307.647 670.483 307.548C670.528 307.448 670.549 307.34 670.545 307.231C670.545 307.122 670.521 307.014 670.475 306.915C670.429 306.816 670.362 306.729 670.278 306.659V306.652Z" fill="white"/>
<path d="M665.689 323.054L666.647 320.247H667.701L665.756 325.683H664.553L662.563 320.247H663.662L664.642 323.054C664.872 323.745 665.043 324.309 665.162 324.747C665.305 324.242 665.481 323.678 665.689 323.054Z" fill="white"/>
<path d="M672.468 325.683H671.414L670.99 324.48H668.607L668.191 325.683H667.129L669.186 320.247H670.396L672.468 325.683ZM669.09 323.017L668.882 323.603H670.671L670.456 323.017C670.278 322.564 670.055 321.948 669.78 321.153C669.543 321.784 669.32 322.401 669.09 323.017Z" fill="white"/>
<path d="M676.612 321.658V320.247H677.599V325.683H676.456L674.971 323.262C674.555 322.616 674.228 322.074 673.998 321.628C673.998 322.2 673.998 323.113 673.998 324.257V325.683H673.003V320.247H674.146L675.631 322.668C676.084 323.41 676.374 323.945 676.597 324.301C676.612 323.544 676.612 322.668 676.612 321.658Z" fill="white"/>
<path d="M662.972 327.873H665.051C665.419 327.852 665.788 327.907 666.134 328.035C666.48 328.163 666.796 328.36 667.063 328.615C667.312 328.882 667.506 329.194 667.633 329.536C667.761 329.878 667.819 330.241 667.805 330.605C667.82 330.968 667.761 331.331 667.634 331.671C667.506 332.012 667.312 332.323 667.063 332.588C666.797 332.844 666.481 333.042 666.135 333.17C665.788 333.297 665.419 333.352 665.051 333.33H662.972V327.873ZM663.989 332.424H665.021C665.249 332.439 665.477 332.404 665.689 332.322C665.902 332.24 666.095 332.112 666.254 331.949C666.534 331.551 666.684 331.077 666.684 330.59C666.684 330.104 666.534 329.629 666.254 329.232C666.093 329.07 665.901 328.944 665.688 328.862C665.476 328.78 665.248 328.744 665.021 328.756H663.989V332.424Z" fill="white"/>
<path d="M672.84 331.868L672.884 332.677C672.884 332.899 672.943 333.117 673.055 333.308H671.993C671.894 333.105 671.846 332.881 671.852 332.655V332.061C671.866 331.81 671.784 331.563 671.622 331.37C671.441 331.228 671.213 331.159 670.983 331.177H669.64V333.308H668.607V327.873H671.073C671.577 327.844 672.076 327.991 672.483 328.289C672.649 328.424 672.781 328.595 672.868 328.79C672.956 328.985 672.997 329.197 672.988 329.41C673.007 329.698 672.927 329.983 672.761 330.218C672.595 330.454 672.352 330.624 672.075 330.702C672.315 330.764 672.525 330.909 672.669 331.111C672.792 331.343 672.851 331.605 672.84 331.868ZM669.617 328.72V330.368H670.991C671.235 330.385 671.477 330.308 671.667 330.153C671.749 330.07 671.813 329.972 671.854 329.863C671.895 329.754 671.912 329.638 671.904 329.522C671.91 329.411 671.892 329.299 671.849 329.197C671.807 329.094 671.742 329.002 671.659 328.928C671.445 328.771 671.181 328.698 670.917 328.72H669.617Z" fill="white"/>
<path d="M676.3 333.427C675.936 333.443 675.572 333.382 675.233 333.248C674.894 333.113 674.587 332.909 674.332 332.648C673.847 332.072 673.582 331.344 673.582 330.591C673.582 329.838 673.847 329.11 674.332 328.534C674.865 328.033 675.569 327.755 676.3 327.755C677.031 327.755 677.735 328.033 678.268 328.534C678.743 329.114 679.003 329.841 679.003 330.591C679.003 331.341 678.743 332.068 678.268 332.648C678.012 332.908 677.705 333.112 677.366 333.246C677.028 333.381 676.664 333.442 676.3 333.427ZM674.659 330.569C674.63 331.078 674.789 331.579 675.104 331.979C675.257 332.144 675.442 332.274 675.648 332.364C675.854 332.453 676.076 332.5 676.3 332.5C676.524 332.5 676.746 332.453 676.952 332.364C677.157 332.274 677.343 332.144 677.495 331.979C677.781 331.564 677.934 331.072 677.934 330.569C677.934 330.065 677.781 329.573 677.495 329.158C677.343 328.994 677.157 328.863 676.952 328.773C676.746 328.684 676.524 328.638 676.3 328.638C676.076 328.638 675.854 328.684 675.648 328.773C675.442 328.863 675.257 328.994 675.104 329.158C674.79 329.559 674.632 330.06 674.659 330.569Z" fill="white"/>
<path d="M679.819 327.873H682.21C682.726 327.842 683.232 328.016 683.621 328.356C683.949 328.704 684.132 329.165 684.132 329.644C684.132 330.123 683.949 330.584 683.621 330.932C683.231 331.269 682.725 331.44 682.21 331.407H680.851V333.308H679.819V327.873ZM680.851 330.524H682.166C682.414 330.541 682.659 330.461 682.849 330.301C683.007 330.119 683.094 329.885 683.094 329.644C683.094 329.402 683.007 329.169 682.849 328.987C682.66 328.824 682.415 328.741 682.166 328.756H680.851V330.524Z" fill="white"/>
<path d="M665.377 341.052C665.025 341.072 664.674 341.015 664.346 340.887C664.018 340.759 663.721 340.562 663.476 340.31C663.222 340.032 663.026 339.706 662.898 339.352C662.771 338.998 662.715 338.622 662.733 338.246C662.7 337.484 662.966 336.74 663.476 336.174C663.723 335.922 664.021 335.725 664.35 335.597C664.679 335.469 665.032 335.412 665.384 335.432C665.968 335.416 666.541 335.597 667.01 335.944C667.47 336.313 667.771 336.844 667.849 337.429H666.802C666.731 337.11 666.553 336.824 666.298 336.62C666.033 336.427 665.711 336.328 665.384 336.337C665.166 336.328 664.949 336.369 664.75 336.46C664.551 336.55 664.377 336.686 664.241 336.857C663.969 337.282 663.824 337.775 663.824 338.279C663.824 338.783 663.969 339.277 664.241 339.701C664.378 339.871 664.552 340.005 664.751 340.094C664.95 340.183 665.167 340.224 665.384 340.213C665.735 340.22 666.077 340.101 666.35 339.879C666.624 339.642 666.799 339.311 666.84 338.951H667.872C667.854 339.259 667.774 339.559 667.634 339.834C667.495 340.109 667.3 340.352 667.062 340.547C666.577 340.907 665.98 341.086 665.377 341.052Z" fill="white"/>
<path d="M675.372 338.551H668.444V337.734H675.35L675.372 338.551Z" fill="white"/>
<path d="M680.48 339.478L680.525 340.288C680.518 340.509 680.575 340.728 680.688 340.919H679.634C679.528 340.718 679.477 340.492 679.485 340.265V339.671C679.497 339.422 679.418 339.176 679.262 338.981C679.079 338.837 678.848 338.768 678.616 338.788H677.272V340.963H676.24V335.528H678.705C679.21 335.498 679.709 335.645 680.116 335.944C680.282 336.079 680.413 336.25 680.501 336.445C680.589 336.64 680.63 336.852 680.621 337.065C680.641 337.353 680.562 337.638 680.397 337.875C680.233 338.111 679.992 338.284 679.715 338.365C679.954 338.424 680.163 338.569 680.302 338.773C680.421 338.989 680.483 339.232 680.48 339.478ZM677.25 336.33V337.993H678.624C678.868 338.011 679.11 337.934 679.299 337.778C679.383 337.697 679.447 337.598 679.488 337.489C679.53 337.38 679.546 337.263 679.537 337.147C679.543 337.036 679.524 336.925 679.482 336.822C679.44 336.719 679.375 336.627 679.292 336.553C679.078 336.396 678.814 336.322 678.549 336.345L677.25 336.33Z" fill="white"/>
<path d="M683.932 341.053C683.571 341.072 683.209 341.016 682.87 340.888C682.532 340.76 682.223 340.564 681.965 340.31C681.481 339.733 681.215 339.003 681.215 338.25C681.215 337.496 681.481 336.767 681.965 336.189C682.497 335.689 683.201 335.41 683.932 335.41C684.663 335.41 685.367 335.689 685.9 336.189C686.153 336.466 686.349 336.79 686.477 337.143C686.604 337.496 686.661 337.871 686.642 338.246C686.677 339.005 686.41 339.747 685.9 340.31C685.641 340.563 685.332 340.759 684.994 340.887C684.655 341.015 684.294 341.071 683.932 341.053ZM682.291 338.216C682.261 338.727 682.423 339.23 682.744 339.627C682.89 339.798 683.073 339.934 683.279 340.024C683.484 340.114 683.708 340.156 683.932 340.147C684.158 340.157 684.383 340.115 684.59 340.025C684.797 339.935 684.981 339.799 685.128 339.627C685.417 339.214 685.573 338.721 685.573 338.216C685.573 337.712 685.417 337.219 685.128 336.806C684.981 336.634 684.797 336.498 684.59 336.408C684.383 336.317 684.158 336.276 683.932 336.286C683.708 336.277 683.484 336.319 683.279 336.409C683.073 336.499 682.89 336.635 682.744 336.806C682.424 337.204 682.263 337.706 682.291 338.216Z" fill="white"/>
<path d="M689.65 341.046C689.043 341.082 688.447 340.879 687.987 340.481C687.778 340.275 687.616 340.027 687.511 339.753C687.406 339.479 687.361 339.185 687.378 338.892V335.499H688.41V338.9C688.398 339.069 688.42 339.239 688.474 339.4C688.529 339.561 688.616 339.709 688.729 339.835C688.992 340.043 689.316 340.155 689.65 340.155C689.984 340.155 690.309 340.043 690.571 339.835C690.685 339.709 690.773 339.562 690.829 339.401C690.885 339.24 690.909 339.07 690.898 338.9V335.499H691.922V338.892C691.941 339.186 691.897 339.48 691.793 339.755C691.689 340.03 691.528 340.28 691.321 340.489C690.856 340.882 690.258 341.082 689.65 341.046Z" fill="white"/>
<path d="M696.481 336.925V335.499H697.468V340.964H696.325L694.84 338.543C694.424 337.897 694.097 337.355 693.867 336.91C693.867 337.482 693.867 338.358 693.867 339.546V340.964H692.879V335.529H694.023L695.508 337.949C695.961 338.692 696.25 339.227 696.473 339.583C696.488 338.796 696.481 337.92 696.481 336.925Z" fill="white"/>
<path d="M698.516 335.499H700.587C700.956 335.477 701.325 335.532 701.671 335.66C702.017 335.787 702.333 335.985 702.599 336.241C702.85 336.506 703.044 336.819 703.172 337.161C703.299 337.503 703.357 337.866 703.342 338.231C703.358 338.594 703.3 338.957 703.173 339.298C703.045 339.639 702.85 339.95 702.599 340.213C702.334 340.47 702.018 340.669 701.672 340.797C701.325 340.925 700.956 340.979 700.587 340.956H698.516V335.499ZM699.548 340.05H700.572C700.801 340.065 701.03 340.03 701.244 339.948C701.458 339.866 701.652 339.739 701.812 339.575C702.092 339.177 702.243 338.703 702.243 338.216C702.243 337.73 702.092 337.255 701.812 336.857C701.651 336.696 701.457 336.571 701.243 336.49C701.029 336.409 700.8 336.375 700.572 336.39H699.548V340.05Z" fill="white"/>
<path d="M718.935 320.545C719.254 320.846 719.498 321.218 719.647 321.63C719.797 322.043 719.848 322.485 719.796 322.921C719.843 323.675 719.653 324.425 719.254 325.066C719.075 325.312 718.837 325.509 718.562 325.639C718.287 325.769 717.983 325.827 717.68 325.809C717.202 325.829 716.731 325.687 716.343 325.408C716.17 325.275 716.026 325.108 715.919 324.918C715.812 324.728 715.744 324.519 715.72 324.302H716.707C716.724 324.416 716.762 324.526 716.821 324.625C716.88 324.724 716.958 324.811 717.05 324.88C717.143 324.949 717.248 324.999 717.36 325.027C717.472 325.055 717.588 325.061 717.702 325.044C717.871 325.053 718.04 325.016 718.19 324.938C718.34 324.859 718.466 324.742 718.556 324.599C718.776 324.159 718.883 323.672 718.868 323.18C718.72 323.402 718.516 323.58 718.278 323.699C718.04 323.817 717.775 323.872 717.509 323.856C717.267 323.87 717.025 323.833 716.798 323.748C716.571 323.663 716.364 323.532 716.191 323.363C716.017 323.194 715.88 322.991 715.789 322.767C715.697 322.542 715.654 322.302 715.66 322.059C715.651 321.803 715.697 321.549 715.795 321.312C715.892 321.075 716.038 320.861 716.225 320.686C716.631 320.323 717.165 320.136 717.71 320.166C718.148 320.16 718.576 320.293 718.935 320.545ZM716.915 322.772C717.116 322.961 717.382 323.066 717.658 323.066C717.934 323.066 718.199 322.961 718.4 322.772C718.58 322.566 718.679 322.303 718.679 322.03C718.679 321.757 718.58 321.493 718.4 321.287C718.304 321.189 718.188 321.113 718.06 321.063C717.932 321.013 717.795 320.991 717.658 320.998C717.521 320.992 717.384 321.016 717.256 321.065C717.129 321.115 717.012 321.191 716.915 321.287C716.727 321.488 716.626 321.755 716.633 322.03C716.631 322.168 716.656 322.305 716.709 322.432C716.761 322.56 716.839 322.675 716.937 322.772H716.915Z" fill="white"/>
<path d="M721.555 324.807H724.355V325.683H720.419V325.275C720.436 324.888 720.525 324.508 720.679 324.153C720.936 323.686 721.348 323.323 721.845 323.129L722.38 322.861C722.633 322.751 722.863 322.592 723.055 322.394C723.191 322.229 723.263 322.02 723.256 321.807C723.263 321.697 723.245 321.586 723.204 321.483C723.163 321.38 723.1 321.288 723.018 321.213C722.832 321.062 722.597 320.986 722.357 320.998C721.734 320.998 721.422 321.324 721.422 321.985H720.419C720.404 321.735 720.441 321.484 720.528 321.249C720.615 321.014 720.75 320.799 720.924 320.619C721.126 320.442 721.362 320.307 721.617 320.223C721.872 320.139 722.142 320.107 722.409 320.129C722.91 320.102 723.403 320.258 723.798 320.567C723.963 320.71 724.095 320.889 724.184 321.089C724.272 321.289 724.315 321.506 724.31 321.725C724.323 322.106 724.202 322.479 723.969 322.78C723.663 323.119 723.292 323.391 722.877 323.582L722.372 323.849C722.151 323.957 721.95 324.103 721.778 324.28C721.649 324.427 721.571 324.612 721.555 324.807Z" fill="white"/>
<path d="M718.934 330.405C719.203 330.519 719.437 330.704 719.61 330.939C719.775 331.176 719.861 331.46 719.855 331.749C719.865 331.981 719.82 332.212 719.725 332.423C719.629 332.634 719.486 332.821 719.305 332.967C718.851 333.274 718.313 333.434 717.765 333.426C717.217 333.418 716.684 333.242 716.239 332.922C716.052 332.738 715.906 332.517 715.811 332.272C715.717 332.028 715.675 331.766 715.689 331.504H716.706C716.691 331.65 716.71 331.797 716.76 331.935C716.811 332.073 716.892 332.198 716.998 332.299C717.104 332.401 717.232 332.477 717.372 332.522C717.512 332.567 717.66 332.579 717.805 332.558C718.073 332.577 718.338 332.495 718.548 332.328C718.636 332.253 718.706 332.158 718.751 332.051C718.796 331.944 718.816 331.828 718.808 331.712C718.815 331.591 718.795 331.47 718.749 331.358C718.703 331.246 718.631 331.146 718.54 331.066C718.327 330.905 718.065 330.824 717.798 330.836H717.39V330.093H717.791C718.422 330.093 718.741 329.841 718.741 329.351C718.745 329.247 718.725 329.145 718.683 329.05C718.64 328.956 718.576 328.873 718.496 328.808C718.301 328.671 718.066 328.603 717.828 328.615C717.705 328.597 717.58 328.605 717.461 328.641C717.342 328.676 717.233 328.737 717.14 328.819C717.047 328.901 716.974 329.002 716.924 329.116C716.875 329.23 716.851 329.353 716.855 329.477H715.867C715.858 329.241 715.9 329.007 715.99 328.789C716.08 328.571 716.215 328.375 716.387 328.214C716.806 327.935 717.297 327.783 717.8 327.776C718.303 327.77 718.798 327.909 719.224 328.177C719.392 328.302 719.527 328.466 719.617 328.655C719.708 328.844 719.751 329.052 719.743 329.261C719.741 329.512 719.661 329.755 719.517 329.959C719.372 330.164 719.169 330.319 718.934 330.405Z" fill="white"/>
<path d="M723.731 330.427C724.016 330.513 724.263 330.691 724.436 330.933C724.608 331.175 724.694 331.467 724.682 331.764C724.688 331.996 724.639 332.227 724.54 332.437C724.441 332.647 724.293 332.831 724.11 332.974C723.656 333.297 723.107 333.456 722.551 333.427C721.997 333.458 721.449 333.298 720.999 332.974C720.815 332.831 720.668 332.647 720.569 332.437C720.47 332.227 720.421 331.996 720.427 331.764C720.417 331.469 720.503 331.178 720.673 330.937C720.844 330.695 721.088 330.516 721.37 330.427C721.143 330.329 720.95 330.164 720.818 329.955C720.686 329.746 720.619 329.502 720.628 329.254C720.621 329.042 720.666 328.832 720.758 328.641C720.849 328.449 720.986 328.283 721.155 328.155C721.565 327.893 722.042 327.754 722.528 327.754C723.015 327.754 723.492 327.893 723.902 328.155C724.071 328.283 724.207 328.449 724.299 328.641C724.391 328.832 724.435 329.042 724.429 329.254C724.441 329.497 724.382 329.737 724.258 329.946C724.133 330.155 723.95 330.322 723.731 330.427ZM722.551 332.603C722.84 332.625 723.128 332.54 723.36 332.365C723.452 332.28 723.525 332.178 723.575 332.063C723.625 331.949 723.65 331.825 723.65 331.701C723.65 331.576 723.625 331.452 723.575 331.338C723.525 331.224 723.452 331.121 723.36 331.036C723.119 330.88 722.838 330.796 722.551 330.796C722.263 330.796 721.982 330.88 721.741 331.036C721.65 331.121 721.577 331.224 721.527 331.338C721.477 331.452 721.451 331.576 721.451 331.701C721.451 331.825 721.477 331.949 721.527 332.063C721.577 332.178 721.65 332.28 721.741 332.365C721.974 332.539 722.261 332.623 722.551 332.603ZM723.249 328.742C723.048 328.592 722.801 328.518 722.551 328.534C722.301 328.522 722.055 328.595 721.853 328.742C721.766 328.81 721.698 328.899 721.652 329C721.607 329.1 721.587 329.211 721.593 329.321C721.588 329.429 721.609 329.536 721.654 329.635C721.699 329.733 721.767 329.819 721.853 329.885C722.062 330.016 722.304 330.086 722.551 330.086C722.798 330.086 723.039 330.016 723.249 329.885C723.333 329.816 723.4 329.728 723.447 329.629C723.493 329.531 723.517 329.423 723.517 329.313C723.517 329.204 723.493 329.096 723.447 328.998C723.4 328.899 723.333 328.811 723.249 328.742Z" fill="white"/>
<path d="M715.504 336.375V335.499H719.216V336.323C718.642 336.913 718.188 337.609 717.88 338.373C717.583 339.204 717.437 340.081 717.449 340.964H716.38C716.387 339.273 717.028 337.646 718.177 336.405L715.504 336.375Z" fill="white"/>
<path d="M722.833 338.053C723.116 338.139 723.363 338.317 723.534 338.559C723.705 338.801 723.79 339.094 723.776 339.39C723.786 339.623 723.739 339.855 723.64 340.066C723.54 340.277 723.39 340.46 723.204 340.6C722.74 340.895 722.202 341.052 721.652 341.052C721.102 341.052 720.564 340.895 720.1 340.6C719.917 340.457 719.769 340.273 719.67 340.063C719.571 339.853 719.522 339.622 719.528 339.39C719.517 339.094 719.603 338.803 719.773 338.561C719.944 338.32 720.189 338.141 720.471 338.053C720.244 337.955 720.052 337.79 719.919 337.581C719.787 337.372 719.72 337.127 719.729 336.88C719.723 336.668 719.767 336.458 719.859 336.267C719.951 336.075 720.087 335.909 720.256 335.781C720.666 335.519 721.143 335.38 721.63 335.38C722.116 335.38 722.593 335.519 723.003 335.781C723.173 335.909 723.309 336.075 723.4 336.267C723.492 336.458 723.537 336.668 723.531 336.88C723.541 337.122 723.48 337.362 723.356 337.57C723.232 337.779 723.05 337.947 722.833 338.053ZM721.652 340.221C721.942 340.242 722.229 340.157 722.461 339.984C722.558 339.904 722.635 339.803 722.685 339.688C722.736 339.573 722.758 339.448 722.751 339.323C722.758 339.197 722.736 339.07 722.686 338.954C722.635 338.838 722.558 338.736 722.461 338.655C722.228 338.482 721.941 338.398 721.652 338.417C721.362 338.397 721.075 338.481 720.843 338.655C720.746 338.736 720.669 338.838 720.618 338.954C720.568 339.07 720.546 339.197 720.553 339.323C720.546 339.448 720.568 339.573 720.619 339.688C720.669 339.803 720.746 339.904 720.843 339.984C721.075 340.157 721.362 340.242 721.652 340.221ZM722.35 336.36C722.149 336.211 721.902 336.138 721.652 336.152C721.402 336.139 721.156 336.212 720.954 336.36C720.866 336.428 720.795 336.516 720.749 336.617C720.702 336.718 720.681 336.828 720.687 336.939C720.684 337.047 720.705 337.154 720.75 337.252C720.796 337.35 720.863 337.436 720.947 337.504C721.153 337.647 721.401 337.717 721.652 337.704C721.901 337.717 722.146 337.647 722.35 337.504C722.434 337.434 722.502 337.347 722.548 337.248C722.595 337.149 722.619 337.041 722.619 336.932C722.619 336.823 722.595 336.715 722.548 336.616C722.502 336.517 722.434 336.43 722.35 336.36Z" fill="white"/>
<path d="M723.992 336.375V335.499H727.704V336.323C727.132 336.913 726.68 337.609 726.375 338.373C726.07 339.192 725.917 340.06 725.922 340.934H724.875C724.877 339.241 725.522 337.612 726.68 336.375H723.992Z" fill="white"/>
<path d="M728.231 336.375V335.499H731.944V336.323C731.373 336.915 730.922 337.611 730.614 338.373C730.309 339.192 730.156 340.06 730.161 340.934H729.092C729.094 339.241 729.739 337.612 730.897 336.375H728.231Z" fill="white"/>
<path d="M718.103 309.131V308.292H720.531V311.262H719.789L719.648 310.52C719.448 310.798 719.182 311.021 718.873 311.168C718.563 311.314 718.222 311.38 717.881 311.359C717.528 311.374 717.177 311.312 716.852 311.177C716.526 311.042 716.234 310.838 715.995 310.579C715.528 309.994 715.273 309.267 715.273 308.519C715.273 307.77 715.528 307.044 715.995 306.458C716.25 306.202 716.556 306.003 716.895 305.875C717.233 305.747 717.594 305.693 717.955 305.716C718.564 305.692 719.163 305.875 719.655 306.236C719.877 306.405 720.062 306.618 720.201 306.86C720.34 307.102 720.43 307.369 720.465 307.646H719.403C719.332 307.347 719.156 307.083 718.905 306.904C718.628 306.714 718.298 306.618 717.962 306.629C717.739 306.621 717.517 306.664 717.313 306.754C717.108 306.844 716.927 306.979 716.782 307.149C716.47 307.554 716.315 308.057 716.344 308.567C716.314 309.078 716.472 309.583 716.789 309.985C716.937 310.159 717.124 310.297 717.333 310.387C717.543 310.477 717.771 310.517 717.999 310.505C718.38 310.512 718.752 310.383 719.046 310.141C719.188 310.024 719.302 309.878 719.383 309.712C719.464 309.547 719.508 309.367 719.514 309.183L718.103 309.131Z" fill="white"/>
<path d="M724.979 308.368C725.257 308.465 725.5 308.644 725.677 308.88C725.839 309.113 725.925 309.39 725.922 309.674C725.933 309.89 725.896 310.106 725.812 310.305C725.729 310.504 725.601 310.682 725.439 310.825C725.031 311.122 724.532 311.266 724.028 311.234H721.489V305.799H723.946C724.415 305.768 724.88 305.907 725.253 306.192C725.398 306.316 725.514 306.472 725.591 306.646C725.668 306.821 725.705 307.011 725.699 307.202C725.711 307.446 725.648 307.688 725.52 307.896C725.391 308.105 725.202 308.269 724.979 308.368ZM723.872 306.645H722.521V308.063H723.872C724.09 308.08 724.306 308.01 724.474 307.87C724.542 307.799 724.596 307.715 724.631 307.624C724.667 307.532 724.684 307.434 724.682 307.335C724.686 307.241 724.669 307.146 724.632 307.058C724.594 306.971 724.538 306.893 724.466 306.831C724.297 306.7 724.086 306.634 723.872 306.645ZM722.521 310.358H724.006C724.246 310.374 724.483 310.302 724.674 310.157C724.751 310.088 724.812 310.003 724.852 309.908C724.891 309.813 724.909 309.711 724.904 309.608C724.904 309.103 724.6 308.865 724.006 308.865H722.521V310.358Z" fill="white"/>
<path d="M736.555 315.488V315.035H659.281V302.108H736.102V315.488H736.555V315.035V315.488H737.008V301.195H658.375V315.941H737.008V315.488H736.555Z" fill="white"/>
<path d="M229.328 330.977C229.492 330.988 229.657 330.959 229.807 330.891C229.957 330.824 230.088 330.721 230.189 330.591C230.381 330.251 230.482 329.867 230.482 329.477C230.482 329.086 230.381 328.703 230.189 328.363C230.09 328.231 229.959 328.126 229.808 328.057C229.658 327.988 229.493 327.958 229.328 327.969C229.162 327.959 228.996 327.989 228.845 328.058C228.693 328.127 228.561 328.231 228.459 328.363C228.272 328.704 228.174 329.087 228.174 329.477C228.174 329.866 228.272 330.249 228.459 330.591C228.562 330.72 228.695 330.822 228.846 330.89C228.998 330.957 229.163 330.987 229.328 330.977ZM229.328 328.415C229.721 328.415 229.914 328.764 229.914 329.469C229.914 330.175 229.721 330.516 229.328 330.516C228.934 330.516 228.741 330.167 228.741 329.469C228.741 328.771 228.934 328.415 229.328 328.415Z" fill="white"/>
<path d="M231.378 330.917H231.927V328.021H231.496C231.47 328.181 231.389 328.325 231.266 328.43C231.119 328.521 230.949 328.57 230.776 328.571H230.717V328.957H231.378V330.917Z" fill="white"/>
<path d="M228.809 369.721C228.644 369.711 228.479 369.741 228.327 369.808C228.176 369.875 228.043 369.978 227.94 370.107C227.753 370.448 227.655 370.831 227.655 371.221C227.655 371.61 227.753 371.993 227.94 372.335C228.049 372.458 228.182 372.556 228.332 372.624C228.482 372.692 228.644 372.727 228.809 372.727C228.973 372.727 229.136 372.692 229.285 372.624C229.435 372.556 229.569 372.458 229.678 372.335C229.869 371.995 229.97 371.611 229.97 371.221C229.97 370.83 229.869 370.447 229.678 370.107C229.574 369.978 229.441 369.875 229.29 369.808C229.139 369.741 228.974 369.711 228.809 369.721ZM228.809 372.283C228.415 372.283 228.222 371.926 228.222 371.228C228.222 370.53 228.415 370.181 228.809 370.181C229.202 370.181 229.395 370.53 229.395 371.228C229.395 371.926 229.202 372.283 228.809 372.283Z" fill="white"/>
<path d="M231.957 371.132C232.08 371.081 232.185 370.994 232.257 370.883C232.33 370.772 232.368 370.641 232.365 370.508C232.366 370.397 232.341 370.287 232.294 370.187C232.246 370.087 232.177 369.999 232.091 369.929C231.873 369.779 231.612 369.706 231.348 369.721C231.081 369.709 230.819 369.79 230.606 369.951C230.513 370.037 230.44 370.142 230.392 370.259C230.343 370.375 230.32 370.501 230.323 370.627H230.858C230.858 370.315 231.044 370.166 231.37 370.166C231.498 370.155 231.625 370.192 231.727 370.27C231.77 370.303 231.805 370.346 231.829 370.395C231.852 370.444 231.863 370.498 231.86 370.553C231.86 370.827 231.69 370.961 231.348 370.961H231.103V371.362H231.318C231.464 371.352 231.609 371.394 231.727 371.481C231.775 371.524 231.813 371.579 231.837 371.639C231.862 371.699 231.872 371.765 231.868 371.83C231.87 371.891 231.859 371.953 231.835 372.009C231.81 372.066 231.773 372.116 231.727 372.156C231.618 372.244 231.48 372.289 231.341 372.283C231.263 372.295 231.183 372.288 231.108 372.265C231.033 372.241 230.965 372.2 230.908 372.145C230.851 372.091 230.808 372.024 230.781 371.95C230.754 371.876 230.745 371.797 230.754 371.718H230.219C230.214 371.855 230.237 371.992 230.287 372.12C230.337 372.247 230.413 372.363 230.509 372.461C230.747 372.655 231.05 372.75 231.355 372.728C231.641 372.742 231.922 372.655 232.15 372.483C232.244 372.405 232.32 372.306 232.37 372.194C232.42 372.082 232.444 371.96 232.44 371.837C232.442 371.681 232.395 371.527 232.306 371.399C232.213 371.282 232.094 371.191 231.957 371.132Z" fill="white"/>
<path d="M254.12 326.165L244.371 335.914C243.74 335.677 243.079 335.454 242.389 335.254C238.372 334.136 234.218 333.586 230.048 333.62C223.959 333.62 218.443 334.689 214.455 336.419C212.672 337.134 211.042 338.183 209.651 339.508C209.105 340.01 208.663 340.614 208.351 341.287C208.039 341.96 207.862 342.688 207.832 343.429C207.882 344.746 208.41 345.999 209.317 346.956C208.384 347.891 207.861 349.158 207.861 350.479C207.861 351.8 208.384 353.067 209.317 354.002C208.41 354.958 207.882 356.212 207.832 357.529C207.862 358.27 208.039 358.998 208.351 359.671C208.663 360.343 209.105 360.948 209.651 361.45C211.306 362.991 213.263 364.172 215.398 364.917L205.746 374.57L205.983 374.807L215.74 365.058C216.371 365.296 217.032 365.519 217.722 365.719C221.739 366.837 225.893 367.387 230.063 367.353C236.152 367.353 241.668 366.283 245.656 364.546C247.438 363.833 249.069 362.787 250.46 361.464C251.006 360.963 251.448 360.358 251.76 359.685C252.072 359.013 252.249 358.285 252.279 357.544C252.229 356.227 251.701 354.973 250.794 354.017C251.727 353.082 252.25 351.815 252.25 350.494C252.25 349.173 251.727 347.906 250.794 346.971C251.701 346.014 252.229 344.761 252.279 343.444C252.249 342.703 252.072 341.975 251.76 341.302C251.448 340.629 251.006 340.025 250.46 339.523C248.807 337.979 246.85 336.797 244.713 336.056L254.365 326.403L254.12 326.165ZM210.104 339.983C211.701 338.342 214.433 336.909 217.893 335.9C221.849 334.793 225.941 334.248 230.048 334.281C234.736 334.216 239.401 334.937 243.851 336.412L238.825 341.439C235.929 340.907 232.992 340.644 230.048 340.652C223.959 340.652 218.443 341.714 214.455 343.451C212.72 344.145 211.127 345.152 209.755 346.421C208.99 345.594 208.55 344.518 208.515 343.392C208.579 342.091 209.149 340.868 210.104 339.983ZM245.403 351.121C247.069 351.788 248.597 352.757 249.91 353.98C248.299 355.584 245.604 356.987 242.203 357.982C238.246 359.08 234.155 359.62 230.048 359.586C227.311 359.592 224.578 359.361 221.88 358.895L227.62 353.148C228.429 353.185 229.246 353.215 230.078 353.215C235.055 353.291 240.006 352.479 244.698 350.817C244.921 350.936 245.166 351.039 245.403 351.143V351.121ZM217.707 351.582C220.783 352.45 223.946 352.968 227.137 353.126L221.45 358.843C219.134 358.434 216.87 357.769 214.7 356.861C213.035 356.194 211.506 355.225 210.193 354.002C211.712 352.608 213.494 351.532 215.435 350.839C216.148 351.114 216.906 351.359 217.737 351.604L217.707 351.582ZM216.416 350.46C216.891 350.29 217.381 350.126 217.901 349.978C221.856 348.886 225.945 348.351 230.048 348.389C230.657 348.389 231.258 348.389 231.852 348.426L227.776 352.502C223.913 352.37 220.088 351.69 216.416 350.483V350.46ZM242.203 350.936C238.246 352.033 234.155 352.573 230.048 352.539C229.439 352.539 228.838 352.539 228.244 352.502L232.32 348.426C236.184 348.56 240.009 349.243 243.681 350.453C243.205 350.616 242.715 350.809 242.24 350.958L242.203 350.936ZM242.389 349.324C239.312 348.462 236.15 347.946 232.959 347.787L238.654 342.092C240.97 342.502 243.234 343.167 245.403 344.075C247.069 344.741 248.597 345.711 249.91 346.933C248.39 348.325 246.608 349.4 244.668 350.096C243.948 349.874 243.191 349.584 242.389 349.347V349.324ZM232.498 347.765C231.696 347.72 230.88 347.698 230.048 347.698C225.071 347.622 220.12 348.434 215.428 350.096L214.685 349.792C213.02 349.125 211.492 348.156 210.178 346.933C211.79 345.33 214.485 343.926 217.886 342.931C221.843 341.833 225.934 341.294 230.041 341.327C232.778 341.322 235.511 341.553 238.208 342.018L232.498 347.765ZM209.725 347.423C211.127 348.724 212.758 349.752 214.537 350.453L214.426 350.497C212.691 351.192 211.097 352.199 209.725 353.468C208.931 352.659 208.486 351.571 208.486 350.438C208.486 349.305 208.931 348.217 209.725 347.409V347.423ZM214.693 363.892C212.989 363.202 211.432 362.194 210.104 360.922C209.129 360.034 208.547 358.795 208.485 357.477C208.52 356.351 208.961 355.275 209.725 354.448C211.463 356.163 214.24 357.588 217.707 358.606C218.702 358.895 219.764 359.148 220.871 359.348L215.896 364.323C215.51 364.234 215.079 364.078 214.693 363.915V363.892ZM249.992 360.922C248.396 362.556 245.663 363.989 242.203 364.999C238.246 366.097 234.155 366.636 230.048 366.603C225.366 366.679 220.704 365.977 216.252 364.524L221.279 359.497C224.172 360.023 227.108 360.281 230.048 360.269C236.137 360.269 241.654 359.207 245.641 357.47C247.376 356.775 248.969 355.769 250.341 354.5C251.106 355.327 251.546 356.403 251.581 357.529C251.559 358.186 251.408 358.831 251.135 359.429C250.862 360.027 250.474 360.565 249.992 361.011V360.922ZM250.371 353.453C248.967 352.157 247.336 351.132 245.559 350.431L245.671 350.386C247.406 349.692 248.999 348.685 250.371 347.416C251.165 348.223 251.61 349.31 251.61 350.442C251.61 351.574 251.165 352.661 250.371 353.468V353.453ZM245.403 336.991C247.107 337.682 248.664 338.69 249.992 339.961C250.967 340.85 251.549 342.089 251.611 343.406C251.591 344.536 251.164 345.619 250.408 346.458C248.67 344.743 245.893 343.317 242.426 342.3C241.431 342.011 240.369 341.758 239.263 341.558L244.238 336.59C244.616 336.724 245.017 336.88 245.403 337.043V336.991Z" fill="white"/>
<path d="M257.559 351.478C257.268 351.124 257.075 350.699 257.001 350.247C256.926 349.794 256.973 349.33 257.136 348.902C257.285 348.471 257.54 348.085 257.877 347.779C258.215 347.473 258.624 347.256 259.067 347.149C258.91 347.122 258.751 347.11 258.591 347.112C258.427 347.11 258.263 347.122 258.101 347.149C257.342 347.267 256.646 347.642 256.129 348.211C255.612 348.779 255.305 349.508 255.26 350.275C255.215 351.043 255.434 351.802 255.881 352.428C256.327 353.053 256.975 353.507 257.715 353.713C257.908 353.772 258.101 353.802 258.302 353.847H258.97H259.067C259.685 353.768 260.268 353.517 260.751 353.124C261.234 352.73 261.597 352.209 261.799 351.619C261.799 351.575 261.799 351.515 261.851 351.433C261.601 351.764 261.279 352.034 260.909 352.22C260.539 352.407 260.131 352.506 259.716 352.511C259.302 352.515 258.892 352.424 258.518 352.245C258.144 352.066 257.816 351.804 257.559 351.478Z" fill="white"/>
<path d="M202.145 347.149C201.828 347.1 201.505 347.1 201.187 347.149C201.63 347.257 202.038 347.474 202.375 347.78C202.712 348.086 202.967 348.472 203.118 348.902C203.279 349.331 203.325 349.794 203.251 350.247C203.177 350.699 202.985 351.124 202.695 351.478C202.436 351.802 202.107 352.063 201.732 352.24C201.357 352.417 200.947 352.506 200.532 352.5C200.118 352.493 199.71 352.392 199.341 352.203C198.972 352.014 198.651 351.744 198.403 351.411C198.415 351.474 198.433 351.537 198.455 351.597C198.654 352.188 199.017 352.71 199.5 353.105C199.983 353.499 200.568 353.748 201.187 353.825H201.276H201.952C202.145 353.78 202.346 353.75 202.539 353.691C203.279 353.484 203.926 353.03 204.372 352.404C204.818 351.777 205.037 351.018 204.991 350.25C204.945 349.483 204.637 348.754 204.119 348.186C203.602 347.618 202.905 347.244 202.145 347.127V347.149Z" fill="white"/>
<path d="M203.63 402.86L204.097 401.07H204.974L203.741 405.526H202.791L202.315 403.677C202.122 402.867 202.003 402.34 201.959 402.103C201.84 402.659 201.721 403.187 201.595 403.677L201.12 405.526H200.177L198.944 401.07H199.82L200.281 402.86C200.496 403.721 200.637 404.286 200.689 404.553C200.823 403.929 200.949 403.357 201.068 402.852L201.528 401.07H202.39L202.85 402.852C202.961 403.328 203.088 403.892 203.221 404.553C203.281 404.167 203.414 403.602 203.63 402.86Z" fill="white"/>
<path d="M208.62 401.107V401.849H206.184V402.896H208.412V403.639H206.184V404.797H208.605V405.54H205.338V401.085L208.62 401.107Z" fill="white"/>
<path d="M209.978 405.51H209.132V401.055H209.978V405.51Z" fill="white"/>
<path d="M212.837 403.795V403.112H214.82V405.51H214.211L214.092 404.924C213.93 405.153 213.712 405.337 213.458 405.458C213.205 405.579 212.924 405.633 212.644 405.614C212.356 405.626 212.068 405.575 211.801 405.465C211.535 405.355 211.295 405.188 211.1 404.976C210.698 404.509 210.491 403.905 210.52 403.29C210.49 402.67 210.703 402.063 211.114 401.597C211.321 401.384 211.571 401.217 211.848 401.108C212.125 400.999 212.421 400.951 212.718 400.966C213.215 400.948 213.704 401.097 214.107 401.389C214.289 401.528 214.441 401.702 214.555 401.901C214.668 402.1 214.741 402.32 214.768 402.548H213.899C213.875 402.423 213.826 402.305 213.756 402.199C213.686 402.093 213.596 402.002 213.49 401.931C213.274 401.777 213.014 401.696 212.748 401.701C212.564 401.693 212.381 401.727 212.213 401.801C212.044 401.874 211.895 401.985 211.775 402.124C211.523 402.459 211.396 402.872 211.419 403.29C211.398 403.707 211.527 404.118 211.783 404.449C211.906 404.59 212.059 404.701 212.232 404.774C212.404 404.848 212.591 404.881 212.778 404.872C213.089 404.881 213.393 404.775 213.632 404.575C213.743 404.483 213.834 404.37 213.9 404.243C213.967 404.115 214.007 403.976 214.018 403.832L212.837 403.795Z" fill="white"/>
<path d="M218.391 402.852V401.107H219.223V405.562H218.384V403.669H216.327V405.562H215.51V401.107H216.357V402.889L218.391 402.852Z" fill="white"/>
<path d="M219.653 401.107H223.366V401.85H221.94V405.562H221.079V401.85H219.653V401.107Z" fill="white"/>
<path d="M224.286 403.335H223.366V402.444H224.286V403.335ZM224.286 405.503H223.366V404.612H224.286V405.503Z" fill="white"/>
<path d="M227.91 402.592C228.111 402.575 228.314 402.601 228.504 402.669C228.694 402.737 228.867 402.845 229.011 402.986C229.156 403.127 229.268 403.297 229.341 403.486C229.414 403.674 229.445 403.876 229.432 404.077C229.44 404.286 229.402 404.494 229.321 404.686C229.241 404.878 229.119 405.051 228.964 405.191C228.636 405.484 228.208 405.638 227.769 405.622C227.356 405.634 226.952 405.502 226.625 405.251C226.476 405.128 226.354 404.976 226.269 404.803C226.183 404.63 226.135 404.441 226.128 404.248H226.93C226.94 404.346 226.969 404.442 227.016 404.528C227.064 404.615 227.128 404.691 227.205 404.753C227.364 404.881 227.565 404.947 227.769 404.939C227.883 404.943 227.997 404.924 228.103 404.881C228.209 404.839 228.305 404.775 228.385 404.694C228.463 404.612 228.524 404.515 228.564 404.409C228.603 404.303 228.621 404.19 228.615 404.077C228.62 403.963 228.602 403.849 228.563 403.742C228.523 403.635 228.463 403.537 228.385 403.454C228.304 403.374 228.207 403.312 228.101 403.272C227.995 403.231 227.882 403.212 227.769 403.216C227.609 403.203 227.449 403.239 227.31 403.318C227.171 403.398 227.059 403.517 226.989 403.662H226.247L226.648 401.107H229.217V401.813H227.309L227.115 402.919C227.335 402.722 227.615 402.606 227.91 402.592Z" fill="white"/>
<path d="M230.687 405.51H229.774V404.619H230.687V405.51Z" fill="white"/>
<path d="M232.878 402.592C233.075 402.583 233.273 402.615 233.457 402.686C233.642 402.757 233.809 402.866 233.949 403.006C234.089 403.146 234.198 403.313 234.269 403.498C234.34 403.682 234.372 403.88 234.363 404.077C234.372 404.285 234.336 404.493 234.256 404.685C234.177 404.878 234.056 405.05 233.902 405.191C233.577 405.483 233.151 405.637 232.714 405.622C232.338 405.632 231.968 405.52 231.66 405.303C231.394 405.058 231.188 404.755 231.06 404.417C230.931 404.08 230.882 403.717 230.918 403.357C230.879 402.735 231.038 402.117 231.37 401.59C231.523 401.386 231.723 401.223 231.954 401.116C232.185 401.008 232.438 400.96 232.692 400.974C233.07 400.96 233.442 401.075 233.746 401.3C233.888 401.411 234.006 401.549 234.094 401.706C234.182 401.863 234.238 402.035 234.259 402.214H233.472C233.444 402.041 233.353 401.884 233.215 401.775C233.077 401.667 232.904 401.614 232.729 401.627C232.584 401.616 232.439 401.644 232.309 401.708C232.178 401.772 232.067 401.87 231.987 401.991C231.802 402.348 231.712 402.747 231.727 403.149C231.851 402.961 232.023 402.81 232.226 402.712C232.428 402.614 232.654 402.573 232.878 402.592ZM231.898 404.077C231.894 404.19 231.913 404.301 231.954 404.406C231.995 404.511 232.057 404.606 232.135 404.686C232.216 404.764 232.311 404.825 232.416 404.866C232.52 404.907 232.632 404.927 232.744 404.924C232.856 404.928 232.967 404.909 233.071 404.868C233.175 404.827 233.269 404.764 233.347 404.685C233.425 404.605 233.486 404.51 233.526 404.405C233.565 404.301 233.582 404.189 233.576 404.077C233.582 403.85 233.499 403.629 233.346 403.461C233.181 403.309 232.965 403.224 232.74 403.224C232.516 403.224 232.3 403.309 232.135 403.461C232.057 403.543 231.995 403.64 231.954 403.745C231.914 403.851 231.894 403.964 231.898 404.077Z" fill="white"/>
<path d="M237.859 401.108H238.906L237.08 402.912L238.906 405.548H237.904L236.478 403.476L235.78 404.159V405.548H234.941V401.093H235.78V403.187L237.859 401.108Z" fill="white"/>
<path d="M241.045 403.795V403.112H243.028V405.51H242.419L242.3 404.924C242.138 405.153 241.92 405.337 241.666 405.458C241.413 405.579 241.132 405.633 240.852 405.614C240.564 405.626 240.276 405.575 240.01 405.465C239.743 405.355 239.503 405.188 239.308 404.976C238.906 404.509 238.699 403.905 238.728 403.29C238.698 402.67 238.911 402.063 239.322 401.597C239.529 401.384 239.779 401.217 240.056 401.108C240.333 400.999 240.629 400.951 240.926 400.966C241.423 400.948 241.912 401.097 242.315 401.389C242.497 401.528 242.649 401.702 242.763 401.901C242.876 402.1 242.949 402.32 242.976 402.548H242.107C242.083 402.423 242.034 402.305 241.964 402.199C241.894 402.093 241.804 402.002 241.698 401.931C241.482 401.777 241.222 401.696 240.956 401.701C240.772 401.693 240.589 401.727 240.421 401.801C240.252 401.874 240.103 401.985 239.983 402.124C239.731 402.459 239.604 402.872 239.627 403.29C239.606 403.707 239.735 404.118 239.991 404.449C240.114 404.59 240.267 404.701 240.44 404.774C240.612 404.848 240.799 404.881 240.986 404.872C241.297 404.881 241.601 404.775 241.84 404.575C241.951 404.483 242.042 404.37 242.108 404.243C242.175 404.115 242.215 403.976 242.226 403.832L241.045 403.795Z" fill="white"/>
<path d="M511.973 529.896C511.684 529.908 511.396 529.858 511.129 529.749C510.861 529.64 510.62 529.475 510.421 529.265C510.215 529.038 510.056 528.772 509.953 528.482C509.849 528.193 509.804 527.886 509.82 527.58C509.79 526.957 510.003 526.347 510.414 525.879C510.615 525.671 510.858 525.508 511.127 525.4C511.396 525.293 511.684 525.243 511.973 525.256C512.45 525.242 512.918 525.389 513.302 525.671C513.683 525.968 513.931 526.403 513.993 526.882H513.139C513.082 526.62 512.935 526.386 512.723 526.221C512.509 526.063 512.247 525.982 511.981 525.991C511.804 525.983 511.627 526.017 511.466 526.091C511.304 526.164 511.163 526.275 511.053 526.414C510.806 526.751 510.685 527.163 510.711 527.58C510.686 527.995 510.804 528.406 511.045 528.745C511.159 528.882 511.302 528.99 511.464 529.062C511.627 529.134 511.803 529.168 511.981 529.161C512.27 529.169 512.553 529.072 512.775 528.886C512.998 528.699 513.141 528.433 513.176 528.144H514C513.988 528.396 513.923 528.642 513.809 528.868C513.695 529.093 513.535 529.291 513.339 529.451C512.949 529.753 512.467 529.91 511.973 529.896Z" fill="white"/>
<path d="M516.57 529.896C516.272 529.909 515.975 529.86 515.698 529.751C515.42 529.643 515.168 529.477 514.959 529.265C514.542 528.805 514.323 528.2 514.35 527.58C514.335 527.272 514.381 526.965 514.485 526.676C514.59 526.386 514.751 526.121 514.959 525.894C515.395 525.484 515.971 525.256 516.57 525.256C517.169 525.256 517.745 525.484 518.181 525.894C518.388 526.121 518.547 526.387 518.65 526.677C518.753 526.966 518.799 527.273 518.783 527.58C518.812 528.199 518.596 528.804 518.181 529.265C517.972 529.477 517.72 529.643 517.443 529.751C517.165 529.86 516.868 529.909 516.57 529.896ZM515.226 527.58C515.205 527.996 515.337 528.405 515.597 528.73C515.722 528.864 515.874 528.971 516.042 529.044C516.21 529.117 516.391 529.154 516.574 529.154C516.757 529.154 516.938 529.117 517.106 529.044C517.274 528.971 517.425 528.864 517.55 528.73C517.808 528.404 517.937 527.995 517.914 527.58C517.937 527.162 517.807 526.751 517.55 526.421C517.425 526.287 517.274 526.181 517.106 526.108C516.938 526.035 516.757 525.997 516.574 525.997C516.391 525.997 516.21 526.035 516.042 526.108C515.874 526.181 515.722 526.287 515.597 526.421C515.336 526.749 515.204 527.161 515.226 527.58Z" fill="white"/>
<path d="M521.129 529.889C520.631 529.919 520.141 529.754 519.763 529.429C519.593 529.26 519.46 529.057 519.374 528.833C519.288 528.609 519.251 528.369 519.266 528.129V525.352H520.112V528.129C520.093 528.268 520.106 528.409 520.15 528.542C520.194 528.675 520.268 528.796 520.366 528.896C520.465 528.996 520.585 529.072 520.717 529.118C520.849 529.164 520.99 529.179 521.129 529.161C521.264 529.169 521.399 529.15 521.527 529.106C521.654 529.061 521.771 528.992 521.872 528.902C522.055 528.699 522.151 528.432 522.139 528.159V525.382H522.978V528.159C522.993 528.399 522.957 528.639 522.872 528.865C522.788 529.09 522.657 529.295 522.488 529.466C522.105 529.774 521.62 529.925 521.129 529.889Z" fill="white"/>
<path d="M529.148 527.854H523.49V527.186H529.148V527.854Z" fill="white"/>
<path d="M529.713 525.352H531.666C532.088 525.327 532.504 525.468 532.824 525.745C533.091 526.032 533.24 526.408 533.24 526.8C533.24 527.191 533.091 527.568 532.824 527.854C532.504 528.132 532.088 528.273 531.666 528.248H530.559V529.8H529.713V525.352ZM530.559 527.52H531.629C531.73 527.53 531.833 527.518 531.93 527.486C532.027 527.454 532.117 527.403 532.193 527.334C532.263 527.265 532.318 527.182 532.352 527.089C532.387 526.997 532.401 526.898 532.393 526.8C532.4 526.702 532.385 526.603 532.35 526.511C532.316 526.419 532.262 526.335 532.193 526.265C532.117 526.197 532.027 526.146 531.93 526.114C531.833 526.082 531.73 526.07 531.629 526.08H530.559V527.52Z" fill="white"/>
<path d="M536.7 526.518V525.352H537.509V529.807H536.574L535.334 527.825C535 527.298 534.732 526.852 534.547 526.496C534.547 526.956 534.547 527.676 534.547 528.642V529.807H533.737V525.352H534.673L535.913 527.335C536.284 527.936 536.544 528.374 536.7 528.671C536.707 528.077 536.7 527.335 536.7 526.518Z" fill="white"/>
<path d="M541.511 525.352V526.095H539.083V527.141H541.31V527.884H539.083V529.042H541.474V529.785H538.207V525.33L541.511 525.352Z" fill="white"/>
<path d="M541.749 525.352H545.461V526.095H544.035V529.807H543.189V526.095H541.763L541.749 525.352Z" fill="white"/>
<path d="M513.013 535.443C512.845 535.63 512.641 535.78 512.412 535.883C512.183 535.985 511.934 536.038 511.684 536.038C511.433 536.038 511.184 535.985 510.955 535.883C510.726 535.78 510.522 535.63 510.354 535.443C510.058 534.918 509.902 534.324 509.902 533.721C509.902 533.117 510.058 532.524 510.354 531.998C510.52 531.809 510.725 531.657 510.954 531.553C511.183 531.449 511.432 531.395 511.684 531.395C511.935 531.395 512.184 531.449 512.413 531.553C512.642 531.657 512.847 531.809 513.013 531.998C513.309 532.524 513.465 533.117 513.465 533.721C513.465 534.324 513.309 534.918 513.013 535.443ZM511.684 535.332C512.285 535.332 512.589 534.79 512.589 533.721C512.589 532.651 512.285 532.109 511.684 532.109C511.082 532.109 510.785 532.644 510.785 533.721C510.785 534.797 511.082 535.332 511.684 535.332Z" fill="white"/>
<path d="M516.518 533.565C516.738 533.657 516.928 533.809 517.067 534.003C517.203 534.196 517.273 534.428 517.268 534.664C517.275 534.852 517.238 535.04 517.161 535.213C517.084 535.386 516.968 535.538 516.822 535.659C516.474 535.925 516.042 536.059 515.604 536.037C515.134 536.072 514.668 535.923 514.305 535.621C514.153 535.473 514.034 535.293 513.957 535.094C513.88 534.896 513.847 534.683 513.86 534.471H514.676C514.664 534.59 514.679 534.711 514.72 534.824C514.761 534.936 514.828 535.038 514.914 535.121C515.001 535.205 515.106 535.267 515.22 535.303C515.335 535.34 515.456 535.35 515.575 535.332C515.792 535.344 516.006 535.275 516.176 535.139C516.249 535.077 516.306 534.999 516.343 534.912C516.381 534.824 516.397 534.729 516.391 534.634C516.397 534.535 516.38 534.436 516.342 534.344C516.303 534.253 516.244 534.172 516.169 534.107C515.991 533.97 515.769 533.901 515.545 533.914H515.218V533.275H515.538C516.057 533.275 516.28 533.075 516.28 532.659C516.284 532.576 516.268 532.493 516.235 532.417C516.201 532.341 516.151 532.274 516.087 532.221C515.927 532.106 515.734 532.049 515.538 532.057C515.033 532.057 514.795 532.295 514.743 532.8H514.001C513.992 532.609 514.026 532.418 514.099 532.241C514.172 532.064 514.283 531.905 514.424 531.775C514.759 531.511 515.179 531.382 515.604 531.411C516.011 531.39 516.414 531.505 516.748 531.738C516.885 531.841 516.996 531.976 517.069 532.131C517.143 532.287 517.178 532.457 517.171 532.629C517.169 532.833 517.106 533.031 516.989 533.198C516.873 533.365 516.708 533.493 516.518 533.565Z" fill="white"/>
<path d="M518.255 535.94H517.512L519.109 531.485H519.851L518.255 535.94Z" fill="white"/>
<path d="M521.3 531.493H521.968V535.948H521.129V532.978H520.104V532.391H520.201C520.464 532.384 520.72 532.307 520.944 532.168C521.045 532.085 521.129 531.982 521.19 531.866C521.251 531.75 521.288 531.623 521.3 531.493Z" fill="white"/>
<path d="M523.727 531.493H524.395V535.948H523.556V532.978H522.532V532.391H522.628C522.891 532.384 523.147 532.307 523.371 532.168C523.472 532.085 523.556 531.982 523.617 531.866C523.678 531.75 523.716 531.623 523.727 531.493Z" fill="white"/>
<path d="M525.495 535.94H524.752L526.349 531.485H527.091L525.495 535.94Z" fill="white"/>
<path d="M530.18 533.609L530.923 531.493H532.148V535.948H531.339V534.589C531.339 533.757 531.339 533.022 531.339 532.361C531.242 532.673 531.131 533.015 530.997 533.386L530.099 535.918H529.408L528.502 533.386C528.346 532.918 528.235 532.584 528.176 532.369C528.176 533.007 528.176 533.735 528.176 534.596V535.955H527.366V531.5H528.591L529.334 533.661C529.388 533.809 529.515 534.21 529.713 534.864C529.92 534.396 530.054 534.017 530.18 533.609Z" fill="white"/>
<path d="M535.645 533.609L536.387 531.493H537.605V535.948H536.803V534.589C536.803 533.757 536.803 533.022 536.803 532.361C536.714 532.673 536.603 533.015 536.469 533.386L535.57 535.918H534.88L533.974 533.386C533.811 532.918 533.707 532.584 533.64 532.369C533.64 533.007 533.64 533.735 533.64 534.596V535.955H532.831V531.5H534.056L534.798 533.661C534.85 533.809 534.976 534.21 535.184 534.864C535.385 534.396 535.533 534.017 535.645 533.609Z" fill="white"/>
<path d="M542.001 531.493L540.516 533.653L542.067 535.94H541.087L540.597 535.198L540.003 534.292C539.832 534.567 539.632 534.871 539.417 535.198L538.919 535.94H537.969L539.535 533.676L538.05 531.493H539.023L539.469 532.154C539.58 532.317 539.766 532.606 540.018 533.015C540.1 532.881 540.189 532.748 540.278 532.614L540.471 532.309L540.575 532.154L541.02 531.493H542.001Z" fill="white"/>
<path d="M546.174 531.493L544.689 533.653L546.241 535.94H545.261L544.778 535.198C544.556 534.871 544.355 534.567 544.184 534.292C544.006 534.567 543.813 534.871 543.59 535.198L543.093 535.94H542.143L543.709 533.676L542.224 531.493H543.204L543.642 532.154C543.754 532.317 543.939 532.606 544.192 533.015C544.274 532.881 544.363 532.748 544.452 532.614C544.513 532.509 544.58 532.408 544.652 532.309L544.749 532.154L545.202 531.493H546.174Z" fill="white"/>
<path d="M600.808 508.794H594.979V535.569H600.808V508.794Z" fill="white"/>
<path d="M602.263 508.794H601.536V535.569H602.263V508.794Z" fill="white"/>
<path d="M603.719 508.794H602.992V535.569H603.719V508.794Z" fill="white"/>
<path d="M605.173 508.794H604.446V535.569H605.173V508.794Z" fill="white"/>
<path d="M649.621 508.794H644.52V535.569H649.621V508.794Z" fill="white"/>
<path d="M651.076 508.794H650.348V535.569H651.076V508.794Z" fill="white"/>
<path d="M653.986 508.794H653.259V535.569H653.986V508.794Z" fill="white"/>
<path d="M655.45 508.794H654.723V535.569H655.45V508.794Z" fill="white"/>
<path d="M657.633 508.794H656.905V535.569H657.633V508.794Z" fill="white"/>
<path d="M615.376 510.465H616.104V512.135H617.559V510.465H619.015V508.794H615.376V510.465Z" fill="white"/>
<path d="M624.115 508.794H623.388V510.465H624.115V508.794Z" fill="white"/>
<path d="M634.288 508.771H632.134V535.546H634.288V532.197H635.773V530.527H634.288V527.178H635.03V525.5H634.288V518.817H635.03V510.464H634.288V508.771ZM633.545 533.868H632.803V532.197H633.545V533.868ZM633.545 528.849V530.527H632.803V527.178H633.545V528.849ZM633.545 520.481V525.5H632.803V518.817H633.545V520.481ZM634.288 513.798V515.454H633.545V512.105H634.288V513.798Z" fill="white"/>
<path d="M635.773 508.794H635.045V510.465H635.773V508.794Z" fill="white"/>
<path d="M637.229 508.794H636.501V510.465H637.229V508.794Z" fill="white"/>
<path d="M640.146 508.794H637.963V510.465H640.146V508.794Z" fill="white"/>
<path d="M612.458 510.465V508.794H611.73V510.465V512.135H612.458V510.465Z" fill="white"/>
<path d="M613.921 510.465V508.794H613.193V510.465V512.135H612.458V513.813V515.484H611.002V517.162H611.73V518.833H611.002V520.503V522.181V523.852H612.458V522.181H611.73V520.503H613.193V518.833H612.458V517.162H613.193V515.484V513.813H613.921V515.484H616.104V513.813V512.135H613.921V510.465Z" fill="white"/>
<path d="M627.761 510.465H628.489V508.794H627.034V510.465H625.578V512.135H624.843V513.813V515.484H627.034V513.813H627.761V512.135V510.465Z" fill="white"/>
<path d="M629.944 510.465H628.489V512.135H629.944V510.465Z" fill="white"/>
<path d="M630.672 512.135V513.813H631.407V512.135V510.465H630.672V512.135Z" fill="white"/>
<path d="M637.964 510.465H637.236V512.135H637.964V510.465Z" fill="white"/>
<path d="M611.73 512.136H611.002V513.807H611.73V512.136Z" fill="white"/>
<path d="M624.115 512.136H623.388V513.807H624.115V512.136Z" fill="white"/>
<path d="M611.003 513.813H610.275V515.484H611.003V513.813Z" fill="white"/>
<path d="M627.761 515.484V517.162V518.833H628.489V520.503H629.216V518.833H629.944V520.503H629.216V522.182H627.033V523.852H627.761V525.53V527.201V528.872H629.944V530.55H631.407V528.872H630.672V527.201H629.216V525.53H628.489V523.852H629.944V522.182H630.672V520.503H631.407V518.833H630.672V517.162H629.944V515.484H630.672V513.813H627.761V515.484Z" fill="white"/>
<path d="M638.691 513.813H636.516V510.465H635.773V520.503H635.031V522.181H635.773V523.852H636.516V525.523H638.001V523.852H637.258V522.181H639.441V520.503H640.926V518.833H640.184V517.162H639.441V515.454H638.699L638.691 513.813ZM638.691 520.496H637.949V518.825H638.691V520.496ZM637.206 517.155V518.825H636.464V515.454H637.206V517.155Z" fill="white"/>
<path d="M643.064 513.813H642.337V512.135H640.874V510.465H640.146V512.135H638.691V513.813H639.419V515.484H641.602V517.162H643.064V518.833H643.792V517.162V515.484H643.064V513.813Z" fill="white"/>
<path d="M616.832 515.484H616.104V517.155H616.832V515.484Z" fill="white"/>
<path d="M624.115 517.162V518.833V520.504H624.843V518.833H625.578V517.162H624.843V515.484H624.115V517.162Z" fill="white"/>
<path d="M631.407 515.484H630.68V517.155H631.407V515.484Z" fill="white"/>
<path d="M610.275 517.162V515.454H609.532V517.132H608.79V515.454H609.532V513.783H608.79V512.105H609.532V513.783H610.275V512.105H611.017V508.771H607.379V535.546H608.864V533.868H610.349V523.852H609.606V530.534H608.864V523.852H608.121V522.181H608.864V523.852H609.606V522.181H610.349V520.503H609.606V518.832H611.091V517.162H610.275ZM608.79 520.503H608.047V518.832H608.79V520.503Z" fill="white"/>
<path d="M615.376 517.161H613.193V518.832H615.376V517.161Z" fill="white"/>
<path d="M619.014 517.161H618.287V518.832H619.014V517.161Z" fill="white"/>
<path d="M622.66 517.161H621.205V518.832H622.66V517.161Z" fill="white"/>
<path d="M617.559 518.833H615.376V520.503H617.559V518.833Z" fill="white"/>
<path d="M614.649 522.182H613.921V520.504H613.193V522.182V523.852H612.458V525.531H611.73V527.201H612.458V528.872H613.193V527.201H613.921V525.531H614.649V523.852H615.376V525.531H616.104V527.201H614.649V528.872H615.376V530.55H616.832V528.872H618.287V527.201H616.832V525.531H618.287V523.852H616.832V522.182H615.376V520.504H614.649V522.182Z" fill="white"/>
<path d="M627.033 520.504H626.306V522.174H627.033V520.504Z" fill="white"/>
<path d="M622.66 522.181H623.402V520.503H621.219V518.832H620.477V517.162H621.219V513.813H621.962V515.454H622.704V512.105H623.447V510.434H622.704V508.771H621.962V510.442H621.219V508.771H619.734V535.546H621.219V533.868H620.477V528.849H621.219V527.178H621.962V523.829H622.704L622.66 522.181ZM621.175 525.522H620.432V522.181H621.175V525.522Z" fill="white"/>
<path d="M624.115 522.182V523.852H625.578V522.182V520.504H624.843V522.182H624.115Z" fill="white"/>
<path d="M640.147 523.852V525.531H641.602V523.852H643.065V522.182H643.792V520.504H641.602V522.182H639.419V523.852H640.147Z" fill="white"/>
<path d="M624.843 525.53V527.201H625.578V528.872V530.55H623.388V528.872H624.115V527.201V525.53H623.388V527.201H622.66V528.872V530.55V532.22V533.891H624.115V535.569H624.843V533.891H625.578V532.22H626.306V530.55H627.034V528.872H626.306V527.201H627.034V525.53H626.306V523.852H625.578V525.53H624.843Z" fill="white"/>
<path d="M636.502 525.523H635.774V527.194H636.502V525.523Z" fill="white"/>
<path d="M637.963 527.201H636.508V528.871H637.235V530.549H638.691V528.871H637.963V527.201Z" fill="white"/>
<path d="M640.146 527.201V525.53H637.963V527.201H638.691V528.872H641.602V530.55V532.22H640.146V533.891V535.569H642.337V533.891H643.792V532.22H643.064V530.55V528.872H642.337V527.201H643.792V525.53H641.602V527.201H640.146Z" fill="white"/>
<path d="M614.649 528.871H613.921V530.549V532.22H614.649V530.549V528.871Z" fill="white"/>
<path d="M621.933 530.549H621.205V532.22H621.933V530.549Z" fill="white"/>
<path d="M628.489 532.22V533.891V535.569H629.944V533.891H629.216V532.22H629.944V530.549H628.489V532.22Z" fill="white"/>
<path d="M637.229 530.549H636.501V532.22H637.229V530.549Z" fill="white"/>
<path d="M640.147 530.549H639.419V532.22H640.147V530.549Z" fill="white"/>
<path d="M611.73 532.22V530.549H611.002V532.22V533.891H611.73V532.22Z" fill="white"/>
<path d="M614.649 532.22V533.891H613.921V535.569H616.104V533.891H617.559V532.22V530.549H616.832V532.22H614.649Z" fill="white"/>
<path d="M619.014 532.221H618.287V533.891H619.014V532.221Z" fill="white"/>
<path d="M627.033 533.891V535.569H627.761V533.891V532.221H627.033V533.891Z" fill="white"/>
<path d="M639.419 532.221H637.963V533.891H639.419V532.221Z" fill="white"/>
<path d="M611.003 533.891H610.275V535.561H611.003V533.891Z" fill="white"/>
<path d="M613.186 533.891H611.73V535.561H613.186V533.891Z" fill="white"/>
<path d="M636.502 533.891H635.774V535.561H636.502V533.891Z" fill="white"/>
<path d="M637.964 533.891H637.236V535.561H637.964V533.891Z" fill="white"/>
<path d="M459.522 685C644.501 685 794.456 535.045 794.456 350.067C794.456 165.088 644.501 15.1336 459.522 15.1336C274.544 15.1336 124.589 165.088 124.589 350.067C124.589 535.045 274.544 685 459.522 685Z" stroke="white" stroke-width="10" stroke-linecap="round" stroke-linejoin="round" stroke-dasharray="101.23 101.23"/>
<path d="M175.563 327.858C180.493 259.747 209.823 196.381 259.378 147.613C307.314 100.337 370.271 71.3108 437.351 65.5574" stroke="white" stroke-width="2" stroke-linecap="round" stroke-linejoin="round" stroke-dasharray="20 20"/>
<path d="M459.849 652.456C379.279 652.456 303.528 621.077 246.555 564.096C189.582 507.116 158.196 431.372 158.196 350.802C158.196 270.232 189.574 194.473 246.555 137.5C303.535 80.5268 379.279 49.1556 459.849 49.1556C540.42 49.1556 616.171 80.5343 673.144 137.515C730.117 194.495 761.503 270.239 761.503 350.817C761.503 431.394 730.125 507.138 673.144 564.111C616.164 621.084 540.42 652.456 459.849 652.456Z" stroke="white" stroke-width="2" stroke-linecap="round" stroke-linejoin="round"/>
<path d="M459.849 34.8253C462.329 34.8253 464.809 34.8253 467.274 34.9069" stroke="white" stroke-width="2" stroke-linecap="round" stroke-linejoin="round"/>
<path d="M482.154 35.5971C646.25 47.0392 775.834 183.795 775.834 350.809C775.834 525.3 634.362 666.793 459.849 666.793C290.319 666.793 151.973 533.274 144.229 365.674" stroke="white" stroke-width="2" stroke-linecap="round" stroke-linejoin="round" stroke-dasharray="20.06 20.06"/>
<path d="M143.954 358.234C143.895 355.759 143.865 353.284 143.865 350.809" stroke="white" stroke-width="2" stroke-linecap="round" stroke-linejoin="round"/>
<path d="M113.607 316.505C117.149 316.505 120.691 316.468 124.233 316.505C131.116 316.579 135.816 321.257 135.86 328.148C135.905 335.655 135.935 343.169 135.86 350.676C135.828 353.015 135.059 355.285 133.663 357.163C132.268 359.041 130.317 360.431 128.086 361.138C125.863 361.867 123.469 361.889 121.232 361.201C118.996 360.514 117.027 359.151 115.597 357.299C114.141 355.316 113.313 352.941 113.221 350.483C112.664 343.265 108.276 339.13 101.029 339.078C93.9454 339.033 86.8618 339.078 79.7783 339.078C76.8793 339.189 74.0476 338.187 71.8631 336.278C70.6894 335.301 69.7422 334.081 69.087 332.701C68.4319 331.321 68.0844 329.816 68.0688 328.289C68.002 320.448 67.9574 312.6 68.0688 304.759C68.1582 301.95 69.2955 299.277 71.257 297.264C73.2184 295.252 75.862 294.047 78.6674 293.886C81.4728 293.725 84.2369 294.619 86.4158 296.394C88.5947 298.168 90.0305 300.694 90.4408 303.474C90.5447 304.142 90.6115 304.818 90.6635 305.486C91.213 312.169 95.72 316.409 102.469 316.52C106.182 316.579 109.895 316.52 113.607 316.52V316.505Z" fill="white"/>
<path d="M45.348 361.68C41.4721 361.68 37.5962 361.761 33.7203 361.68C31.1632 361.622 28.7022 360.695 26.7429 359.051C24.7837 357.407 23.4431 355.144 22.9423 352.636C22.4416 350.128 22.8105 347.524 23.9882 345.254C25.166 342.983 27.0823 341.182 29.4211 340.147C31.0514 339.472 32.7949 339.111 34.5593 339.085C41.7988 338.974 49.0457 338.981 56.2927 339.085C61.8244 339.145 66.079 342.315 67.5269 347.253C68.0168 348.893 68.1257 350.623 67.8455 352.311C67.5653 353.999 66.9033 355.601 65.9099 356.995C64.9166 358.389 63.6182 359.537 62.1136 360.353C60.6091 361.169 58.9382 361.63 57.2282 361.702C53.2706 361.851 49.3056 361.702 45.348 361.702V361.68Z" fill="white"/>
<path d="M56.6637 293.807C54.4207 293.801 52.23 293.129 50.3695 291.876C48.509 290.624 47.0624 288.846 46.2133 286.77C45.3642 284.694 45.1508 282.413 45.6002 280.215C46.0495 278.018 47.1414 276.003 48.7374 274.427C50.3333 272.851 52.3613 271.784 54.5643 271.363C56.7673 270.941 59.0459 271.183 61.1112 272.058C63.1765 272.933 64.9354 274.401 66.1648 276.277C67.3942 278.153 68.0388 280.352 68.0167 282.595C67.9739 285.58 66.7596 288.428 64.6357 290.525C62.5119 292.623 59.6487 293.802 56.6637 293.807Z" fill="white"/>
<path d="M45.326 305.36C45.2753 307.59 44.5643 309.754 43.283 311.58C42.0017 313.405 40.2076 314.81 38.1279 315.615C36.0481 316.42 33.7762 316.591 31.5996 316.104C29.423 315.618 27.4396 314.497 25.9005 312.883C24.3613 311.269 23.3356 309.234 22.9531 307.037C22.5706 304.84 22.8486 302.579 23.7518 300.539C24.655 298.5 26.1429 296.775 28.0271 295.582C29.9113 294.388 32.1072 293.781 34.3367 293.836C37.316 293.926 40.14 295.185 42.1969 297.342C44.2539 299.499 45.3781 302.38 45.326 305.36Z" fill="white"/>
<path d="M11.356 339.018C9.85697 339.031 8.37038 338.745 6.98349 338.176C5.5966 337.607 4.33735 336.766 3.27963 335.704C2.22192 334.642 1.38706 333.379 0.824044 331.989C0.261027 330.6 -0.0188017 329.112 0.000980166 327.613C0.020762 326.114 0.339756 324.634 0.939241 323.26C1.53873 321.886 2.40662 320.646 3.492 319.612C4.57738 318.578 5.85837 317.771 7.25979 317.239C8.66122 316.706 10.1548 316.459 11.653 316.512C14.5936 316.616 17.3768 317.867 19.4064 319.997C21.4361 322.128 22.5509 324.968 22.512 327.91C22.4732 330.852 21.2839 333.663 19.1987 335.739C17.1135 337.815 14.2984 338.992 11.356 339.018Z" fill="white"/>
<path d="M113.199 373.1C113.174 375.327 112.489 377.497 111.23 379.336C109.972 381.174 108.197 382.598 106.129 383.427C104.062 384.256 101.794 384.454 99.6145 383.995C97.4346 383.536 95.4398 382.441 93.8823 380.848C92.3248 379.255 91.2745 377.236 90.8644 375.046C90.4543 372.857 90.7027 370.595 91.5781 368.546C92.4536 366.498 93.9168 364.755 95.7828 363.538C97.6488 362.321 99.8337 361.685 102.061 361.71C105.047 361.749 107.895 362.969 109.983 365.104C112.07 367.239 113.227 370.114 113.199 373.1Z" fill="white"/>
<path d="M794.389 350.066C794.389 535.041 644.439 685 459.456 685" stroke="white" stroke-width="30" stroke-linecap="round" stroke-linejoin="round"/>
<path d="M124.656 349.933C124.656 164.988 274.614 15 459.589 15" stroke="white" stroke-width="30" stroke-linecap="round" stroke-linejoin="round"/>
<path d="M848.08 361.204C848.08 378.683 848.08 396.162 848.08 413.641C848.023 415.409 848.297 417.172 848.889 418.838C850.649 423.197 854.087 425.402 858.794 425.603C863.19 425.781 866.509 427.719 868.395 431.691C869.1 433.215 869.482 434.869 869.516 436.547C869.635 443.601 869.613 450.655 869.553 457.716C869.548 459.154 869.257 460.577 868.699 461.902C868.141 463.227 867.325 464.429 866.3 465.437C865.275 466.446 864.06 467.241 862.726 467.778C861.392 468.315 859.965 468.582 858.527 468.564C844.33 468.438 830.133 468.564 815.937 468.505C813.755 468.557 811.61 467.933 809.796 466.72C807.982 465.506 806.587 463.762 805.801 461.726C805.024 459.732 804.86 457.551 805.331 455.463C805.802 453.376 806.886 451.476 808.445 450.009C810.132 448.38 812.324 447.374 814.659 447.158C815.461 447.084 816.263 447.039 817.058 446.935C819.767 446.614 822.252 445.271 824.005 443.181C825.757 441.09 826.646 438.409 826.488 435.685C826.331 432.961 825.14 430.4 823.158 428.525C821.176 426.65 818.553 425.602 815.825 425.595C808.69 425.528 801.554 425.595 794.418 425.551C792.03 425.589 789.697 424.821 787.798 423.372C785.899 421.922 784.543 419.876 783.949 417.561C783.74 416.872 783.626 416.158 783.607 415.438C783.607 393.548 783.496 371.629 783.645 349.77C783.689 341.996 792.228 337.147 799.148 340.726C800.751 341.491 802.128 342.66 803.142 344.118C804.156 345.576 804.773 347.273 804.932 349.042C805.029 350.081 805.066 351.125 805.044 352.168C805.044 365.236 805.044 378.305 805.044 391.373C805.015 392.656 805.087 393.94 805.259 395.212C805.723 397.758 807.091 400.05 809.113 401.666C811.134 403.282 813.672 404.113 816.258 404.004C818.843 403.896 821.302 402.855 823.181 401.076C825.06 399.296 826.232 396.897 826.48 394.321C826.48 394.001 826.517 393.675 826.517 393.355C826.517 379.002 826.517 364.65 826.517 350.289C826.601 348.182 826.021 346.102 824.86 344.342C823.698 342.583 822.013 341.232 820.043 340.481C818.467 339.912 816.815 339.582 815.142 339.501C811.355 339.115 808.363 337.437 806.559 334.11C805.7 332.573 805.214 330.857 805.14 329.098C805.036 314.51 805.036 299.92 805.14 285.327C805.14 280.827 807.613 277.59 811.771 275.86C815.758 274.197 819.501 274.902 822.797 277.627C823.887 278.521 824.78 279.631 825.419 280.887C826.058 282.144 826.429 283.519 826.51 284.926C826.51 285.32 826.51 285.728 826.562 286.121C827.015 291.92 830.898 295.9 836.69 296.517C837.809 296.564 838.923 296.69 840.024 296.895C842.215 297.461 844.171 298.705 845.613 300.449C847.054 302.193 847.908 304.349 848.05 306.607C848.117 307.484 848.087 308.375 848.087 309.251C848.087 326.571 848.085 343.889 848.08 361.204Z" fill="white"/>
<path d="M458.312 350.267L455.416 349.681C455.295 349.657 455.169 349.66 455.049 349.69C454.929 349.719 454.817 349.775 454.72 349.853C454.624 349.931 454.546 350.029 454.492 350.14C454.438 350.252 454.408 350.374 454.406 350.497V351.158C454.405 351.283 454.431 351.406 454.483 351.519C454.536 351.631 454.613 351.731 454.71 351.809C454.806 351.888 454.919 351.944 455.04 351.972C455.161 352.001 455.287 352.002 455.409 351.975L458.312 351.359C458.445 351.332 458.582 351.339 458.711 351.377C458.841 351.416 458.958 351.486 459.054 351.581C459.15 351.677 459.221 351.795 459.26 351.925C459.298 352.054 459.305 352.191 459.277 352.324L458.661 355.227C458.634 355.348 458.635 355.473 458.663 355.594C458.692 355.714 458.747 355.827 458.824 355.923C458.902 356.019 459.001 356.097 459.112 356.15C459.224 356.203 459.347 356.23 459.47 356.23H460.139C460.263 356.23 460.385 356.203 460.497 356.15C460.609 356.097 460.708 356.019 460.786 355.923C460.864 355.827 460.92 355.715 460.95 355.594C460.979 355.474 460.981 355.349 460.955 355.227L460.361 352.331C460.34 352.198 460.35 352.062 460.39 351.933C460.429 351.804 460.499 351.687 460.591 351.589C460.688 351.494 460.805 351.423 460.934 351.383C461.064 351.343 461.201 351.334 461.334 351.359L464.23 351.953C464.352 351.977 464.478 351.974 464.599 351.943C464.719 351.913 464.832 351.857 464.928 351.778C465.025 351.699 465.103 351.6 465.157 351.488C465.21 351.376 465.239 351.253 465.24 351.129V350.468C465.24 350.344 465.213 350.221 465.16 350.109C465.107 349.997 465.029 349.898 464.933 349.82C464.837 349.742 464.725 349.686 464.604 349.657C464.484 349.627 464.359 349.626 464.237 349.651L461.341 350.275C461.208 350.299 461.071 350.291 460.942 350.251C460.813 350.211 460.695 350.14 460.599 350.045C460.504 349.948 460.435 349.83 460.396 349.701C460.357 349.571 460.35 349.435 460.376 349.302L460.992 346.406C461.019 346.285 461.018 346.16 460.99 346.04C460.962 345.919 460.907 345.806 460.829 345.71C460.751 345.614 460.653 345.536 460.541 345.483C460.429 345.43 460.307 345.403 460.183 345.404H459.522C459.397 345.403 459.274 345.431 459.161 345.484C459.048 345.538 458.949 345.616 458.87 345.712C458.791 345.809 458.734 345.922 458.705 346.044C458.675 346.165 458.673 346.291 458.698 346.414L459.292 349.309C459.316 349.443 459.307 349.579 459.267 349.709C459.227 349.838 459.157 349.956 459.062 350.052C458.964 350.146 458.844 350.215 458.713 350.252C458.583 350.29 458.445 350.295 458.312 350.267Z" fill="white"/>
</svg>
