<svg width="670" height="250" viewBox="0 0 670 250" fill="none" xmlns="http://www.w3.org/2000/svg">
<g clip-path="url(#clip0_41_9)">
<path fill-rule="evenodd" clip-rule="evenodd" d="M419.8 117.7C408.2 153.4 375.4 181.2 333.9 181.2C289.9 181.2 260.3 153.8 248.5 118.4C260.9 151.3 294.5 174.9 334 174.9C373.8 175 407.7 151 419.8 117.7ZM248.3 63.2C260 27.5 287.7 0 333.9 0C376.9 0 408.5 27.9 419.9 64C407.9 30.4 374 6.2 333.9 6.2C294.3 6.1 260.5 30 248.3 63.2Z" fill="white"/>
<path fill-rule="evenodd" clip-rule="evenodd" d="M335.8 54.3981C336.3 53.5981 338 54.0981 339.2 54.1981C340.8 54.1981 340.4 56.5981 342.6 56.0981C344.8 55.5981 344.8 58.1981 347.9 58.0981C351 57.9981 347.3 59.1981 347.3 59.1981C347.3 59.1981 345.4 58.2981 344.1 58.8981C343.4 59.1981 344.3 58.6981 343.2 57.7981C341.5 56.3981 341.7 58.0981 338.8 55.5981C336.8 53.7981 334.9 55.6981 335.8 54.3981ZM351.5 117.598C352.7 118.098 354.3 119.298 355 121.198C356.7 125.598 354.2 121.998 354.2 128.698C354.2 134.798 352.4 133.898 352.4 133.898C352.4 133.898 352 141.198 348.2 145.598C345.8 147.998 347.7 149.998 347.7 149.998C347.7 149.998 346.9 150.498 345.7 155.698C345.3 157.398 347.5 159.998 349.5 159.398C350.9 158.898 346 158.398 351.4 156.198C353.5 155.298 351.8 153.698 351.8 153.698C351.8 153.698 355.3 153.398 357.2 148.298C360.7 148.798 359.4 146.698 366.5 145.198C368.4 144.798 368.8 144.198 368.5 142.498C368.3 140.798 370.8 142.798 377.9 135.698C383.4 130.098 381.4 128.898 385.3 126.798C389.3 124.698 389.7 126.998 391.1 125.198C394.2 121.198 393.1 121.498 394.4 118.998L395.3 117.598H351.5ZM312.5 58.8981C311.3 56.0981 311.4 51.5981 313.9 47.3981C315.5 44.7981 319.6 43.5981 323.2 44.9981C327.2 41.8981 328.2 45.1981 331.8 43.6981C336.5 41.6981 333.9 48.9981 338.4 50.8981C340.3 45.9981 334.1 42.2981 338 39.8981C340.8 38.1981 342.8 37.1981 344 34.9981C345.6 31.7981 346.2 29.4981 347.5 29.0981C350.4 28.0981 349.7 25.4981 349.7 25.4981C349.7 25.4981 352.7 26.3981 355.1 24.1981C353.3 23.1981 350.7 22.3981 351.4 20.4981C352.2 18.1981 358.3 22.7981 360.2 19.0981C356.6 17.4981 352.8 14.0981 350.6 13.3981C349.1 14.9981 348.1 14.3981 346.2 12.7981C342.9 10.1981 342.6 12.6981 340.5 10.8981C338.8 14.1981 341.3 13.8981 342.1 14.7981C344.2 17.0981 339.9 12.6981 340.4 18.5981C340.5 20.0981 338.2 20.3981 336.5 17.0981C335.6 15.3981 328.5 15.6981 327.5 14.0981C328.5 12.1981 336.8 5.29807 349.6 6.99807C331 -0.201934 305.9 7.69807 305.7 10.3981C303.2 11.8981 304.1 13.6981 302.8 14.0981C300.6 14.7981 298.3 21.2981 298.3 21.2981C298.3 21.2981 299.6 22.1981 295.4 26.7981C291.9 30.5981 290.9 36.3981 290.9 36.3981C290.9 36.3981 293.2 40.4981 292.8 45.2981C292.5 48.8981 292.3 46.1981 293.9 48.8981C294.8 50.3981 295.9 55.7981 296.5 53.6981C297.7 49.6981 294.3 45.9981 294.9 41.9981C295 42.4981 296.2 40.3981 296.1 42.2981C296 47.1981 302.2 56.6981 302.2 56.6981C302.2 56.6981 299.9 58.9981 302.3 58.9981L312.5 58.8981Z" fill="white"/>
<path d="M179.3 72H165.2L167.3 74.5V92.7C167.3 96.8 164.5 98.5 160.4 98.5C156.3 98.5 153.5 96.8 153.5 92.7V74.5L155.6 72H141.5L143.6 74.5V93C143.6 102.1 148.8 105.6 160.4 105.6C172 105.6 177.2 102.1 177.2 93V74.5L179.3 72Z" fill="white"/>
<path d="M228.3 72H216.4L218.5 74.5V91.1L201.4 72H190.7L192.9 74.5V102.6L190.7 105H202.6L200.5 102.6V85.6L218.7 105H226.2V74.5L228.3 72Z" fill="white"/>
<path d="M255.7 105L253.6 102.6V74.5L255.7 72H241.5L243.6 74.5V102.6L241.5 105H255.7Z" fill="white"/>
<path d="M302.6 72H290.6L292.7 74.5L284.3 92.7L276.2 74.5L278.3 72H264.2L279.8 105H286.8L302.6 72Z" fill="white"/>
<path d="M342.5 105V96.1L339.9 98.2H322.8V91.8H333.7L336.1 93.9V83.2L333.7 85.2H322.8V78.9H339.9L342.5 81V72H310.9L313 74.5V102.6L310.9 105H342.5Z" fill="white"/>
<path fill-rule="evenodd" clip-rule="evenodd" d="M390.4 105L381.3 92C385.8 90.2 388.9 86.8 388.9 82C388.9 76.5 385.5 72 376 72H355.1L357.2 74.5V102.5L355.1 105H369.1L367 102.5V93.1H371.2L377.6 102.5L375.5 105H390.4ZM378.9 82.7C378.9 85.1 376.6 87 373.4 87H367V78.9H374.6C376.8 78.9 378.9 80 378.9 82.7Z" fill="white"/>
<path d="M432.9 95.4C432.9 90.2 428.6 87.2 422.5 85.3C418.5 84.1 412.8 83.2 412.8 80.5C412.8 79.2 414.3 78.3 417.1 78.3C420.7 78.3 426.6 79.8 431.3 82V71L428.6 73.5C425.8 72.4 420.9 71.2 417.6 71.2C406.2 71.2 402.5 76.1 402.5 80.7C402.5 86.8 406.6 89.5 413.1 91.7C417.9 93.3 422.4 93.5 422.4 96.2C422.4 98.5 419.6 98.8 418.2 98.8C414.6 98.8 408.3 97.6 402.7 94V106.2L405.4 103.3C408 104.3 413.9 106 418.7 106C428.4 105.9 432.9 101.6 432.9 95.4Z" fill="white"/>
<path fill-rule="evenodd" clip-rule="evenodd" d="M482.9 105L466.4 72H455.1L456.3 74.5L441.5 105H453.8L451.7 102.5L453.4 99H469.4L471 102.5L468.9 105H482.9ZM466.8 93.2H455.7L461.2 81.4L466.8 93.2Z" fill="white"/>
<path d="M522.6 105V96.1L520.1 98.2H504V74.5L506.1 72H492.1L494.2 74.5V102.6L492.1 105H522.6Z" fill="white"/>
<path d="M513.7 76.6C513.7 78.9 515.6 80.8 517.9 80.8C520.2 80.8 522.1 78.9 522.1 76.6C522.1 74.3 520.2 72.4 517.9 72.4C515.5 72.4 513.7 74.3 513.7 76.6ZM513.2 76.6C513.2 74.1 515.3 72 517.9 72C520.5 72 522.6 74.1 522.6 76.6C522.6 79.1 520.5 81.2 517.9 81.2C515.3 81.2 513.2 79.2 513.2 76.6Z" fill="white"/>
<path fill-rule="evenodd" clip-rule="evenodd" d="M519.6 74.7992C519.1 74.3992 518.6 74.1992 518 74.1992C516.6 74.1992 515.6 75.2992 515.6 76.5992C515.6 77.8992 516.6 78.9992 518 78.9992C518.6 78.9992 519.2 78.7992 519.7 78.3992V77.7992C519.3 78.2992 518.7 78.5992 518 78.5992C516.9 78.5992 516.1 77.6992 516.1 76.5992C516.1 75.5992 516.9 74.5992 518 74.5992C518.7 74.5992 519.2 74.8992 519.6 75.2992V74.7992Z" fill="white"/>
<path d="M24.3 227.7V240.5C24.3 246.8 20.8 249.2 12.9 249.2C5 249.2 1.5 246.8 1.5 240.5V227.7L0 226H9.6L8.2 227.7V240.3C8.2 243.1 10.1 244.3 12.9 244.3C15.7 244.3 17.6 243.1 17.6 240.3V227.7L16.2 226H25.8L24.3 227.7Z" fill="white"/>
<path d="M61.2 227.7V248.8H56L43.7 235.4V247.1L45.1 248.8H37L38.4 247.1V227.7L37 226H44.3L55.9 239.2V227.7L54.5 226H62.6L61.2 227.7Z" fill="white"/>
<path d="M75.1001 248.8L76.5001 247.1V227.7L75.1001 226H84.8001L83.4001 227.7V247.1L84.8001 248.8H75.1001Z" fill="white"/>
<path d="M109.5 248.8H104.7L94.2002 226H103.8L102.4 227.7L107.9 240.3L113.6 227.7L112.2 226H120.3L109.5 248.8Z" fill="white"/>
<path d="M129.5 248.8L130.9 247.1V227.7L129.5 226H151V232.2L149.3 230.8H137.6V235.2H145L146.7 233.8V241.2L145 239.8H137.6V244.2H149.3L151 242.8V249H129.5V248.8Z" fill="white"/>
<path d="M179.4 233.4C179.4 235 177.8 236.4 175.6 236.4H171.3V230.8H176.5C177.9 230.7 179.4 231.5 179.4 233.4ZM187.2 248.8L181 239.8C184 238.6 186.2 236.2 186.2 232.9C186.2 229.1 183.9 226 177.4 226H163.2L164.6 227.7V247.1L163.2 248.8H172.7L171.3 247.1V240.6H174.2L178.6 247.1L177.2 248.8H187.2V248.8Z" fill="white"/>
<path d="M209.9 249.398C206.6 249.398 202.6 248.198 200.8 247.598L199 249.598V241.098C202.8 243.598 207.1 244.498 209.6 244.498C210.6 244.498 212.4 244.298 212.4 242.698C212.4 240.798 209.4 240.698 206.1 239.598C201.7 238.098 198.9 236.198 198.9 231.998C198.9 228.898 201.4 225.498 209.2 225.498C211.5 225.498 214.8 226.298 216.7 227.098L218.5 225.398V232.998C215.4 231.498 211.3 230.498 208.9 230.498C207.1 230.498 206 231.098 206 231.998C206 233.798 209.9 234.398 212.6 235.298C216.8 236.698 219.7 238.698 219.7 242.298C219.6 246.398 216.6 249.398 209.9 249.398Z" fill="white"/>
<path d="M246.3 240.6H238.7L242.5 232.4L246.3 240.6ZM257.3 248.8L246 226H238.3L239.1 227.7L229 248.8H237.4L236 247.1L237.1 244.7H248L249.1 247.1L247.7 248.8H257.3Z" fill="white"/>
<path d="M267 248.8L268.4 247.1V227.7L267 226H276.5L275.1 227.7V244H286.1L287.8 242.6V248.8H267V248.8Z" fill="white"/>
<path d="M339.1 248.8L340.5 247.1V236.2L334.4 248.9H331.2L324.4 236V247.1L325.8 248.8H318L319.4 247.1V227.7L318 226H326L333.4 240L340.2 226H348.4L347 227.7V247.1L348.4 248.8H339.1V248.8Z" fill="white"/>
<path d="M384 227.7V240.5C384 246.8 380.5 249.2 372.6 249.2C364.7 249.2 361.2 246.8 361.2 240.5V227.7L359.8 226H369.4L368 227.7V240.3C368 243.1 369.9 244.3 372.7 244.3C375.5 244.3 377.4 243.1 377.4 240.3V227.7L376 226H385.6L384 227.7Z" fill="white"/>
<path d="M407.4 249.398C404.1 249.398 400.1 248.198 398.3 247.598L396.5 249.598V241.098C400.3 243.598 404.6 244.498 407.1 244.498C408.1 244.498 409.9 244.298 409.9 242.698C409.9 240.798 406.9 240.698 403.6 239.598C399.2 238.098 396.4 236.198 396.4 231.998C396.4 228.898 398.9 225.498 406.7 225.498C409 225.498 412.3 226.298 414.2 227.098L416 225.398V232.998C412.9 231.498 408.8 230.498 406.4 230.498C404.6 230.498 403.5 231.098 403.5 231.998C403.5 233.798 407.4 234.398 410.1 235.298C414.3 236.698 417.2 238.698 417.2 242.298C417.1 246.398 414.1 249.398 407.4 249.398Z" fill="white"/>
<path d="M429.3 248.8L430.7 247.1V227.7L429.3 226H439L437.6 227.7V247.1L439 248.8H429.3Z" fill="white"/>
<path d="M463.4 249.199C456.5 249.199 450.2 245.799 450.2 237.299C450.2 230.599 455 225.499 463.7 225.499C466.3 225.499 469.2 226.099 470.8 226.699L472.4 225.199V232.799C469.9 231.299 467.3 230.399 464.1 230.399C459.3 230.399 457.4 233.599 457.4 237.299C457.4 241.399 460.1 244.199 464.3 244.199C468.5 244.199 471 242.599 472.4 241.699V246.999C470.8 248.099 466.8 249.199 463.4 249.199Z" fill="white"/>
<path d="M518.9 237.499H527V246.599C525 247.899 520.5 249.199 516.6 249.199C509.7 249.199 503.1 245.799 503.1 237.299C503.1 228.699 510.2 225.499 516.6 225.499C520.3 225.499 522.7 226.399 524.1 226.899L525.9 225.199V232.999C523.4 231.599 520.5 230.399 516.9 230.399C512.7 230.399 510.2 233.199 510.2 237.299C510.2 241.399 512.7 244.199 516.9 244.199C518 244.199 519.2 243.999 520.3 243.799V239.099L518.9 237.499Z" fill="white"/>
<path d="M554.3 233.4C554.3 235 552.7 236.4 550.5 236.4H546.2V230.8H551.4C552.9 230.7 554.3 231.5 554.3 233.4ZM562.2 248.8L556 239.8C559 238.6 561.2 236.2 561.2 232.9C561.2 229.1 558.9 226 552.4 226H538.2L539.6 227.7V247.1L538.2 248.8H547.7L546.3 247.1V240.6H549.2L553.6 247.1L552.2 248.8H562.2V248.8Z" fill="white"/>
<path d="M592 237.398C592 241.598 590.3 244.498 586 244.498C581.7 244.498 580 241.598 580 237.398C580 233.198 581.7 230.398 586 230.398C590.3 230.298 592 233.198 592 237.398ZM599.2 237.398C599.2 228.698 592.5 225.398 586.1 225.398C579.7 225.398 572.9 228.698 572.9 237.398C572.9 246.098 579.7 249.398 586.1 249.398C592.5 249.398 599.2 245.998 599.2 237.398Z" fill="white"/>
<path d="M633.5 227.7V240.5C633.5 246.8 630 249.2 622.1 249.2C614.2 249.2 610.7 246.8 610.7 240.5V227.7L609.3 226H618.9L617.5 227.7V240.3C617.5 243.1 619.4 244.3 622.2 244.3C625 244.3 626.9 243.1 626.9 240.3V227.7L625.5 226H635.1L633.5 227.7Z" fill="white"/>
<path d="M662.3 233.998C662.3 236.898 660.6 237.698 657.5 237.698H654.3V230.798H658.1C660.5 230.698 662.3 231.398 662.3 233.998ZM669.2 233.498C669.2 227.198 662.9 225.898 658.4 225.898H646.1L647.5 227.598V246.998L646.1 248.698H655.6L654.2 246.998V242.098H658.2C663.7 242.198 669.2 240.698 669.2 233.498Z" fill="white"/>
</g>
<defs>
<clipPath id="clip0_41_9">
<rect width="669.2" height="250" fill="white"/>
</clipPath>
</defs>
</svg>
